<?xml version="1.0" standalone="no"?>
<!DOCTYPE svg PUBLIC "-//W3C//DTD SVG 20010904//EN"
 "http://www.w3.org/TR/2001/REC-SVG-20010904/DTD/svg10.dtd">
<svg version="1.0" xmlns="http://www.w3.org/2000/svg"
 width="550.000000pt" height="150.000000pt" viewBox="0 0 550.000000 150.000000"
 preserveAspectRatio="xMidYMid meet">
<metadata>
Created by potrace 1.16, written by Peter Selinger 2001-2019
</metadata>
<g transform="translate(0.000000,150.000000) scale(0.100000,-0.100000)"
fill="#000000" stroke="none">
<path d="M498 1291 c-25 -16 -58 -46 -74 -66 -16 -20 -54 -50 -86 -65 -31 -16
-65 -42 -76 -57 -24 -34 -42 -95 -42 -144 0 -26 -10 -51 -35 -85 -79 -112 -94
-184 -61 -307 9 -32 16 -79 16 -105 0 -98 73 -203 186 -268 27 -15 75 -51 106
-80 83 -75 165 -91 251 -47 57 29 57 33 57 625 0 609 4 573 -74 609 -61 28
-114 24 -168 -10z m163 -87 c22 -24 24 -35 27 -145 4 -132 0 -143 -51 -155
-18 -3 -41 -13 -52 -20 -36 -26 -103 -9 -171 42 -63 48 -88 44 -91 -16 -2 -25
-5 -66 -9 -91 -8 -64 13 -71 66 -22 36 31 45 35 78 30 42 -7 82 -46 82 -81 0
-13 7 -29 15 -36 24 -20 55 14 55 60 0 43 14 60 52 60 34 0 42 -24 36 -116 -5
-76 -20 -94 -78 -94 -46 0 -74 20 -116 86 -19 30 -41 54 -49 54 -8 0 -33 -9
-55 -21 -29 -15 -49 -19 -73 -15 -59 12 -79 11 -90 -5 -8 -12 -5 -24 11 -47
12 -16 22 -39 22 -49 0 -50 51 -66 65 -22 4 11 22 27 40 36 33 16 35 15 72
-10 21 -15 50 -37 66 -49 20 -16 44 -23 93 -26 78 -5 85 -14 75 -112 l-6 -65
-49 -27 c-53 -28 -81 -67 -71 -98 9 -29 39 -25 78 10 45 39 55 38 63 -6 8 -45
-16 -101 -50 -114 -36 -13 -95 7 -133 45 -28 28 -33 40 -33 79 0 48 19 99 42
110 73 36 93 53 93 76 0 35 -40 38 -122 9 -64 -23 -65 -23 -79 -4 -8 10 -14
31 -14 47 0 23 -4 28 -23 28 -13 0 -32 -9 -41 -19 -10 -11 -27 -21 -39 -23
-34 -5 -31 -26 11 -68 27 -28 48 -40 68 -40 60 0 86 -65 38 -96 -24 -16 -26
-16 -53 4 -16 11 -44 27 -64 35 -42 18 -63 47 -73 102 -4 22 -13 54 -21 72 -8
20 -13 72 -13 140 0 113 6 133 69 242 15 26 19 45 14 76 -7 53 17 102 54 111
22 6 30 2 42 -17 9 -13 28 -37 44 -53 25 -26 32 -28 70 -21 54 10 106 10 134
1 16 -6 24 -3 32 11 8 16 5 27 -16 56 -16 23 -26 51 -27 74 -1 28 -6 39 -19
41 -24 5 -44 -13 -68 -60 -30 -58 -79 -51 -79 12 0 28 49 81 95 101 57 26 97
24 126 -7z"/>
<path d="M1018 1259 c-32 -18 -21 -58 30 -114 228 -250 220 -698 -17 -944 -44
-45 -50 -75 -20 -94 30 -19 67 2 119 66 62 75 133 217 157 312 25 104 23 305
-6 410 -32 121 -94 237 -165 311 -64 67 -70 70 -98 53z"/>
<path d="M928 1119 c-29 -16 -21 -54 23 -105 102 -123 143 -291 108 -444 -15
-66 -72 -178 -118 -234 -48 -56 -53 -91 -16 -108 22 -10 29 -8 57 18 45 42
115 154 143 228 79 209 31 457 -119 619 -37 39 -49 43 -78 26z"/>
<path d="M3410 700 c0 -293 0 -300 20 -300 17 0 20 7 20 52 l0 53 31 -38 c42
-51 81 -69 148 -69 134 0 213 82 214 223 2 134 -79 221 -205 222 -74 1 -113
-17 -157 -70 l-31 -38 0 133 c0 125 -1 132 -20 132 -20 0 -20 -7 -20 -300z
m308 92 c82 -37 117 -169 72 -265 -30 -63 -86 -97 -161 -97 -108 0 -179 77
-179 193 0 148 132 232 268 169z"/>
<path d="M832 978 c-20 -20 -14 -45 23 -97 47 -65 65 -120 65 -197 0 -78 -28
-156 -75 -211 -36 -43 -43 -71 -23 -91 52 -52 160 84 188 237 15 81 0 171 -40
250 -50 99 -105 142 -138 109z"/>
<path d="M1880 685 l0 -285 125 0 c104 0 125 2 125 15 0 12 -18 15 -105 15
l-105 0 0 270 c0 263 0 270 -20 270 -20 0 -20 -7 -20 -285z"/>
<path d="M5290 685 c0 -278 0 -285 20 -285 20 0 20 7 20 285 0 278 0 285 -20
285 -20 0 -20 -7 -20 -285z"/>
<path d="M4959 933 c-6 -16 -50 -134 -99 -263 -49 -129 -91 -243 -95 -252 -5
-14 -2 -18 13 -18 16 0 26 16 47 75 l28 76 135 -3 135 -3 26 -70 c17 -44 33
-71 44 -73 9 -2 17 0 17 5 0 4 -46 131 -102 281 -83 221 -105 272 -120 272
-11 0 -23 -11 -29 -27z m89 -183 c28 -74 53 -143 57 -152 7 -17 -3 -18 -114
-18 -67 0 -121 3 -121 8 0 21 114 311 121 305 3 -4 29 -69 57 -143z"/>
<path d="M2735 838 c-39 -14 -54 -26 -77 -63 l-18 -30 0 48 c0 40 -3 47 -20
47 -19 0 -20 -7 -20 -220 0 -213 1 -220 20 -220 19 0 20 7 20 139 0 77 5 153
11 172 31 91 128 134 208 91 62 -33 71 -66 71 -244 0 -149 1 -158 19 -158 18
0 19 10 23 158 3 142 5 160 26 193 57 92 195 91 242 -2 17 -33 20 -59 20 -194
0 -151 1 -155 21 -155 21 0 21 3 17 163 -3 150 -5 165 -27 204 -55 96 -198
110 -270 27 -16 -18 -31 -38 -35 -46 -5 -11 -7 -11 -12 0 -4 8 -20 29 -36 48
-43 49 -116 66 -183 42z"/>
<path d="M4227 836 c-97 -26 -148 -100 -149 -214 0 -77 35 -156 85 -189 59
-41 174 -47 236 -14 22 12 81 78 81 91 0 4 3 15 6 24 4 11 0 16 -12 16 -12 -1
-27 -16 -39 -42 -26 -52 -73 -78 -142 -78 -65 0 -91 10 -130 50 -79 81 -63
246 29 308 74 49 199 28 236 -39 28 -51 39 -62 50 -55 27 16 -30 102 -88 131
-40 20 -111 25 -163 11z"/>
<path d="M2235 620 l93 -222 -39 -96 c-44 -108 -45 -115 -23 -110 11 2 57 104
144 326 106 267 125 322 110 322 -19 0 -18 4 -105 -225 -32 -82 -61 -154 -65
-158 -4 -4 -43 79 -87 185 -64 156 -84 194 -100 196 -19 3 -11 -22 72 -218z"/>
<path d="M3940 620 c0 -213 1 -220 20 -220 19 0 20 7 20 220 0 213 -1 220 -20
220 -19 0 -20 -7 -20 -220z"/>
</g>
</svg>
