<?xml version="1.0" encoding="utf-8"?>
<!-- Generator: Adobe Illustrator 26.0.1, SVG Export Plug-In . SVG Version: 6.00 Build 0)  -->
<svg version="1.1" id="beb8b204-3759-49ce-94f2-7f3d3b03c1ba"
	 xmlns="http://www.w3.org/2000/svg" xmlns:xlink="http://www.w3.org/1999/xlink" x="0px" y="0px" viewBox="0 0 956.6 472.5"
	 style="enable-background:new 0 0 956.6 472.5;" xml:space="preserve">
<style type="text/css">
	.st0{fill:#E6E6E6;}
	.st1{fill:#3F3D56;}
	.st2{fill:#069547;}
	.st3{fill:#FFFFFF;}
	.st4{opacity:0.2;enable-background:new    ;}
	.st5{fill:#0E8B44;}
	.st6{fill:#059948;}
	.st7{fill:#129F49;}
	.st8{fill:#FFB8B8;}
	.st9{fill:#A78BFA;}
	.st10{fill:#2F2E41;}
	.st11{fill:#0C8B44;}
	.st12{fill:#09753B;}
</style>
<rect x="357.4" y="294.7" transform="matrix(0.6262 -0.7797 0.7797 0.6262 -149.6283 415.3672)" class="st0" width="2" height="138"/>
<rect x="289" y="363.7" transform="matrix(0.7761 -0.6306 0.6306 0.7761 -149.7682 307.658)" class="st0" width="138.7" height="2"/>
<rect x="696.3" y="37.1" transform="matrix(0.6338 -0.7735 0.7735 0.6338 104.3045 610.8176)" class="st0" width="2" height="316.2"/>
<rect x="538.8" y="194.7" transform="matrix(0.7717 -0.6359 0.6359 0.7717 34.677 488.1058)" class="st0" width="316.9" height="2"/>
<path class="st0" d="M892.5,0H7.5C3.4,0,0,3.4,0,7.5v457c0,4.1,3.4,7.5,7.5,7.5h885c2.4,0,4.6-1.1,6-3.1c0.4-0.5,0.7-1.1,1-1.7
	c0.3-0.9,0.5-1.8,0.5-2.7V7.5C900,3.4,896.6,0,892.5,0z M897,464.5c0,2.5-2,4.5-4.5,4.5H7.5C5,469,3,467,3,464.5V7.5C3,5,5,3,7.5,3
	h885c2.5,0,4.5,2,4.5,4.5V464.5z"/>
<rect x="3" y="38.3" class="st0" width="897" height="2"/>
<path class="st0" d="M929.9,411.5c-0.5,20.3-3.9,40.4-10.1,59.7c-0.1,0.4-0.3,0.9-0.4,1.3h-37.6c0-0.4,0.1-0.8,0.1-1.3
	c2.5-28.8,17-204.4-0.3-234.5C883.1,239.1,932.9,319.8,929.9,411.5z"/>
<path class="st0" d="M927.1,471.1c-0.3,0.4-0.6,0.9-1,1.3h-28.2c0.2-0.4,0.5-0.8,0.7-1.3c4.7-8.4,18.5-33.6,31.3-59.7
	c13.8-28,26.4-57.1,25.3-67.7C955.6,346.1,965.1,418.6,927.1,471.1z"/>
<path class="st0" d="M545.6,184.5h-238c-3.9,0-7-3.1-7-7v-79c0-3.9,3.1-7,7-7h238c3.9,0,7,3.1,7,7v79
	C552.6,181.3,549.4,184.5,545.6,184.5z M307.6,93.5c-2.8,0-5,2.2-5,5v79c0,2.8,2.2,5,5,5h238c2.8,0,5-2.2,5-5v-79c0-2.8-2.2-5-5-5
	H307.6z"/>
<path class="st0" d="M817.6,411.5h-238c-3.9,0-7-3.1-7-7v-79c0-3.9,3.1-7,7-7h238c3.9,0,7,3.1,7,7v79
	C824.6,408.3,821.4,411.5,817.6,411.5z"/>
<path class="st0" d="M408.6,297.5h-101c-3.9,0-7-3.1-7-7v-79c0-3.9,3.1-7,7-7h101c3.9,0,7,3.1,7,7v79
	C415.6,294.3,412.4,297.5,408.6,297.5z M307.6,206.5c-2.8,0-5,2.2-5,5v79c0,2.8,2.2,5,5,5h101c2.8,0,5-2.2,5-5v-79c0-2.8-2.2-5-5-5
	H307.6z"/>
<path class="st0" d="M545.6,297.5h-101c-3.9,0-7-3.1-7-7v-79c0-3.9,3.1-7,7-7h101c3.9,0,7,3.1,7,7v79
	C552.6,294.3,549.4,297.5,545.6,297.5z"/>
<path class="st1" d="M408.6,410.5h-101c-3.9,0-7-3.1-7-7v-79c0-3.9,3.1-7,7-7h101c3.9,0,7,3.1,7,7v79
	C415.6,407.3,412.4,410.5,408.6,410.5z M307.6,319.5c-2.8,0-5,2.2-5,5v79c0,2.8,2.2,5,5,5h101c2.8,0,5-2.2,5-5v-79c0-2.8-2.2-5-5-5
	H307.6z"/>
<path class="st0" d="M545.6,410.5h-101c-3.9,0-7-3.1-7-7v-79c0-3.9,3.1-7,7-7h101c3.9,0,7,3.1,7,7v79
	C552.6,407.3,549.4,410.5,545.6,410.5z M444.6,319.5c-2.8,0-5,2.2-5,5v79c0,2.8,2.2,5,5,5h101c2.8,0,5-2.2,5-5v-79c0-2.8-2.2-5-5-5
	H444.6z"/>
<path class="st1" d="M816.6,298.5h-238c-3.9,0-7-3.1-7-7v-193c0-3.9,3.1-7,7-7h238c3.9,0,7,3.1,7,7v193
	C823.6,295.3,820.4,298.5,816.6,298.5z M578.6,93.5c-2.8,0-5,2.2-5,5v193c0,2.8,2.2,5,5,5h238c2.8,0,5-2.2,5-5v-193c0-2.8-2.2-5-5-5
	H578.6z"/>
<path class="st2" d="M855.6,333.5h-238c-3.9,0-7-3.1-7-7v-193c0-3.9,3.1-7,7-7h238c3.9,0,7,3.1,7,7v193
	C862.6,330.3,859.4,333.5,855.6,333.5z"/>
<path class="st3" d="M763.7,286H642.2c-0.2,0-0.3,0-0.5,0l57.5-99.5c1.1-1.9,3.5-2.6,5.5-1.5c0.6,0.4,1.2,0.9,1.5,1.5l38.6,66.8
	l1.8,3.2L763.7,286z"/>
<polygon class="st4" points="763.7,286 722.2,286 742.6,256.4 744.1,254.3 744.8,253.2 746.7,256.4 "/>
<path class="st3" d="M831.4,286H726.3l20.4-29.6l1.5-2.1l26.5-38.5c1.8-2.3,5.2-2.7,7.5-0.9c0.1,0.1,0.3,0.2,0.4,0.4
	c0.1,0.2,0.3,0.3,0.4,0.5L831.4,286z"/>
<circle class="st3" cx="752.2" cy="192" r="18"/>
<rect x="623.6" y="140.5" class="st1" width="22" height="22"/>
<path class="st5" d="M436.6,432.5h-101c-3.9,0-7-3.1-7-7v-79c0-3.9,3.1-7,7-7h101c3.9,0,7,3.1,7,7v79
	C443.6,429.3,440.4,432.5,436.6,432.5z"/>
<path class="st3" d="M397.4,409.3h-50.7c-0.1,0-0.1,0-0.2,0l24-41.5c0.5-0.8,1.5-1.1,2.3-0.6c0.3,0.2,0.5,0.4,0.6,0.6l16.1,27.9
	l0.8,1.3L397.4,409.3z"/>
<polygon class="st4" points="397.4,409.3 380.1,409.3 388.6,397 389.2,396.1 389.5,395.7 390.3,397 "/>
<path class="st3" d="M425.6,409.3h-43.9l8.5-12.3l0.6-0.9L402,380c0.8-1,2.2-1.1,3.1-0.4c0.1,0,0.1,0.1,0.2,0.2
	c0.1,0.1,0.1,0.1,0.2,0.2L425.6,409.3z"/>
<circle class="st3" cx="392.6" cy="370.1" r="7.5"/>
<rect x="338.6" y="347.5" class="st1" width="16" height="16"/>
<path id="f57cf1cd-83f7-4fd3-a8d1-d71a660a6415" class="st0" d="M100.2,142.9c-3.3,0.1-5.9,2.8-5.8,6c0.1,3.2,2.6,5.8,5.8,5.8h107.1
	c3.3,0,6-2.6,6-5.9c0-3.3-2.6-6-5.8-6c-0.1,0-0.1,0-0.2,0H100.2z"/>
<path id="aee25563-7463-4829-8b3c-d6945ce6dfe7" class="st0" d="M100.2,173.9c-3.3,0.1-5.9,2.8-5.8,6c0.1,3.2,2.6,5.8,5.8,5.8h107.1
	c3.3,0,6-2.6,6-5.9c0-3.3-2.6-6-5.8-6c-0.1,0-0.1,0-0.2,0H100.2z"/>
<path id="aefa15f9-40e4-4075-8c80-8ab2e97e1ce3" class="st0" d="M100.2,204.9c-3.3,0.1-5.9,2.8-5.8,6c0.1,3.2,2.6,5.8,5.8,5.8h107.1
	c3.3,0,6-2.6,6-5.9c0-3.3-2.6-6-5.8-6c-0.1,0-0.1,0-0.2,0H100.2z"/>
<path id="a405b459-42e8-4eb5-9988-b9086189387e" class="st0" d="M100.2,235.9c-3.3,0.1-5.9,2.8-5.8,6c0.1,3.2,2.6,5.8,5.8,5.8h107.1
	c3.3,0,6-2.6,6-5.9c0-3.3-2.6-6-5.8-6c-0.1,0-0.1,0-0.2,0H100.2z"/>
<path id="b32f5175-a272-4d51-9048-0542c511c928" class="st0" d="M100.2,266.9c-3.3,0.1-5.9,2.8-5.8,6c0.1,3.2,2.6,5.8,5.8,5.8h107.1
	c3.3,0,6-2.6,6-5.9c0-3.3-2.6-6-5.8-6c-0.1,0-0.1,0-0.2,0H100.2z"/>
<path id="b3f78383-4856-4bdc-97c4-b8cb03fde67d" class="st0" d="M100.2,297.9c-3.3,0.1-5.9,2.8-5.8,6c0.1,3.2,2.6,5.8,5.8,5.8h107.1
	c3.3,0,6-2.6,6-5.9c0-3.3-2.6-6-5.8-6c-0.1,0-0.1,0-0.2,0H100.2z"/>
<path class="st0" d="M61.9,159.8c-6.1,0-11-4.9-11-11s4.9-11,11-11s11,4.9,11,11l0,0C72.9,154.9,68,159.8,61.9,159.8z M61.9,139.8
	c-5,0-9,4-9,9s4,9,9,9s9-4,9-9l0,0C70.9,143.9,66.9,139.8,61.9,139.8z"/>
<path class="st0" d="M61.9,190.8c-6.1,0-11-4.9-11-11s4.9-11,11-11s11,4.9,11,11l0,0C72.9,185.9,68,190.8,61.9,190.8z M61.9,170.8
	c-5,0-9,4-9,9s4,9,9,9s9-4,9-9l0,0C70.9,174.9,66.9,170.8,61.9,170.8z"/>
<path class="st0" d="M61.9,221.8c-6.1,0-11-4.9-11-11s4.9-11,11-11s11,4.9,11,11C72.9,216.9,68,221.8,61.9,221.8z M61.9,201.8
	c-5,0-9,4-9,9s4,9,9,9s9-4,9-9l0,0C70.9,205.8,66.9,201.8,61.9,201.8z"/>
<path class="st0" d="M61.9,252.8c-6.1,0-11-4.9-11-11s4.9-11,11-11s11,4.9,11,11C72.9,247.9,68,252.8,61.9,252.8z M61.9,232.8
	c-5,0-9,4-9,9s4,9,9,9s9-4,9-9l0,0C70.9,236.8,66.9,232.8,61.9,232.8z"/>
<path class="st0" d="M61.9,283.8c-6.1,0-11-4.9-11-11s4.9-11,11-11s11,4.9,11,11C72.9,278.9,68,283.8,61.9,283.8z M61.9,263.8
	c-5,0-9,4-9,9c0,5,4,9,9,9s9-4,9-9l0,0C70.9,267.8,66.9,263.8,61.9,263.8z"/>
<path class="st0" d="M61.9,314.8c-6.1,0-11-4.9-11-11s4.9-11,11-11s11,4.9,11,11l0,0C72.9,309.9,68,314.8,61.9,314.8z M61.9,294.8
	c-5,0-9,4-9,9s4,9,9,9s9-4,9-9C70.9,298.8,66.9,294.8,61.9,294.8L61.9,294.8z"/>
<circle class="st6" cx="61.9" cy="148.8" r="5"/>
<circle class="st7" cx="61.9" cy="210.8" r="5"/>
<circle class="st7" cx="61.9" cy="241.8" r="5"/>
<path class="st8" d="M507.6,266.6l1.6,12.2c0.6,4.7,4.9,8,9.6,7.3c0.5-0.1,0.9-0.2,1.4-0.3l0,0c4.5-1.4,7-6.2,5.6-10.7
	c-0.3-0.8-0.6-1.6-1.1-2.3l-7.3-10.6l-14.3-37.9l14.8-19.2l-17.2-7.4l-14.3,25.1L507.6,266.6z"/>
<path class="st9" d="M496.7,198.6l24.6,9.4l6-16.7c1.6-4.6-0.2-9.7-4.5-12.1l0,0c-4.3-2.4-9.7-1.4-12.8,2.5L496.7,198.6z"/>
<path class="st10" d="M479.5,432l32.3,0.8l19-123.9c18,32.8,32.3,76.4,44.8,125.1l28.1-6.4c-7.8-51.8-22.2-98.5-43.8-139.4l1-28.1
	l-44.8-6.9c-1.3,0.6-2.5,1.3-3.6,2.2C487,274.3,483.7,359.2,479.5,432z"/>
<path class="st10" d="M582.9,472.4l10.8-1.3l-1.4-12.9c4.4,8.8,10,12.6,16.7,11.9c3.2-0.4,5.9-2.7,6.9-5.8l0,0
	c0.1-0.3,0.2-0.6,0.2-0.9c0.5-2.6-1-5.1-3.4-5.9c-8.1-3.2-10.3-17.8-12-33.3l-13.3,2.5l0.5,11.3C580.3,448.9,580,459.9,582.9,472.4z
	"/>
<path class="st10" d="M486.4,472.4l10.8-1.3l-1.4-12.9c4.4,8.8,10,12.6,16.7,11.9c3.2-0.4,5.9-2.7,6.9-5.8l0,0
	c0.1-0.3,0.2-0.6,0.2-0.9c0.5-2.6-1-5.1-3.4-5.9c-8.1-3.2-10.3-17.8-12-33.3l-13.3,2.5l0.5,11.3
	C483.7,448.9,483.5,459.9,486.4,472.4z"/>
<circle class="st8" cx="545.8" cy="157.2" r="17.5"/>
<path class="st8" d="M511.5,190.7l23.1-3.9l11.8-19.7l-16.7-10.8C526.5,167.6,520,179.1,511.5,190.7z"/>
<path class="st2" d="M513.6,255l46.7,11.1c3.6-29.2,2.4-54.8-6.2-74.7c-2.7-6.2-8-10.7-14.5-12.4l0,0l-19.7-1l0,0
	c-9.1,4.4-14.1,14.2-12.5,24.1C514.9,221.8,520,240.6,513.6,255z"/>
<path class="st8" d="M598.8,246.7l10.9,5.6c4.2,2.2,9.3,0.5,11.5-3.7c0.2-0.4,0.4-0.9,0.5-1.3l0,0c1.4-4.5-1-9.3-5.5-10.7
	c-0.8-0.3-1.7-0.4-2.5-0.4l-12.9-0.1l-39.3-10l-7.3-23.1l-15.9,9.9l12.4,26.1L598.8,246.7z"/>
<path class="st11" d="M536.9,216.6l21.8-14.8l-10.2-14.5c-2.8-4-8.1-5.3-12.5-3.3l0,0c-4.4,2.1-6.7,7.2-5.3,11.9L536.9,216.6z"/>
<path class="st10" d="M541.8,157c6.7-1,12.4-2.7,19.1-3.6c1.7-0.2,3.5-0.6,4.3-2.1c0.7-1.4,0.1-3-0.6-4.4
	c-5.9-10.8-19.5-14.8-30.4-8.9c-3.6,2-6.6,4.9-8.7,8.5c-1.8,3.1-2.8,6.6-5,9.4c-1.5,1.7-3.2,3.2-5,4.5
	c-13.5,11.2-22.2,27.3-24.2,44.8c-0.5,3.2-0.4,6.4,0.2,9.6c0.6,3.2,2.4,6,5,8c3.9,2.7,9.3,2.5,13.6,0.6c8.4-3.6,13.6-12.4,15.1-21.4
	s-0.1-18.2-2.2-27.1c-0.7-3.2-1.5-6.7-0.6-9.8c1.3-4.4,7.4,2.6,11.4,0.2c1.6-1,1.6-11.9,3.5-11.7s3.8,2.1,3,3.9L541.8,157z"/>
<path class="st12" d="M524,165c1-0.7,1.3-2,0.7-3.1l-2.8-4.5c-0.7-1-2-1.3-3.1-0.7c-1,0.7-1.3,2-0.7,3.1l0,0l2.8,4.5
	C521.5,165.4,522.9,165.7,524,165L524,165z"/>
<circle class="st0" cx="27.8" cy="21.7" r="8.5"/>
<circle class="st0" cx="52.4" cy="21.7" r="8.5"/>
<circle class="st0" cx="77.1" cy="21.7" r="8.5"/>
</svg>
