<?xml version="1.0" encoding="utf-8"?>
<!-- Generator: Adobe Illustrator 26.0.1, SVG Export Plug-In . SVG Version: 6.00 Build 0)  -->
<svg version="1.1" id="beb8b204-3759-49ce-94f2-7f3d3b03c1ba"
	 xmlns="http://www.w3.org/2000/svg" xmlns:xlink="http://www.w3.org/1999/xlink" x="0px" y="0px" viewBox="0 0 956.6 472.5"
	 style="enable-background:new 0 0 956.6 472.5;" xml:space="preserve">
<style type="text/css">
	.st0{fill:#E6E6E6;}
	.st1{fill:#3F3D56;}
	.st2{fill:#059669;}
	.st3{fill:#FFFFFF;}
	.st4{fill:#C68F64;}
	.st5{fill:#A78BFA;}
	.st6{fill:#2F2E41;}
	.st7{fill:#057D69;}
	.st8{fill:none;stroke:#EFEFF0;stroke-width:4;stroke-miterlimit:10;}
	.st9{fill:none;stroke:#EDEDEE;stroke-width:4;stroke-miterlimit:10;}
	.st10{clip-path:url(#SVGID_00000071540037450497002510000003844615950840233093_);fill:#FFFFFF;}
	.st11{fill:#333333;}
	.st12{clip-path:url(#SVGID_00000090276730072245531900000013322259024679900296_);}
</style>
<path class="st0" d="M892.5,0H7.5C3.4,0,0,3.4,0,7.5v457c0,4.1,3.4,7.5,7.5,7.5h885c2.4,0,4.6-1.1,6-3.1c0.4-0.5,0.7-1.1,1-1.7
	c0.3-0.9,0.5-1.8,0.5-2.7V7.5C900,3.4,896.6,0,892.5,0z M897,464.5c0,2.5-2,4.5-4.5,4.5H7.5C5,469,3,467,3,464.5V7.5C3,5,5,3,7.5,3
	h885c2.5,0,4.5,2,4.5,4.5V464.5z"/>
<rect x="3" y="38.3" class="st0" width="897" height="2"/>
<path class="st0" d="M545.6,184.5h-238c-3.9,0-7-3.1-7-7v-79c0-3.9,3.1-7,7-7h238c3.9,0,7,3.1,7,7v79
	C552.6,181.3,549.4,184.5,545.6,184.5z M307.6,93.5c-2.8,0-5,2.2-5,5v79c0,2.8,2.2,5,5,5h238c2.8,0,5-2.2,5-5v-79c0-2.8-2.2-5-5-5
	H307.6z"/>
<path class="st0" d="M817.6,411.5h-238c-3.9,0-7-3.1-7-7v-79c0-3.9,3.1-7,7-7h238c3.9,0,7,3.1,7,7v79
	C824.6,408.3,821.4,411.5,817.6,411.5z"/>
<path class="st0" d="M408.6,297.5h-101c-3.9,0-7-3.1-7-7v-79c0-3.9,3.1-7,7-7h101c3.9,0,7,3.1,7,7v79
	C415.6,294.3,412.4,297.5,408.6,297.5z M307.6,206.5c-2.8,0-5,2.2-5,5v79c0,2.8,2.2,5,5,5h101c2.8,0,5-2.2,5-5v-79c0-2.8-2.2-5-5-5
	H307.6z"/>
<path class="st0" d="M545.6,297.5h-101c-3.9,0-7-3.1-7-7v-79c0-3.9,3.1-7,7-7h101c3.9,0,7,3.1,7,7v79
	C552.6,294.3,549.4,297.5,545.6,297.5z"/>
<path class="st0" d="M545.6,410.5h-101c-3.9,0-7-3.1-7-7v-79c0-3.9,3.1-7,7-7h101c3.9,0,7,3.1,7,7v79
	C552.6,407.3,549.4,410.5,545.6,410.5z M444.6,319.5c-2.8,0-5,2.2-5,5v79c0,2.8,2.2,5,5,5h101c2.8,0,5-2.2,5-5v-79c0-2.8-2.2-5-5-5
	H444.6z"/>
<path class="st1" d="M816.6,298.5h-238c-3.9,0-7-3.1-7-7v-193c0-3.9,3.1-7,7-7h238c3.9,0,7,3.1,7,7v193
	C823.6,295.3,820.4,298.5,816.6,298.5z M578.6,93.5c-2.8,0-5,2.2-5,5v193c0,2.8,2.2,5,5,5h238c2.8,0,5-2.2,5-5v-193c0-2.8-2.2-5-5-5
	H578.6z"/>
<path class="st2" d="M855.6,333.5h-238c-3.9,0-7-3.1-7-7v-193c0-3.9,3.1-7,7-7h238c3.9,0,7,3.1,7,7v193
	C862.6,330.3,859.4,333.5,855.6,333.5z"/>
<path class="st3" d="M684.9,163.5H655l5.8-9.4l0.4-0.7l7.5-12.2c0.5-0.7,1.5-0.9,2.1-0.3l0.1,0.1c0,0.1,0.1,0.1,0.1,0.2L684.9,163.5
	z"/>
<rect x="623.6" y="140.5" class="st1" width="22" height="22"/>
<path class="st2" d="M408.6,411.5h-101c-3.9,0-7-3.1-7-7v-79c0-3.9,3.1-7,7-7h101c3.9,0,7,3.1,7,7v79
	C415.6,408.3,412.4,411.5,408.6,411.5z"/>
<circle class="st3" cx="346.1" cy="333.5" r="7.5"/>
<rect x="314.8" y="326.8" class="st1" width="16" height="16"/>
<path id="f57cf1cd-83f7-4fd3-a8d1-d71a660a6415" class="st0" d="M100.2,220.9c-3.3,0.1-5.9,2.8-5.8,6s2.6,5.8,5.8,5.8h107.1
	c3.3,0,6-2.6,6-5.9c0-3.3-2.6-6-5.8-6c-0.1,0-0.1,0-0.2,0L100.2,220.9L100.2,220.9z"/>
<path id="aee25563-7463-4829-8b3c-d6945ce6dfe7" class="st0" d="M100.2,251.9c-3.3,0.1-5.9,2.8-5.8,6c0.1,3.2,2.6,5.8,5.8,5.8h107.1
	c3.3,0,6-2.6,6-5.9s-2.6-6-5.8-6c-0.1,0-0.1,0-0.2,0L100.2,251.9L100.2,251.9z"/>
<path id="aefa15f9-40e4-4075-8c80-8ab2e97e1ce3" class="st0" d="M100.2,282.9c-3.3,0.1-5.9,2.8-5.8,6s2.6,5.8,5.8,5.8h107.1
	c3.3,0,6-2.6,6-5.9s-2.6-6-5.8-6c-0.1,0-0.1,0-0.2,0L100.2,282.9L100.2,282.9z"/>
<path id="a405b459-42e8-4eb5-9988-b9086189387e" class="st0" d="M100.2,313.9c-3.3,0.1-5.9,2.8-5.8,6s2.6,5.8,5.8,5.8h107.1
	c3.3,0,6-2.6,6-5.9s-2.6-6-5.8-6c-0.1,0-0.1,0-0.2,0L100.2,313.9L100.2,313.9z"/>
<path id="b32f5175-a272-4d51-9048-0542c511c928" class="st0" d="M100.2,344.9c-3.3,0.1-5.9,2.8-5.8,6s2.6,5.8,5.8,5.8h107.1
	c3.3,0,6-2.6,6-5.9s-2.6-6-5.8-6c-0.1,0-0.1,0-0.2,0H100.2V344.9z"/>
<path id="b3f78383-4856-4bdc-97c4-b8cb03fde67d" class="st0" d="M100.2,375.9c-3.3,0.1-5.9,2.8-5.8,6s2.6,5.8,5.8,5.8h107.1
	c3.3,0,6-2.6,6-5.9s-2.6-6-5.8-6c-0.1,0-0.1,0-0.2,0H100.2V375.9z"/>
<path class="st0" d="M61.9,237.8c-6.1,0-11-4.9-11-11s4.9-11,11-11s11,4.9,11,11l0,0C72.9,232.9,68,237.8,61.9,237.8z M61.9,217.8
	c-5,0-9,4-9,9s4,9,9,9s9-4,9-9l0,0C70.9,221.9,66.9,217.8,61.9,217.8z"/>
<path class="st0" d="M61.9,268.8c-6.1,0-11-4.9-11-11c0-6.1,4.9-11,11-11s11,4.9,11,11l0,0C72.9,263.9,68,268.8,61.9,268.8z
	 M61.9,248.8c-5,0-9,4-9,9c0,5,4,9,9,9s9-4,9-9l0,0C70.9,252.9,66.9,248.8,61.9,248.8z"/>
<path class="st0" d="M61.9,299.8c-6.1,0-11-4.9-11-11s4.9-11,11-11s11,4.9,11,11S68,299.8,61.9,299.8z M61.9,279.8c-5,0-9,4-9,9
	s4,9,9,9s9-4,9-9l0,0C70.9,283.8,66.9,279.8,61.9,279.8z"/>
<path class="st0" d="M61.9,330.8c-6.1,0-11-4.9-11-11s4.9-11,11-11s11,4.9,11,11S68,330.8,61.9,330.8z M61.9,310.8c-5,0-9,4-9,9
	s4,9,9,9s9-4,9-9l0,0C70.9,314.8,66.9,310.8,61.9,310.8z"/>
<path class="st0" d="M61.9,361.8c-6.1,0-11-4.9-11-11s4.9-11,11-11s11,4.9,11,11S68,361.8,61.9,361.8z M61.9,341.8c-5,0-9,4-9,9
	s4,9,9,9s9-4,9-9l0,0C70.9,345.8,66.9,341.8,61.9,341.8z"/>
<path class="st0" d="M61.9,392.8c-6.1,0-11-4.9-11-11s4.9-11,11-11s11,4.9,11,11l0,0C72.9,387.9,68,392.8,61.9,392.8z M61.9,372.8
	c-5,0-9,4-9,9s4,9,9,9s9-4,9-9S66.9,372.8,61.9,372.8L61.9,372.8z"/>
<circle class="st2" cx="61.9" cy="226.8" r="5"/>
<circle class="st2" cx="61.9" cy="288.8" r="5"/>
<circle class="st2" cx="61.9" cy="319.8" r="5"/>
<path class="st4" d="M469.6,266.6l1.6,12.2c0.6,4.7,4.9,8,9.6,7.3c0.5-0.1,0.9-0.2,1.4-0.3l0,0c4.5-1.4,7-6.2,5.6-10.7
	c-0.3-0.8-0.6-1.6-1.1-2.3l-7.3-10.6l-14.3-37.9l14.8-19.2l-17.2-7.4l-14.3,25.1L469.6,266.6z"/>
<path class="st5" d="M470.7,198.6l24.6,9.4l6-16.7c1.6-4.6-0.2-9.7-4.5-12.1l0,0c-4.3-2.4-9.7-1.4-12.8,2.5L470.7,198.6z"/>
<path class="st6" d="M441.5,432l32.3,0.8l19-123.9c18,32.8,32.3,76.4,44.8,125.1l28.1-6.4c-7.8-51.8-22.2-98.5-43.8-139.4l1-28.1
	l-44.8-6.9c-1.3,0.6-2.5,1.3-3.6,2.2C449,274.3,445.7,359.2,441.5,432z"/>
<path class="st6" d="M544.9,467.4l10.8-1.3l-1.4-12.9c4.4,8.8,10,12.6,16.7,11.9c3.2-0.4,5.9-2.7,6.9-5.8l0,0
	c0.1-0.3,0.2-0.6,0.2-0.9c0.5-2.6-1-5.1-3.4-5.9c-8.1-3.2-10.3-17.8-12-33.3l-13.3,2.5l0.5,11.3C542.3,443.9,542,454.9,544.9,467.4z
	"/>
<path class="st6" d="M448.4,468.4l10.8-1.3l-1.4-12.9c4.4,8.8,10,12.6,16.7,11.9c3.2-0.4,5.9-2.7,6.9-5.8l0,0
	c0.1-0.3,0.2-0.6,0.2-0.9c0.5-2.6-1-5.1-3.4-5.9c-8.1-3.2-10.3-17.8-12-33.3l-13.3,2.5l0.5,11.3
	C445.7,444.9,445.5,455.9,448.4,468.4z"/>
<circle class="st4" cx="507.8" cy="157.2" r="17.5"/>
<path class="st4" d="M478.5,190.7l23.1-3.9l11.8-19.7l-16.7-10.8C493.5,167.6,487,179.1,478.5,190.7z"/>
<path class="st2" d="M475.6,255l46.7,11.1c3.6-29.2,2.4-54.8-6.2-74.7c-2.7-6.2-8-10.7-14.5-12.4l0,0l-19.7-1l0,0
	c-9.1,4.4-14.1,14.2-12.5,24.1C476.9,221.8,482,240.6,475.6,255z"/>
<path class="st7" d="M512.9,216.6l21.8-14.8l-10.2-14.5c-2.8-4-8.1-5.3-12.5-3.3l0,0c-4.4,2.1-6.7,7.2-5.3,11.9L512.9,216.6z"/>
<path class="st6" d="M503.8,157c6.7-1,12.4-2.7,19.1-3.6c1.7-0.2,3.5-0.6,4.3-2.1c0.7-1.4,0.1-3-0.6-4.4
	c-5.9-10.8-19.5-14.8-30.4-8.9c-3.6,2-6.6,4.9-8.7,8.5c-1.8,3.1-2.8,6.6-5,9.4c-1.5,1.7-3.2,3.2-5,4.5
	c-13.5,11.2-22.2,27.3-24.2,44.8c-0.5,3.2-0.4,6.4,0.2,9.6c0.6,3.2,2.4,6,5,8c3.9,2.7,9.3,2.5,13.6,0.6c8.4-3.6,13.6-12.4,15.1-21.4
	s-0.1-18.2-2.2-27.1c-0.7-3.2-1.5-6.7-0.6-9.8c1.3-4.4,7.4,2.6,11.4,0.2c1.6-1,1.6-11.9,3.5-11.7s3.8,2.1,3,3.9L503.8,157z"/>
<path class="st2" d="M489,165c1-0.7,1.3-2,0.7-3.1l-2.8-4.5c-0.7-1-2-1.3-3.1-0.7c-1,0.7-1.3,2-0.7,3.1l0,0l2.8,4.5
	C486.5,165.4,487.9,165.7,489,165L489,165z"/>
<circle class="st0" cx="27.8" cy="21.7" r="8.5"/>
<circle class="st0" cx="52.4" cy="21.7" r="8.5"/>
<circle class="st0" cx="77.1" cy="21.7" r="8.5"/>
<g>
	<path class="st8" d="M853.2,224.2c-19.4,4.8-19.2-43.5-38.6-44.9c-19.4-0.6-19.6,50-39.1,48.2c-20.1-2.3-18.4-46.7-38.7-43.9
		c-19.4,2.7-19.6,38.3-39.1,36.1c-19.4-1.8-19.2-31.2-38.7-31.8c-19.4-1.4-19.6,30.4-39.1,35.1"/>
</g>
<g>
	<path class="st9" d="M620,263.8c11.7-2.5,11.7,33.6,23.3,34.9c11.7,1.1,11.7-38.6,23.3-38.8c11.7,0,11.7,39.9,23.3,39.3
		c11.7-0.8,11.7-38.5,23.3-37.3c11.7,1.2,11.7,35.3,23.3,33.9c11.7-1.3,11.7-31.3,23.3-30.1c11.7,1.1,11.7,27.4,23.3,26.7
		c11.7-0.6,11.7-24.7,23.3-24.7c11.7-0.2,11.7,24.2,23.3,25.2c11.6,1.4,11.7-26.6,23.3-29.1"/>
</g>
<polyline class="st1" points="858.2,243.3 858.2,243.7 626.2,243.7 626.2,243.3 "/>
<g id="Brain_icon_x2C__Brain_Logo_silhouette">
	<g>
		<g>
			<g>
				<g>
					<defs>
						<rect id="SVGID_1_" x="95" y="70" width="122.1" height="125.2"/>
					</defs>
					<clipPath id="SVGID_00000067927109003506436440000014766921375338710160_">
						<use xlink:href="#SVGID_1_"  style="overflow:visible;"/>
					</clipPath>
					<path style="clip-path:url(#SVGID_00000067927109003506436440000014766921375338710160_);fill:#FFFFFF;" d="M95,167.7V97.3
						C95,82.2,107.3,70,122.3,70h67.2c15.2,0,27.4,12.3,27.4,27.4v70.3c0,15.2-12.3,27.4-27.4,27.4h-67.2
						C107.2,195,95,182.8,95,167.7"/>
				</g>
			</g>
		</g>
		<path class="st11" d="M149.8,90.9c-0.1,0-0.6,0.1-1.1,0.2c-0.5,0.1-1.2,0.5-1.7,1c-0.8,0.7-1.2,0.8-2.6,0.8c-2,0-3.7,0.8-4.9,2.2
			c-0.5,0.6-1,0.8-1.7,0.8c-1.2,0-2.9,1.6-4.1,3.9c-0.5,1.1-1.6,2.5-2.2,3.2c-1.6,1.8-2.4,4.1-2.8,7.4c-0.2,1.9-0.6,3.1-1.1,4.3
			c-1.2,2.5-1.4,3.9-1.3,10.2c0.1,5,0.2,5.9,0.7,6.9c0.5,1,0.6,2,0.7,3.8c0.1,2.4,0.2,2.6,1.1,3.9c0.5,0.7,1,1.7,1,2
			c0,1.7,1.4,4.1,2.6,4.4c0.2,0.1,0.7,0.7,1,1.4c1,2.6,2.6,3.9,5,3.9c0.7,0,1.3,0.2,1.6,0.5c0.6,0.7,1.9,1.3,2.8,1.3
			c0.6,0,0.8,0.2,1.4,1.6c0.4,0.8,1.1,1.9,1.6,2.4c1.2,1,3.5,1.6,4.9,1.1c1.3-0.4,3.5-2.3,4.2-3.8c0.7-1.4,1-6.1,0.2-8.4
			c-0.5-1.6-0.5-1.8,0-4.1c0.4-2.2,0.5-2.9,0.1-5.5c-0.2-2.6-0.2-3.2,0.1-4.4c0.6-1.9,0.5-6.5-0.4-8.4l-0.6-1.4l0.6-1.2
			c0.8-1.6,1.1-4.8,0.5-6.2c-0.4-0.8-0.4-1.2,0-1.9c0.5-1.2,0.5-4.4,0-6.3c-0.4-1.4-0.4-1.7,0-3.3c0.5-2.2,0.6-6.8,0.1-8.6
			c-0.4-1.6-1.6-3.1-2.6-3.6C151.6,91,150.2,90.8,149.8,90.9L149.8,90.9z M152.6,94.2l1,0.8l0.1,3.5c0.1,2.4,0,3.8-0.4,4.7
			c-0.4,1.2-0.4,1.2-2.2,1.3c-2,0.1-2.8,0.7-3.1,2.5c-0.4,2.2,1.4,4.3,2.6,3c0.5-0.6,0.2-1.1-0.5-1.1c-0.5,0-0.6-0.1-0.5-1.1
			s0.2-1.1,0.8-1.3c1.1-0.4,2.3,0.1,2.8,1c0.5,0.8,0.5,3.8,0.1,4.8c-0.2,0.6-0.4,0.7-0.8,0.5c-0.2-0.1-1.6-0.4-2.9-0.4
			c-1.8-0.1-2.5-0.2-3.2-0.8c-0.8-0.6-1-0.7-1-2.5c0-3.1,1.4-5.1,3.9-5.6c1.1-0.2,1.4-0.6,1-1.2c-0.7-1-3.3-0.2-4.7,1.2l-1,1
			l-1.2-0.6c-1-0.5-1.3-0.6-1.7-0.4c-0.8,0.6-0.6,1.4,0.4,1.6c1.3,0.1,1.7,0.7,1.7,3.1c0,3.5-0.5,4.4-3,5.5l-1.2,0.6l-0.8-0.7
			c-0.5-0.4-1.3-0.8-1.8-1.1c-1-0.4-1-0.4-0.7-1.4c0.2-1.3,1.1-2.5,2.2-3c0.7-0.4,1-0.4,2,0.2c1.3,0.6,1.9,0.6,1.9-0.2
			c0-0.6-2.2-1.8-3.2-1.8c-0.7,0-0.8-0.1-0.8-1.3c0-2.9,1.6-4.8,3.8-5.1c1-0.1,1.2-0.2,1.2-0.8c0.1-0.8-0.8-1.1-2.3-0.7
			c-1.8,0.5-1.9,0.2-0.5-1.3c1.1-1.3,2.3-1.9,3.3-1.9c1.2,0,3.5,1.2,4.2,2.3s1.7,1,1.4-0.1c-0.1-0.8,0.6-1,1.3-0.2
			c0.5,0.6,1.3,0.4,1.3-0.4c0-0.2-0.4-0.8-0.7-1.2c-0.6-0.6-1-0.7-2-0.6c-1.6,0.2-2.3-0.4-1.2-1.1C149.6,93,151.5,93.2,152.6,94.2
			L152.6,94.2z M138.5,99.1c0.2,0.6,0.2,0.8-0.1,1.3c-0.8,1-1.3,2.8-1.4,4.8c-0.1,1.6-0.2,2.3-0.8,3.1c-0.4,0.6-0.8,1.8-1.1,2.8
			c-0.2,1.2-0.6,1.8-1.6,2.8l-1.2,1.2l-0.7-0.6c-0.6-0.6-0.7-1-0.7-2.4c0-2.2,0.7-4.8,1.4-5.7l0.6-0.7l-0.2,1.3
			c-0.4,2.3-0.2,2.8,0.4,2.8c0.5,0,0.7-0.4,1.1-1.9c0.2-1.1,0.5-2.5,0.5-3.2c0-1.6,0.7-3.3,2-4.8C137.8,98.2,138,98.1,138.5,99.1
			L138.5,99.1z M146.7,113.7c0.4,0.2,1.7,0.5,2.9,0.6c3.1,0.4,3.9,1.1,3.9,3.3s-1.3,4.3-3.5,5.1c-1.6,0.7-2.4,0.6-4.8-0.7
			c-1.6-0.8-1.9-0.8-2.5-0.6c-1.1,0.5-0.8,1.3,0.5,1.6c0.6,0.1,1.6,0.5,2.2,1s1.3,0.8,1.6,0.8c0.4,0,0.5,0.2,0.5,1.6
			c0,2.2-0.5,3.5-1.1,3.2c-1.3-0.7-2.5-0.6-3.7,0.1c-1.7,1.2-2.9,3.6-1.7,3.6c0.2,0,0.8-0.5,1.4-1.2c0.8-0.8,1.3-1.2,1.9-1.2
			c1.1,0,2.3,1,2.5,2c0.2,1.1-0.2,3.1-1.2,4.5c-1.2,1.8-1.2,2.4-0.1,3.6c0.5,0.6,0.8,1.2,0.7,1.6c-0.2,0.7-1.6,1.1-2.8,0.7
			c-1.2-0.4-2-1.3-2.5-3.2c-0.2-1-0.2-1.1,0.7-2.2c0.8-1.1,1-1.2,0.6-1.6c-0.4-0.4-0.5-0.4-1.3,0.5c-1.8,1.7-3.5,1-3.5-1.6
			c0-2.4,0.5-3.5,1.7-3.7c1.1-0.2,2.9-1.9,2.9-2.8c0-0.7-1-0.5-1.7,0.2c-0.8,0.8-1.4,1-3.3,0.1c-1.9-0.8-2.6-0.5-4.2,1.6
			c-1.4,1.9-1.9,2.2-2.8,1.7c-0.8-0.5-1.9-2.4-1.9-3.3c0-0.8,0.2-1,1-0.4c0.4,0.2,1.1,0.5,1.6,0.5c2.4,0,4.5-3,4.7-6.6
			c0.1-1.9-0.7-1.7-1.3,0.2c-0.7,2.4-1.3,3.5-2.3,4.1c-1.2,0.7-1.6,0.6-2.6-0.4l-1-0.8v-3.6c0-3.2,0.1-3.8,0.7-5.1
			c0.4-0.8,0.7-1.6,0.8-1.6c0.1,0,0.6,0.4,1,0.7c0.8,0.7,1,0.8,0.2,4.7c-0.1,1-0.1,1.1,0.4,1.1c0.7,0,1.4-1.6,1.7-3.8
			c0.5-3.7,2.5-4.8,5-2.8c1.2,1,1.6,2.4,1.4,5c-0.1,1.9-0.2,2.3-1.1,3.2c-1,1.1-1.2,1.8-0.6,2.2c0.8,0.5,2.9-2.6,3.2-5
			c0.2-1.4,1.2-2.5,2.2-2.5c0.4,0,1.6,0.2,2.5,0.6c2.9,1,4.5,0.7,4.3-0.5c-0.1-0.4-0.4-0.5-1-0.5c-0.5,0-1.9-0.4-3.3-0.8
			c-2.6-1-2.8-1-4.7-0.1c-0.4,0.1-0.5,0.1-0.5-0.2c0-0.2,0.6-0.7,1.3-1.1c0.7-0.4,1.7-1.2,2-1.8c0.6-1,0.8-1.1,1.2-0.7
			C145.9,113.1,146.4,113.5,146.7,113.7L146.7,113.7z M153,125c0.6,1.2,0.8,4.1,0.6,6c-0.1,1.2-0.5,1.7-1.3,2.5
			c-1.3,1.3-1.4,2.2,0,2l0.8-0.1l0.2,2.2c0.2,2.3-0.1,4.7-0.8,6.1c-0.5,1.1-2.3,2.3-3.5,2.5c-1,0.2-3.3,2.5-3.1,3.1
			c0.2,0.7,1.3,0.6,1.9-0.2c0.7-1,1.1-0.7,1.4,0.5c0.1,0.6,0.4,1,0.8,1c0.5,0,0.6-0.2,0.5-1.3c0-1.3,0-1.4,1.2-2.2l1.2-0.8l0.2,1.1
			c0.5,1.6,0.4,4.5-0.1,5.9c-0.7,1.8-3.5,3.1-5.1,2.4c-1.1-0.5-1.9-1.6-3-3.9c-1-2.3-1.8-2.9-2.2-1.3c-0.1,0.6-0.2,0.7-0.7,0.5
			c-1-0.4-1.1-0.8-0.6-1.6c0.6-0.8,0.6-2.6,0-2.6c-0.2,0-0.7,0.4-1.1,0.8c-2,2.9-4.8,1.8-5.6-2.2c-0.1-0.6-0.5-1-1.1-1.2
			c-1-0.5-1.9-1.4-1.9-2.2c0-0.2,0.4-0.5,0.7-0.6c1.3-0.4,1.1-1.9-0.4-1.9c-1,0-2-1.3-2.4-2.8c-0.5-1.7-0.1-2.3,1-2.3
			c1,0,2.5-1.4,3.8-3.3c0.5-0.7,0.7-0.8,1.3-0.7l0.7,0.2l-0.4,1.6c-1,3.9,0.1,7.1,2.5,7.1c0.7,0,0.8,0.1,1,1.2
			c0.5,2.9,2.3,4.7,4.8,4.7c1.4,0,2.3-0.4,3.1-1.4c1-1.2,0.8-2.4-0.2-3.6c-1-1-1-1-0.4-1.7c1.6-2.5,2.2-5.1,1.3-7.1
			c-0.4-0.7-0.2-1.1,0.2-2c0.4-0.6,0.7-1.9,0.8-2.9c0.1-1.6,0.2-1.6,1.3-1.9c0.6-0.2,1.2-0.5,1.3-0.6C152.1,123.8,152.5,124,153,125
			L153,125z M160.4,91c-1.9,0.5-3.3,1.9-3.8,3.8c-0.5,1.7-0.4,7.4,0.1,9.2c0.4,1.4,0.4,1.7,0,2.9c-0.4,1.1-0.5,1.8-0.4,4.1
			c0.1,1.6,0.1,3.1,0.1,3.6c-0.2,3.6-0.1,6,0.5,7.1c0.5,1.1,0.5,1.2,0.1,2.4c-1.1,2.9-1.1,7.5-0.1,9.4c0.2,0.4,0.2,1.2,0,2.4
			c-0.4,2.6-0.4,5.1,0.1,7.2c0.4,1.6,0.4,1.9,0,3.3c-0.6,2.2-0.6,5.6-0.1,7.5c0.6,1.9,2.9,4.4,4.5,4.9c2.5,0.7,5-0.5,6.3-3.1
			c0.7-1.6,1-1.8,1.9-1.9c1.2-0.2,2-0.6,2.5-1.3c0.2-0.2,0.8-0.5,1.6-0.5c2.3,0,3.9-1.4,4.9-3.9c0.2-0.7,0.7-1.3,1.3-1.7
			c1.2-0.7,2-2,2.3-3.7c0.1-0.7,0.6-2,1.1-2.9c0.8-1.3,1-1.8,1-3.9c0-1.8,0.2-2.8,0.7-3.7c0.6-1.2,0.6-1.8,0.7-6.6
			c0.1-6.1-0.1-7.9-1.4-10.6c-0.8-1.6-1-2.4-1-3.7c0-3-1.3-6.5-3-8.1c-0.5-0.5-1.3-1.7-1.8-2.6c-1.2-2.4-3-4.3-4.3-4.3
			c-0.7,0-1.1-0.2-1.4-0.7c-0.2-0.4-1.1-1.1-1.8-1.6c-1.1-0.6-1.7-0.8-3.1-0.8c-1.4,0-1.9-0.1-2.6-0.8C163.7,91,161.9,90.6,160.4,91
			L160.4,91z M163.2,93.8c0.7,0.4,0.8,0.6,0.5,0.8c-0.2,0.2-0.7,0.4-1.6,0.2c-1.4-0.2-2.8,0.7-2.8,1.8c0,0.8,0.5,1,1.3,0.2
			c0.8-0.6,1.3-0.5,1.3,0.2c0,1.2,0.6,1.2,1.6,0.1c2.6-3.1,6.5-2.9,8.1,0.5l0.5,0.8l-1-0.2c-1.3-0.4-2.5-0.2-2.9,0.1
			c-0.5,0.5,0.2,1.2,1.3,1.2c2,0,3.7,1.9,3.9,4.8l0.1,1.8h-1.1c-1.3,0-3.2,1.1-3.2,1.8c0,0.8,0.6,1,1.8,0.2c1.1-0.6,1.1-0.6,2-0.1
			c1.2,0.6,1.9,1.7,1.9,3.1c0,0.8-0.1,1.1-0.6,1.2c-0.4,0.1-1.2,0.5-1.8,1l-1.3,0.8l-1.3-0.7c-1.9-1.1-2.4-1.9-2.6-4.7
			c-0.1-2.9,0.2-3.8,1.7-3.8c0.7,0,0.8-0.1,0.8-0.7c0-1.2-1.4-1.3-2.6-0.2c-0.5,0.4-0.6,0.4-1.6-0.6c-1.3-1.4-3.6-2-4.7-1.4
			c-0.6,0.5-0.1,1.2,1,1.3c2.5,0.5,3.7,2,3.8,5.1c0.1,2.2-0.1,2.6-1.3,3.2c-1,0.6-6.1,1-6.3,0.5c-0.1-0.2-0.2-1.3-0.2-2.4
			c0-2.8,0.5-3.5,2.3-3.5c1.3,0,1.8,0.4,1.8,1.6c0,0.6-0.1,0.8-0.6,0.8c-0.8,0.1-1,1.1-0.2,1.3c0.4,0.1,0.8,0,1.4-0.4
			c0.6-0.5,0.7-0.8,0.8-2.3c0.1-1.4,0-1.8-0.6-2.4c-0.6-0.6-1-0.7-2.4-0.7c-1.6,0-1.7,0-2-1.1c-0.4-0.7-0.5-2-0.5-4.3
			c0-3.5,0.4-4.8,1.7-5.4C160.7,93.3,162.3,93.3,163.2,93.8L163.2,93.8z M175.1,99.3c1.3,1.6,1.7,2.6,2.3,6c0.6,3.5,0.8,4.3,1.6,4.3
			c0.4,0,0.5-0.2,0.2-2c-0.1-1.2-0.1-2,0-2c0.1,0,0.4,0.5,0.7,1.1c0.7,1.4,1.2,3.8,1.2,5.6c0,1.2-0.1,1.6-0.7,2l-0.7,0.6l-1.3-1.3
			c-1-1-1.3-1.6-1.3-2.2c0-1-1.3-3.8-1.8-3.8c-0.1,0-0.2-1-0.2-2.2c0-1.8-0.1-2.5-0.8-3.8C172.8,98.9,173.5,97.3,175.1,99.3
			L175.1,99.3z M167.3,113.5c0.4,0.5,1.2,1.3,2,1.8c0.8,0.5,1.6,1.1,1.6,1.2c0,0.5-0.2,0.5-1.4-0.1c-1-0.5-1.1-0.5-3.7,0.5
			c-1.6,0.5-3.1,0.8-3.5,0.8c-0.5-0.1-0.7,0.1-0.8,0.5c-0.2,1.2,1.4,1.4,4.3,0.5c1-0.4,2.2-0.6,2.6-0.6c1.1,0,1.8,1.1,2.3,3.1
			c0.5,2.6,2.4,4.9,3.2,4.1c0.1-0.1-0.1-0.7-0.6-1.4c-2.2-3-1.7-7.3,1-9c1.4-1,2.4-0.7,3.3,0.5c0.6,0.8,0.8,1.4,1,2.3
			c0,1.7,0.8,4.1,1.4,4.2s1-0.8,0.5-1.8c-0.1-0.5-0.2-1.3-0.2-2c0-1.1,0.1-1.3,0.8-1.9c0.5-0.4,1-0.6,1-0.6s0.5,0.7,0.8,1.7
			c0.8,2.3,1,7.8,0.1,9.1c-1.1,1.7-2.9,1.8-4.1,0.1c-0.4-0.5-0.8-1.7-1.2-2.8c-0.8-2.5-1.4-2.8-1.4-0.5c0,1.1,0.2,2,0.8,3.2
			c1.3,2.6,3.2,3.6,5.3,2.5c0.5-0.2,1-0.4,1.1-0.2c0.4,0.4-0.6,2.9-1.3,3.6c-1.1,1.1-1.7,0.8-3.1-1.2c-0.6-0.8-1.6-1.8-1.9-1.9
			c-0.8-0.4-1.9-0.1-2.9,0.5c-0.8,0.6-2.2,0.5-2.9-0.4c-0.8-0.8-1.6-1-1.6-0.2c0,0.7,1.7,2.4,2.5,2.6c0.4,0.1,1,0.2,1.1,0.2
			c0.4,0.1,1,2.4,1,3.7c0,2.3-1.8,3-3.6,1.4c-0.8-0.7-1.1-0.8-1.3-0.5c-0.2,0.4-0.1,0.6,0.6,1.6c1,1.1,1,1.1,0.6,2.5
			c-0.5,1.8-1.7,3-3.2,3c-0.8,0-1.3-0.1-1.8-0.5l-0.6-0.6l0.8-1c1.3-1.4,1.3-1.8,0.2-3.8c-0.6-1.1-1.1-2.5-1.2-3.3
			c-0.1-1.3-0.1-1.6,0.6-2.4c1.1-1.4,2.3-1.3,3.7,0.2c1.3,1.3,1.9,1.6,1.9,0.5c0-1-2.2-3.3-3.1-3.6c-0.5-0.1-1.3,0-2,0.2l-1.2,0.5
			l-0.2-1c-0.4-1.3-0.6-3.3-0.4-3.6c0.4-0.5,3.8-2.2,4.5-2.2c0.6,0,0.7-0.1,0.7-0.6c-0.2-1.2-1-1.3-2.9-0.4c-1.8,1-2.5,1.1-4.2,1.1
			c-1.1-0.1-3.1-1.8-3.7-3.2c-0.5-1.2-0.5-3.5-0.1-4.3c0.5-0.8,2-1.4,3.7-1.4c1.6,0,3.1-0.5,3.7-1.3
			C166.6,112.3,166.7,112.4,167.3,113.5L167.3,113.5z M161.1,124.8c0.4,0.2,0.8,0.4,1.1,0.4c0.2,0,0.4,0.7,0.5,1.8
			c0.1,1,0.4,2.3,0.7,2.8c0.6,1,0.6,1.1,0.1,2.2c-0.7,1.8-0.1,4.7,1.7,7.2c0.2,0.5,0.2,0.6-0.4,1.1c-2.4,1.9-0.7,5.4,2.6,5.4
			c2.3,0,4.3-2,4.8-4.8c0.1-0.8,0.4-1.1,0.7-1.1c1.1,0,2-0.7,2.6-1.8c0.6-1.3,0.7-2.8,0.1-5c-0.4-1.2-0.4-1.7-0.1-1.8
			c0.8-0.5,1.2-0.2,2.5,1.7c1.1,1.6,2.2,2.3,3.3,2.3c0.7,0,0.7,0,0.6,1.7c-0.1,1.9-1.2,3.3-2.6,3.5c-0.7,0.1-1,0.2-1,0.7
			c-0.1,0.5,0.1,0.7,0.8,1c0.7,0.2,0.8,0.5,0.7,1c-0.2,1-1,1.6-1.9,1.8c-0.6,0.1-0.8,0.4-1,1c-0.6,2.9-1.6,4.1-3.2,4.1
			c-0.8,0-1.2-0.2-2.2-1.3c-0.7-0.8-1.2-1.2-1.6-1.1c-0.6,0.2-0.6,0.7,0.1,2.2c0.4,0.6,0.6,1.2,0.6,1.2s-0.4,0.2-0.8,0.5
			c-0.8,0.5-0.8,0.5-0.8-0.1c0-0.6-0.5-1.2-1-1.2c-0.1,0-0.7,1.1-1.3,2.4c-1.4,3.1-2.3,3.9-3.9,3.8c-1.4,0-3.7-1.2-4.1-2.2
			c-0.5-1.4-0.7-3.3-0.4-5.1c0.1-1.1,0.4-1.9,0.5-2c0.1-0.1,0.7,0.1,1.3,0.6c1.2,0.7,1.2,0.8,1.2,2.2c0,1,0.1,1.3,0.5,1.4
			c0.4,0.1,0.6-0.2,0.8-1c0.5-1.4,0.8-1.6,1.4-0.6c0.7,1,1.7,1.1,1.7,0.1c0-1-1.6-2.4-3.5-3.1c-3.2-1.2-4.4-4.2-3.8-9.2
			c0.2-1.3,0.2-1.4,1.1-1.3c1.3,0.1,1.3-0.8,0.1-1.9c-0.6-0.5-1.2-1.3-1.3-1.8c-0.5-1.4-0.5-4.1-0.1-5.6
			C159.1,124,159.3,123.9,161.1,124.8L161.1,124.8z"/>
		<g>
			<g>
				<g>
					<defs>
						<rect id="SVGID_00000004521567498845261950000015558552029880689798_" x="128.3" y="166.8" width="55.2" height="7.5"/>
					</defs>
					<clipPath id="SVGID_00000155869068680678947840000009497383347386704044_">
						<use xlink:href="#SVGID_00000004521567498845261950000015558552029880689798_"  style="overflow:visible;"/>
					</clipPath>
					<g style="clip-path:url(#SVGID_00000155869068680678947840000009497383347386704044_);">
						
							<image style="overflow:visible;enable-background:new    ;" width="1513" height="204" xlink:href="AD99FCBB03585CC4.jpg"  transform="matrix(3.651815e-02 0 0 3.745368e-02 128.3574 166.711)">
						</image>
					</g>
				</g>
			</g>
		</g>
	</g>
</g>
<g>
	<path class="st8" d="M308.6,360.4c9.9-4.2,9.9,33.1,19.8,33.6c9.9-0.3,9.9-37.6,19.8-35.4c9.9,2.4,9.9,32.4,19.8,30
		c9.9-2.1,9.9-24.8,19.8-24.6c9.9-0.5,9.9,22.1,19.8,26.4"/>
</g>
<path class="st4" d="M576.8,246.7l10.9,5.6c4.2,2.2,9.3,0.5,11.5-3.7c0.2-0.4,0.4-0.9,0.5-1.3l0,0c1.4-4.5-1-9.3-5.5-10.7
	c-0.8-0.3-1.7-0.4-2.5-0.4l-12.9-0.1l-39.3-10l-7.3-23.1l-15.9,9.9l12.4,26.1L576.8,246.7z"/>
</svg>
