<?xml version="1.0" encoding="utf-8"?>
<!-- Generator: Adobe Illustrator 26.0.1, SVG Export Plug-In . SVG Version: 6.00 Build 0)  -->
<svg version="1.1" id="beb8b204-3759-49ce-94f2-7f3d3b03c1ba"
	 xmlns="http://www.w3.org/2000/svg" xmlns:xlink="http://www.w3.org/1999/xlink" x="0px" y="0px" viewBox="0 0 956.6 472.5"
	 style="enable-background:new 0 0 956.6 472.5;" xml:space="preserve">
<style type="text/css">
	.st0{fill:#E6E6E6;}
	.st1{fill:#3F3D56;}
	.st2{fill:#069547;}
	.st3{fill:#FFFFFF;}
	.st4{fill:#0E8B44;}
	.st5{fill:#059948;}
	.st6{fill:#129F49;}
	.st7{fill:#C68F64;}
	.st8{fill:#A78BFA;}
	.st9{fill:#2F2E41;}
	.st10{fill:#0C8B44;}
	.st11{fill:#09753B;}
	.st12{fill:none;}
	.st13{fill:none;stroke:#EFEFF0;stroke-width:8;stroke-miterlimit:10;}
	.st14{fill:none;stroke:#EDEDEE;stroke-width:8;stroke-miterlimit:10;}
	.st15{clip-path:url(#SVGID_00000086675634586329566130000010537761847274462856_);fill:#FFFFFF;}
	.st16{fill:#333333;}
	.st17{fill:none;stroke:#EFEFF0;stroke-width:4;stroke-miterlimit:10;}
</style>
<rect x="357.4" y="294.7" transform="matrix(0.6262 -0.7797 0.7797 0.6262 -149.5589 415.4059)" class="st0" width="2" height="138"/>
<rect x="289" y="363.7" transform="matrix(0.7761 -0.6306 0.6306 0.7761 -149.7483 307.6138)" class="st0" width="138.7" height="2"/>
<rect x="696.2" y="37.1" transform="matrix(0.6338 -0.7735 0.7735 0.6338 104.3262 610.8013)" class="st0" width="2" height="316.2"/>
<rect x="538.7" y="194.8" transform="matrix(0.7717 -0.6359 0.6359 0.7717 34.6309 487.988)" class="st0" width="316.9" height="2"/>
<path class="st0" d="M892.5,0H7.5C3.4,0,0,3.4,0,7.5v457c0,4.1,3.4,7.5,7.5,7.5h885c2.4,0,4.6-1.1,6-3.1c0.4-0.5,0.7-1.1,1-1.7
	c0.3-0.9,0.5-1.8,0.5-2.7V7.5C900,3.4,896.6,0,892.5,0z M897,464.5c0,2.5-2,4.5-4.5,4.5H7.5C5,469,3,467,3,464.5V7.5C3,5,5,3,7.5,3
	h885c2.5,0,4.5,2,4.5,4.5V464.5z"/>
<rect x="3" y="38.3" class="st0" width="897" height="2"/>
<path class="st0" d="M929.9,411.5c-0.5,20.3-3.9,40.4-10.1,59.7c-0.1,0.4-0.3,0.9-0.4,1.3h-37.6c0-0.4,0.1-0.8,0.1-1.3
	c2.5-28.8,17-204.4-0.3-234.5C883.1,239.1,932.9,319.8,929.9,411.5z"/>
<path class="st0" d="M927.1,471.1c-0.3,0.4-0.6,0.9-1,1.3h-28.2c0.2-0.4,0.5-0.8,0.7-1.3c4.7-8.4,18.5-33.6,31.3-59.7
	c13.8-28,26.4-57.1,25.3-67.7C955.6,346.1,965.1,418.6,927.1,471.1z"/>
<path class="st0" d="M545.6,184.5h-238c-3.9,0-7-3.1-7-7v-79c0-3.9,3.1-7,7-7h238c3.9,0,7,3.1,7,7v79
	C552.6,181.3,549.4,184.5,545.6,184.5z M307.6,93.5c-2.8,0-5,2.2-5,5v79c0,2.8,2.2,5,5,5h238c2.8,0,5-2.2,5-5v-79c0-2.8-2.2-5-5-5
	H307.6z"/>
<path class="st0" d="M817.6,411.5h-238c-3.9,0-7-3.1-7-7v-79c0-3.9,3.1-7,7-7h238c3.9,0,7,3.1,7,7v79
	C824.6,408.3,821.4,411.5,817.6,411.5z"/>
<path class="st0" d="M408.6,297.5h-101c-3.9,0-7-3.1-7-7v-79c0-3.9,3.1-7,7-7h101c3.9,0,7,3.1,7,7v79
	C415.6,294.3,412.4,297.5,408.6,297.5z M307.6,206.5c-2.8,0-5,2.2-5,5v79c0,2.8,2.2,5,5,5h101c2.8,0,5-2.2,5-5v-79c0-2.8-2.2-5-5-5
	H307.6z"/>
<path class="st0" d="M545.6,297.5h-101c-3.9,0-7-3.1-7-7v-79c0-3.9,3.1-7,7-7h101c3.9,0,7,3.1,7,7v79
	C552.6,294.3,549.4,297.5,545.6,297.5z"/>
<path class="st1" d="M408.6,410.5h-101c-3.9,0-7-3.1-7-7v-79c0-3.9,3.1-7,7-7h101c3.9,0,7,3.1,7,7v79
	C415.6,407.3,412.4,410.5,408.6,410.5z M307.6,319.5c-2.8,0-5,2.2-5,5v79c0,2.8,2.2,5,5,5h101c2.8,0,5-2.2,5-5v-79c0-2.8-2.2-5-5-5
	H307.6z"/>
<path class="st0" d="M545.6,410.5h-101c-3.9,0-7-3.1-7-7v-79c0-3.9,3.1-7,7-7h101c3.9,0,7,3.1,7,7v79
	C552.6,407.3,549.4,410.5,545.6,410.5z M444.6,319.5c-2.8,0-5,2.2-5,5v79c0,2.8,2.2,5,5,5h101c2.8,0,5-2.2,5-5v-79c0-2.8-2.2-5-5-5
	H444.6z"/>
<path class="st1" d="M816.6,298.5h-238c-3.9,0-7-3.1-7-7v-193c0-3.9,3.1-7,7-7h238c3.9,0,7,3.1,7,7v193
	C823.6,295.3,820.4,298.5,816.6,298.5z M578.6,93.5c-2.8,0-5,2.2-5,5v193c0,2.8,2.2,5,5,5h238c2.8,0,5-2.2,5-5v-193c0-2.8-2.2-5-5-5
	H578.6z"/>
<path class="st2" d="M855.6,333.5h-238c-3.9,0-7-3.1-7-7v-193c0-3.9,3.1-7,7-7h238c3.9,0,7,3.1,7,7v193
	C862.6,330.3,859.4,333.5,855.6,333.5z"/>
<path class="st3" d="M684.9,163.5h-29.9l5.8-9.4l0.4-0.7l7.5-12.2c0.5-0.7,1.5-0.9,2.1-0.3c0,0,0.1,0.1,0.1,0.1
	c0,0.1,0.1,0.1,0.1,0.2L684.9,163.5z"/>
<rect x="623.6" y="140.5" class="st1" width="22" height="22"/>
<path class="st4" d="M436.6,432.5h-101c-3.9,0-7-3.1-7-7v-79c0-3.9,3.1-7,7-7h101c3.9,0,7,3.1,7,7v79
	C443.6,429.3,440.4,432.5,436.6,432.5z"/>
<circle class="st3" cx="365.9" cy="355.5" r="7.5"/>
<rect x="338.6" y="347.5" class="st1" width="16" height="16"/>
<path id="f57cf1cd-83f7-4fd3-a8d1-d71a660a6415" class="st0" d="M100.2,182.9c-3.3,0.1-5.9,2.8-5.8,6s2.6,5.8,5.8,5.8h107.1
	c3.3,0,6-2.6,6-5.9c0-3.3-2.6-6-5.8-6c-0.1,0-0.1,0-0.2,0L100.2,182.9L100.2,182.9z"/>
<path id="aee25563-7463-4829-8b3c-d6945ce6dfe7" class="st0" d="M100.2,213.9c-3.3,0.1-5.9,2.8-5.8,6s2.6,5.8,5.8,5.8h107.1
	c3.3,0,6-2.6,6-5.9c0-3.3-2.6-6-5.8-6c-0.1,0-0.1,0-0.2,0L100.2,213.9L100.2,213.9z"/>
<path id="aefa15f9-40e4-4075-8c80-8ab2e97e1ce3" class="st0" d="M100.2,244.9c-3.3,0.1-5.9,2.8-5.8,6s2.6,5.8,5.8,5.8h107.1
	c3.3,0,6-2.6,6-5.9c0-3.3-2.6-6-5.8-6c-0.1,0-0.1,0-0.2,0L100.2,244.9L100.2,244.9z"/>
<path id="a405b459-42e8-4eb5-9988-b9086189387e" class="st0" d="M100.2,275.9c-3.3,0.1-5.9,2.8-5.8,6s2.6,5.8,5.8,5.8h107.1
	c3.3,0,6-2.6,6-5.9s-2.6-6-5.8-6c-0.1,0-0.1,0-0.2,0L100.2,275.9L100.2,275.9z"/>
<path id="b32f5175-a272-4d51-9048-0542c511c928" class="st0" d="M100.2,306.9c-3.3,0.1-5.9,2.8-5.8,6s2.6,5.8,5.8,5.8h107.1
	c3.3,0,6-2.6,6-5.9s-2.6-6-5.8-6c-0.1,0-0.1,0-0.2,0H100.2V306.9z"/>
<path id="b3f78383-4856-4bdc-97c4-b8cb03fde67d" class="st0" d="M100.2,337.9c-3.3,0.1-5.9,2.8-5.8,6s2.6,5.8,5.8,5.8h107.1
	c3.3,0,6-2.6,6-5.9s-2.6-6-5.8-6c-0.1,0-0.1,0-0.2,0H100.2V337.9z"/>
<path class="st0" d="M61.9,199.8c-6.1,0-11-4.9-11-11s4.9-11,11-11s11,4.9,11,11l0,0C72.9,194.9,68,199.8,61.9,199.8z M61.9,179.8
	c-5,0-9,4-9,9s4,9,9,9s9-4,9-9l0,0C70.9,183.9,66.9,179.8,61.9,179.8z"/>
<path class="st0" d="M61.9,230.8c-6.1,0-11-4.9-11-11s4.9-11,11-11s11,4.9,11,11l0,0C72.9,225.9,68,230.8,61.9,230.8z M61.9,210.8
	c-5,0-9,4-9,9s4,9,9,9s9-4,9-9l0,0C70.9,214.9,66.9,210.8,61.9,210.8z"/>
<path class="st0" d="M61.9,261.8c-6.1,0-11-4.9-11-11c0-6.1,4.9-11,11-11s11,4.9,11,11C72.9,256.9,68,261.8,61.9,261.8z M61.9,241.8
	c-5,0-9,4-9,9s4,9,9,9s9-4,9-9l0,0C70.9,245.8,66.9,241.8,61.9,241.8z"/>
<path class="st0" d="M61.9,292.8c-6.1,0-11-4.9-11-11c0-6.1,4.9-11,11-11s11,4.9,11,11C72.9,287.9,68,292.8,61.9,292.8z M61.9,272.8
	c-5,0-9,4-9,9s4,9,9,9s9-4,9-9l0,0C70.9,276.8,66.9,272.8,61.9,272.8z"/>
<path class="st0" d="M61.9,323.8c-6.1,0-11-4.9-11-11s4.9-11,11-11s11,4.9,11,11S68,323.8,61.9,323.8z M61.9,303.8c-5,0-9,4-9,9
	s4,9,9,9s9-4,9-9l0,0C70.9,307.8,66.9,303.8,61.9,303.8z"/>
<path class="st0" d="M61.9,354.8c-6.1,0-11-4.9-11-11s4.9-11,11-11s11,4.9,11,11l0,0C72.9,349.9,68,354.8,61.9,354.8z M61.9,334.8
	c-5,0-9,4-9,9s4,9,9,9s9-4,9-9S66.9,334.8,61.9,334.8L61.9,334.8z"/>
<circle class="st5" cx="61.9" cy="188.8" r="5"/>
<circle class="st6" cx="61.9" cy="250.8" r="5"/>
<circle class="st6" cx="61.9" cy="281.8" r="5"/>
<path class="st7" d="M507.6,266.6l1.6,12.2c0.6,4.7,4.9,8,9.6,7.3c0.5-0.1,0.9-0.2,1.4-0.3l0,0c4.5-1.4,7-6.2,5.6-10.7
	c-0.3-0.8-0.6-1.6-1.1-2.3l-7.3-10.6l-14.3-37.9l14.8-19.2l-17.2-7.4l-14.3,25.1L507.6,266.6z"/>
<path class="st8" d="M496.7,198.6l24.6,9.4l6-16.7c1.6-4.6-0.2-9.7-4.5-12.1l0,0c-4.3-2.4-9.7-1.4-12.8,2.5L496.7,198.6z"/>
<path class="st9" d="M479.5,432l32.3,0.8l19-123.9c18,32.8,32.3,76.4,44.8,125.1l28.1-6.4c-7.8-51.8-22.2-98.5-43.8-139.4l1-28.1
	l-44.8-6.9c-1.3,0.6-2.5,1.3-3.6,2.2C487,274.3,483.7,359.2,479.5,432z"/>
<path class="st9" d="M582.9,467.4l10.8-1.3l-1.4-12.9c4.4,8.8,10,12.6,16.7,11.9c3.2-0.4,5.9-2.7,6.9-5.8l0,0
	c0.1-0.3,0.2-0.6,0.2-0.9c0.5-2.6-1-5.1-3.4-5.9c-8.1-3.2-10.3-17.8-12-33.3l-13.3,2.5l0.5,11.3C580.3,443.9,580,454.9,582.9,467.4z
	"/>
<path class="st9" d="M486.4,468.4l10.8-1.3l-1.4-12.9c4.4,8.8,10,12.6,16.7,11.9c3.2-0.4,5.9-2.7,6.9-5.8l0,0
	c0.1-0.3,0.2-0.6,0.2-0.9c0.5-2.6-1-5.1-3.4-5.9c-8.1-3.2-10.3-17.8-12-33.3l-13.3,2.5l0.5,11.3
	C483.7,444.9,483.5,455.9,486.4,468.4z"/>
<circle class="st7" cx="545.8" cy="157.2" r="17.5"/>
<path class="st7" d="M511.5,190.7l23.1-3.9l11.8-19.7l-16.7-10.8C526.5,167.6,520,179.1,511.5,190.7z"/>
<path class="st2" d="M513.6,255l46.7,11.1c3.6-29.2,2.4-54.8-6.2-74.7c-2.7-6.2-8-10.7-14.5-12.4l0,0l-19.7-1l0,0
	c-9.1,4.4-14.1,14.2-12.5,24.1C514.9,221.8,520,240.6,513.6,255z"/>
<path class="st7" d="M598.8,246.7l10.9,5.6c4.2,2.2,9.3,0.5,11.5-3.7c0.2-0.4,0.4-0.9,0.5-1.3l0,0c1.4-4.5-1-9.3-5.5-10.7
	c-0.8-0.3-1.7-0.4-2.5-0.4l-12.9-0.1l-39.3-10l-7.3-23.1l-15.9,9.9l12.4,26.1L598.8,246.7z"/>
<path class="st10" d="M536.9,216.6l21.8-14.8l-10.2-14.5c-2.8-4-8.1-5.3-12.5-3.3l0,0c-4.4,2.1-6.7,7.2-5.3,11.9L536.9,216.6z"/>
<path class="st9" d="M541.8,157c6.7-1,12.4-2.7,19.1-3.6c1.7-0.2,3.5-0.6,4.3-2.1c0.7-1.4,0.1-3-0.6-4.4
	c-5.9-10.8-19.5-14.8-30.4-8.9c-3.6,2-6.6,4.9-8.7,8.5c-1.8,3.1-2.8,6.6-5,9.4c-1.5,1.7-3.2,3.2-5,4.5
	c-13.5,11.2-22.2,27.3-24.2,44.8c-0.5,3.2-0.4,6.4,0.2,9.6c0.6,3.2,2.4,6,5,8c3.9,2.7,9.3,2.5,13.6,0.6c8.4-3.6,13.6-12.4,15.1-21.4
	s-0.1-18.2-2.2-27.1c-0.7-3.2-1.5-6.7-0.6-9.8c1.3-4.4,7.4,2.6,11.4,0.2c1.6-1,1.6-11.9,3.5-11.7s3.8,2.1,3,3.9L541.8,157z"/>
<path class="st11" d="M524,165c1-0.7,1.3-2,0.7-3.1l-2.8-4.5c-0.7-1-2-1.3-3.1-0.7c-1,0.7-1.3,2-0.7,3.1l0,0l2.8,4.5
	C521.5,165.4,522.9,165.7,524,165L524,165z"/>
<circle class="st0" cx="27.8" cy="21.7" r="8.5"/>
<circle class="st0" cx="52.4" cy="21.7" r="8.5"/>
<circle class="st0" cx="77.1" cy="21.7" r="8.5"/>
<g>
	<path class="st12" d="M478.3,24.2c0.4,0,0.7,59.8,1.1,59.8c0.4,0,0.7-59.8,1.1-59.8c0.4,0,0.7,59.8,1.1,59.8
		c0.4,0,0.7-59.8,1.1-59.8c0.4,0,0.7,59.8,1.1,59.8c0.4,0,0.7-59.8,1.1-59.8c0.4,0,0.7,59.8,1.1,59.8c0.4,0,0.7-59.8,1.1-59.8
		c0.4,0,0.7,59.8,1.1,59.8c0.4,0,0.7-59.8,1.1-59.8c0.4,0,0.7,59.8,1.1,59.8c0.4,0,0.7-59.8,1.1-59.8c0.4,0,0.7,59.8,1.1,59.8
		c0.4,0,0.7-59.8,1.1-59.8c0.4,0,0.7,59.8,1.1,59.8c0.4,0,0.7-59.8,1.1-59.8c0.4,0,0.7,59.8,1.1,59.8c0.4,0,0.7-59.8,1.1-59.8
		c0.4,0,0.7,59.8,1.1,59.8c0.4,0,0.7-59.8,1.1-59.8c0.4,0,0.7,59.8,1.1,59.8c0.4,0,0.7-59.8,1.1-59.8c0.4,0,0.7,59.8,1.1,59.8
		c0.4,0,0.7-59.8,1.1-59.8c0.4,0,0.7,59.8,1.1,59.8c0.4,0,0.7-59.8,1.1-59.8c0.4,0,0.7,59.8,1.1,59.8c0.4,0,0.7-59.8,1.1-59.8
		c0.4,0,0.7,59.8,1.1,59.8c0.4,0,0.7-59.8,1.1-59.8c0.4,0,0.7,59.8,1.1,59.8c0.4,0,0.7-59.8,1.1-59.8c0.4,0,0.7,59.8,1.1,59.8
		c0.4,0,0.7-59.8,1.1-59.8c0.4,0,0.7,59.8,1.1,59.8c0.4,0,0.7-59.8,1.1-59.8c0.4,0,0.7,59.8,1.1,59.8c0.4,0,0.7-59.8,1.1-59.8
		c0.4,0,0.7,59.8,1.1,59.8c0.4,0,0.7-59.8,1.1-59.8c0.4,0,0.7,59.8,1.1,59.8c0.4,0,0.7-59.8,1.1-59.8c0.4,0,0.7,59.8,1.1,59.8
		c0.4,0,0.7-59.8,1.1-59.8c0.4,0,0.7,59.8,1.1,59.8c0.4,0,0.7-59.8,1.1-59.8c0.4,0,0.7,59.8,1.1,59.8c0.4,0,0.7-59.8,1.1-59.8
		c0.4,0,0.7,59.8,1.1,59.8c0.4,0,0.7-59.8,1.1-59.8c0.4,0,0.7,59.8,1.1,59.8c0.4,0,0.7-59.8,1.1-59.8c0.4,0,0.7,59.8,1.1,59.8
		c0.4,0,0.7-59.8,1.1-59.8c0.4,0,0.7,59.8,1.1,59.8c0.4,0,0.7-59.8,1.1-59.8c0.4,0,0.7,59.8,1.1,59.8c0.4,0,0.7-59.8,1.1-59.8
		c0.4,0,0.7,59.8,1.1,59.8c0.4,0,0.7-59.8,1.1-59.8c0.4,0,0.7,59.8,1.1,59.8c0.4,0,0.7-59.8,1.1-59.8c0.4,0,0.7,59.8,1.1,59.8
		c0.4,0,0.7-59.8,1.1-59.8c0.4,0,0.7,59.8,1.1,59.8c0.4,0,0.7-59.8,1.1-59.8c0.4,0,0.7,59.8,1.1,59.8c0.4,0,0.7-59.8,1.1-59.8
		c0.4,0,0.7,59.8,1.1,59.8c0.4,0,0.7-59.8,1.1-59.8c0.4,0,0.7,59.8,1.1,59.8c0.4,0,0.7-59.8,1.1-59.8c0.4,0,0.7,59.8,1.1,59.8
		c0.4,0,0.7-59.8,1.1-59.8c0.4,0,0.7,59.8,1.1,59.8c0.4,0,0.7-59.8,1.1-59.8c0.4,0,0.7,59.8,1.1,59.8c0.4,0,0.7-59.8,1.1-59.8
		c0.4,0,0.7,59.8,1.1,59.8c0.4,0,0.7-59.8,1.1-59.8c0.4,0,0.7,59.8,1.1,59.8c0.4,0,0.7-59.8,1.1-59.8c0.4,0,0.7,59.8,1.1,59.8
		c0.4,0,0.7-59.8,1.1-59.8c0.4,0,0.7,59.8,1.1,59.8c0.4,0,0.7-59.8,1.1-59.8c0.4,0,0.7,59.8,1.1,59.8c0.4,0,0.7-59.8,1.1-59.8
		c0.4,0,0.7,59.8,1.1,59.8c0.4,0,0.7-59.8,1.1-59.8c0.4,0,0.7,59.8,1.1,59.8c0.4,0,0.7-59.8,1.1-59.8c0.4,0,0.7,59.8,1.1,59.8
		c0.4,0,0.7-59.8,1.1-59.8c0.4,0,0.7,59.8,1.1,59.8c0.4,0,0.7-59.8,1.1-59.8c0.4,0,0.7,59.8,1.1,59.8c0.4,0,0.7-59.8,1.1-59.8
		c0.4,0,0.7,59.8,1.1,59.8c0.4,0,0.7-59.8,1.1-59.8c0.4,0,0.7,59.8,1.1,59.8c0.4,0,0.7-59.8,1.1-59.8c0.4,0,0.7,59.8,1.1,59.8
		c0.4,0,0.7-59.8,1.1-59.8c0.4,0,0.7,59.8,1.1,59.8c0.4,0,0.7-59.8,1.1-59.8c0.4,0,0.7,59.8,1.1,59.8c0.4,0,0.7-59.8,1.1-59.8
		c0.4,0,0.7,59.8,1.1,59.8c0.4,0,0.7-59.8,1.1-59.8c0.4,0,0.7,59.8,1.1,59.8c0.4,0,0.7-59.8,1.1-59.8c0.4,0,0.7,59.8,1.1,59.8
		c0.4,0,0.7-59.8,1.1-59.8c0.4,0,0.7,59.8,1.1,59.8c0.4,0,0.7-59.8,1.1-59.8c0.4,0,0.7,59.8,1.1,59.8c0.4,0,0.7-59.8,1.1-59.8
		c0.4,0,0.7,59.8,1.1,59.8c0.4,0,0.7-59.8,1.1-59.8c0.4,0,0.7,59.8,1.1,59.8c0.4,0,0.7-59.8,1.1-59.8c0.4,0,0.7,59.8,1.1,59.8
		c0.4,0,0.7-59.8,1.1-59.8c0.4,0,0.7,59.8,1.1,59.8c0.4,0,0.7-59.8,1.1-59.8c0.4,0,0.7,59.8,1.1,59.8c0.4,0,0.7-59.8,1.1-59.8
		c0.4,0,0.7,59.8,1.1,59.8c0.4,0,0.7-59.8,1.1-59.8c0.4,0,0.7,59.8,1.1,59.8c0.4,0,0.7-59.8,1.1-59.8c0.4,0,0.7,59.8,1.1,59.8
		c0.4,0,0.7-59.8,1.1-59.8c0.4,0,0.7,59.8,1.1,59.8c0.4,0,0.7-59.8,1.1-59.8c0.4,0,0.7,59.8,1.1,59.8c0.4,0,0.7-59.8,1.1-59.8
		c0.4,0,0.7,59.8,1.1,59.8c0.4,0,0.7-59.8,1.1-59.8c0.4,0,0.7,59.8,1.1,59.8c0.4,0,0.7-59.8,1.1-59.8c0.4,0,0.7,59.8,1.1,59.8
		c0.4,0,0.7-59.8,1.1-59.8c0.4,0,0.7,59.8,1.1,59.8c0.4,0,0.7-59.8,1.1-59.8c0.4,0,0.7,59.8,1.1,59.8c0.4,0,0.7-59.8,1.1-59.8
		c0.4,0,0.7,59.8,1.1,59.8c0.4,0,0.7-59.8,1.1-59.8c0.4,0,0.7,59.8,1.1,59.8c0.4,0,0.7-59.8,1.1-59.8c0.4,0,0.7,59.8,1.1,59.8
		c0.4,0,0.7-59.8,1.1-59.8c0.4,0,0.7,59.8,1.1,59.8c0.4,0,0.7-59.8,1.1-59.8c0.4,0,0.7,59.8,1.1,59.8c0.4,0,0.7-59.8,1.1-59.8
		c0.4,0,0.7,59.8,1.1,59.8c0.4,0,0.7-59.8,1.1-59.8c0.4,0,0.7,59.8,1.1,59.8c0.4,0,0.7-59.8,1.1-59.8c0.4,0,0.7,59.8,1.1,59.8
		c0.4,0,0.7-59.8,1.1-59.8c0.4,0,0.7,59.8,1.1,59.8c0.4,0,0.7-59.8,1.1-59.8c0.4,0,0.7,59.8,1.1,59.8c0.4,0,0.7-59.8,1.1-59.8
		c0.4,0,0.7,59.8,1.1,59.8c0.4,0,0.7-59.8,1.1-59.8c0.4,0,0.7,59.8,1.1,59.8c0.4,0,0.7-59.8,1.1-59.8c0.4,0,0.7,59.8,1.1,59.8
		c0.4,0,0.7-59.8,1.1-59.8c0.4,0,0.7,59.8,1.1,59.8c0.4,0,0.7-59.8,1.1-59.8c0.4,0,0.7,59.8,1.1,59.8c0.4,0,0.7-59.8,1.1-59.8
		c0.4,0,0.7,59.8,1.1,59.8c0.4,0,0.7-59.8,1.1-59.8c0.4,0,0.7,59.8,1.1,59.8c0.4,0,0.7-59.8,1.1-59.8c0.4,0,0.7,59.8,1.1,59.8
		c0.4,0,0.7-59.8,1.1-59.8c0.4,0,0.7,59.8,1.1,59.8c0.4,0,0.7-59.8,1.1-59.8c0.4,0,0.7,59.8,1.1,59.8c0.4,0,0.7-59.8,1.1-59.8
		c0.4,0,0.7,59.8,1.1,59.8c0.4,0,0.7-59.8,1.1-59.8c0.4,0,0.7,59.8,1.1,59.8c0.4,0,0.7-59.8,1.1-59.8c0.4,0,0.7,59.8,1.1,59.8
		c0.4,0,0.7-59.8,1.1-59.8c0.4,0,0.7,59.8,1.1,59.8c0.4,0,0.7-59.8,1.1-59.8c0.4,0,0.7,59.8,1.1,59.8c0.4,0,0.7-59.8,1.1-59.8
		c0.4,0,0.7,59.8,1.1,59.8c0.4,0,0.7-59.8,1.1-59.8c0.4,0,0.7,59.8,1.1,59.8c0.4,0,0.7-59.8,1.1-59.8c0.4,0,0.7,59.8,1.1,59.8
		c0.4,0,0.7-59.8,1.1-59.8c0.4,0,0.7,59.8,1.1,59.8c0.4,0,0.7-59.8,1.1-59.8c0.4,0,0.7,59.8,1.1,59.8c0.4,0,0.7-59.8,1.1-59.8
		c0.4,0,0.7,59.8,1.1,59.8c0.4,0,0.7-59.8,1.1-59.8c0.4,0,0.7,59.8,1.1,59.8c0.4,0,0.7-59.8,1.1-59.8c0.4,0,0.7,59.8,1.1,59.8
		c0.4,0,0.7-59.8,1.1-59.8c0.4,0,0.7,59.8,1.1,59.8c0.4,0,0.7-59.8,1.1-59.8c0.4,0,0.7,59.8,1.1,59.8c0.4,0,0.7-59.8,1.1-59.8
		c0.4,0,0.7,59.8,1.1,59.8c0.4,0,0.7-59.8,1.1-59.8c0.4,0,0.7,59.8,1.1,59.8c0.4,0,0.7-59.8,1.1-59.8c0.4,0,0.7,59.8,1.1,59.8
		c0.4,0,0.7-59.8,1.1-59.8c0.4,0,0.7,59.8,1.1,59.8"/>
</g>
<g>
	<path class="st13" d="M620,191.5c19.4-4.9,19.4,43.4,38.8,44.7c19.4,0.5,19.4-50.1,38.9-48.4c19.4,2.1,19.4,46.5,38.9,43.7
		c19.4-2.8,19.4-38.4,38.9-36.3c19.4,1.7,19.4,31.1,38.9,31.6c19.4,1.3,19.4-30.5,38.9-35.3"/>
</g>
<path class="st14" d="M620,263.8c11.7,0,11.7,32,23.3,32c11.7,0,11.7-32,23.3-32c11.7,0,11.7,32,23.3,32c11.7,0,11.7-32,23.3-32
	c11.7,0,11.7,32,23.3,32c11.7,0,11.7-32,23.3-32c11.7,0,11.7,32,23.3,32c11.7,0,11.7-32,23.3-32c11.7,0,11.7,32,23.3,32
	s11.7-32,23.3-32"/>
<polyline class="st0" points="864.3,243.3 864.3,245.5 621.2,245.5 621.2,243.3 "/>
<g id="Brain_icon_x2C__Brain_Logo_silhouette">
	<g>
		<g>
			<defs>
				<rect id="SVGID_1_" x="78.4" y="-163.6" width="799.9" height="799.8"/>
			</defs>
			<clipPath id="SVGID_00000018932382513702724520000016296808062684681135_">
				<use xlink:href="#SVGID_1_"  style="overflow:visible;"/>
			</clipPath>
			
				<rect x="78.3" y="-163.8" style="clip-path:url(#SVGID_00000018932382513702724520000016296808062684681135_);fill:#FFFFFF;" width="800" height="800"/>
		</g>
		<path class="st16" d="M437.8-29.8c-1,0.3-4.2,1.1-6.9,1.7c-2.8,0.6-7.8,3.4-11.2,6.3c-5.2,4.4-8,5.2-17.6,5.3
			c-13.2,0.1-24.3,5-31.8,13.9c-3.4,4.1-6.5,5.7-10.6,5.7c-7.9,0-18.7,10.1-26.6,24.9c-3.4,6.5-9.9,15.9-14.3,20.9
			c-10.1,11.3-15.5,25.6-18.1,47.5c-1.4,11.9-3.6,20.1-7.3,27.4c-8.2,16.2-9.4,25.1-8.6,65c0.6,31.9,1.2,37.4,4.6,44.6
			c2.8,5.8,4.1,13,4.5,24.6c0.6,14.9,1.2,17.1,6.7,25c3.4,4.8,6.1,10.7,6.1,13.1c0,10.8,9.1,26,17.1,28.5c1.8,0.6,4.7,4.8,6.4,9.5
			c6.4,16.7,17.6,25.3,32.8,25.3c4.4,0,8.4,1.2,9.8,2.9c3.6,4.3,12.2,8.4,17.8,8.4c4.1,0,5.6,1.6,9.4,10.1c2.4,5.5,7,12.2,10.2,14.9
			c7.5,6.3,22.7,9.6,32.3,7.1c8.3-2.2,22.4-14.8,27.4-24.5c5-9.5,6.1-39.3,1.9-53.5c-2.9-9.9-2.9-11.7,0.1-26.2
			c2.7-13.4,2.9-18.3,1-35.3c-1.8-17-1.7-21,0.8-28.3c4.3-12.2,2.9-41.2-2.6-53.3l-4.1-9l4-7.6c5.2-10,6.8-30.4,3-39.4
			c-2.3-5.5-2.3-7.5-0.3-12.2c3.4-7.8,3.2-28.4-0.3-40.3c-2.7-9-2.7-11,0-21.7c3.4-13.6,3.9-43.8,0.9-54.9
			c-2.7-10-10.2-19.6-17.5-22.6C450.2-28.8,440.6-30.7,437.8-29.8L437.8-29.8z M456.1-8.4l6.2,5.5l0.6,22.3
			c0.4,15.6-0.2,24.6-2.1,29.8c-2.6,7.5-2.6,7.5-14.4,8.5c-13.2,1.1-17.9,4.8-20,15.8c-2.6,13.6,9.7,27.2,17.4,19.4
			c3.5-3.5,1.8-7-3.4-7c-3.2,0-3.7-1.1-3.2-6.9c0.5-5.8,1.5-7.2,5.8-8.3c7.4-2,15.2,0.6,17.9,6c2.8,5.5,3.1,24.1,0.5,30.9
			c-1.5,3.9-2.6,4.6-5.2,3.2c-1.8-1-10.2-2.1-18.6-2.6c-11.9-0.7-16.6-1.8-21.2-5.1c-5.6-4-5.9-4.9-5.9-16.4
			c0-20,9.1-32.6,25.9-35.8c7.3-1.4,9.2-3.7,6-7.4c-4.8-5.8-21.7-1.6-30.9,7.6l-6.4,6.4l-7.6-4.2c-6-3.3-8.4-3.7-11-2.1
			c-5.7,3.6-4.2,9.1,2.6,9.8c8.9,0.9,11,4.7,11,20c0,22.1-3.3,28.1-19.4,35.4l-8.1,3.7l-5.5-4.7c-3.1-2.6-8.4-5.6-12-6.8
			c-6.2-2-6.4-2.4-4.9-9c1.9-8.5,7.2-15.8,13.8-19.1c4.5-2.2,6.1-2,13.4,1.6c8.8,4.2,12.2,3.8,12.2-1.5c0-3.9-14.1-11.7-21.2-11.7
			c-4.9,0-5.2-0.5-5.2-8.4c0-18.1,9.8-30.9,25.3-33c6-0.8,7.8-1.9,8.2-5c0.7-5.1-5.8-7-14.9-4.4c-11.5,3.3-12.2,1.6-3.3-8.6
			c7.2-8.2,14.5-12.2,22.3-12.2c8,0,22.7,7.8,27.8,14.8c5,6.8,10.7,6.2,9.4-1c-1-5.3,4.2-6.2,8.9-1.4c3.5,3.5,8.6,2.2,8.6-2.1
			c0-1.6-2.2-5.2-4.9-7.8c-4.2-4.2-6-4.7-13-3.7c-10.4,1.4-14.8-2.4-8.2-7.1C436.8-15.9,449-14.8,456.1-8.4L456.1-8.4z M363.4,23.1
			c1.4,3.8,1.2,5.7-0.9,8.1c-5.2,5.8-8.9,17.7-9.5,30.3c-0.4,9.7-1.6,14.2-5.4,19.9c-2.7,4.1-5.8,11.8-7,17.2
			c-1.6,7.4-4,11.7-9.8,17.5l-7.7,7.7l-4.4-4.2c-3.7-3.5-4.4-6-4.4-15.5c0-13.4,4.4-30.4,9.6-37l3.7-4.7l-1.3,8.5
			c-2.3,14.8-1.9,17.9,2.2,17.9c3.1,0,4.4-2.3,6.9-12.3c1.7-6.7,3.3-16.1,3.3-20.7c0.2-10.2,5-21.4,13.2-30.8
			C359.2,16.8,360.9,16.6,363.4,23.1L363.4,23.1z M417.9,116.2c2.5,1.3,11.1,3.1,19.1,3.9c20.6,2.1,26.2,6.7,26.2,21.7
			c0,14.4-8.7,27.2-22.6,33.2c-10.2,4.4-15.5,3.7-31.6-4.4c-10.2-5.1-12.5-5.6-16.6-3.7c-7,3.2-5.2,8.4,3.4,9.8
			c3.8,0.6,10.2,3.4,14.2,6.2c4,2.8,8.7,5,10.4,5c2.6,0,3.2,1.9,3.2,10.1c0,13.7-3.1,22.4-7.2,20.3c-8.5-4.4-16.4-4.1-24.2,1
			c-11.3,7.3-19,23.3-11.2,23.3c1.2,0,5.4-3.4,9.3-7.5c5.1-5.4,8.6-7.5,12.5-7.5c7,0,14.7,6.2,16.2,13.1c1.5,7-1.8,19.9-7.6,28.7
			c-7.5,11.5-7.6,15.3-0.8,23c3.5,4,5.6,8,4.9,9.7c-1.8,4.8-10.1,6.8-18.4,4.6c-8-2.2-13.4-8.7-16.6-20.5c-1.7-5.9-1.2-7.1,4.9-13.9
			c5.8-6.5,6.4-7.8,4-10.2c-2.4-2.4-3.5-2-8.9,3c-11.8,11-22.8,6.1-22.6-10.1c0.2-15.5,3.4-22.4,11.2-24
			c6.9-1.4,18.9-12.6,18.9-17.6c0-4.4-6.4-3.4-11.3,1.9c-5.4,5.7-9.4,5.9-21.6,0.8c-12.2-5.1-17-3.3-27.5,9.9
			c-9.7,12.3-12.3,13.9-17.8,10.9c-5.4-2.9-12.3-15-12.3-21.5c0-5.6,1.3-6,6.5-2c2,1.5,6.7,2.8,10.4,2.8c15.7,0,29.8-19.1,30.8-41.8
			c0.5-11.9-4.4-11-8.4,1.5c-5,15.5-8.9,22.4-14.7,25.8c-7.5,4.4-10.5,4.1-17.6-2.3l-6.2-5.5l0-23.2c0-20.3,0.6-24.5,4.5-33.1
			c2.4-5.4,5-9.9,5.6-9.8c0.7,0,3.6,2.1,6.6,4.5c5.8,4.8,5.9,5.4,1.9,29.8c-1,6.2-0.7,7.1,2.6,7.1c4.6,0,9.1-10.2,10.9-24.8
			c2.9-23.4,16.8-30.8,32.6-17.6c7.6,6.4,10.2,15.4,9.4,31.9c-0.6,12.3-1.3,14.4-6.8,20.6c-6.3,7.2-7.6,11.3-4.1,13.5
			c5.5,3.4,18.7-16.5,21.2-31.9c1.4-9,7.9-16.2,14.4-16.2c2.7,0,10.2,1.7,16.8,3.8c18.5,5.8,29.8,4.6,28.2-3.1c-0.5-2.6-2.1-3.4-6-3
			c-2.9,0.3-12.9-2.1-22.3-5.3c-17.2-6-17.8-6-30.3-0.9c-2.2,0.9-3.3,0.5-3.3-1.2c0-1.4,3.9-4.6,8.6-7.1c4.7-2.5,10.9-7.7,13.7-11.6
			c4.3-6,5.5-6.7,7.9-4.6C412,112.7,415.4,114.9,417.9,116.2L417.9,116.2z M458.7,188.2c3.8,7.3,5.5,25.9,3.6,38.5
			c-1.1,7.3-2.9,10.6-8.9,16.3c-8.9,8.5-9.1,13.8-0.3,13.2l5.8-0.4l1.2,13.7c1.3,14.8-0.8,30.1-5.4,39.1
			c-3.5,6.7-14.6,14.5-23.1,16.2c-6.6,1.3-22,16.3-20.7,20.2c1.4,4.4,8.4,3.5,12.4-1.6c4.6-5.8,7.2-4.9,9.3,3.4c1.1,4.2,2.7,6,5.2,6
			c3.1,0,3.6-1.3,3.4-8.6c-0.3-8.3,0.1-8.8,7.9-13.6l8.2-5l1.9,7c2.9,10.3,2.4,29.4-0.9,37.8c-4.5,11.3-22.6,19.7-33.5,15.6
			c-7.2-2.8-12.8-9.9-19.6-25.2c-6.5-14.7-11.9-18.1-13.8-8.6c-0.8,4.2-1.6,4.7-5,3.4c-5.9-2.2-6.9-5-3.6-9.7
			c3.8-5.4,3.9-16.6,0.2-16.6c-1.5,0-4.5,2.6-6.7,5.7c-13.1,18.4-31.1,11.6-36.6-13.7c-0.8-3.6-3.1-6-7.4-7.8
			c-6.4-2.7-12.5-9.4-12.5-13.8c0-1.3,2.1-2.9,4.6-3.5c9-2.3,7.3-12.1-2.1-12.1c-6,0-13.3-8.1-15.8-17.3c-2.8-10.4-1-14.7,6.1-14.7
			c5.9,0,16.3-8.9,25.2-21.5c3.1-4.5,4.8-5.3,8.7-4.3l4.8,1.2l-2.6,9.9c-6.6,25.3,0.6,44.9,16.5,44.9c4.4,0,5.1,0.9,6.3,8
			c2.9,18.3,14.9,29.7,31.2,29.7c9.2,0,14.5-2.4,20.3-9.2c6.2-7.3,5.6-15.6-1.7-22.9c-5.9-5.9-5.9-6.1-2.7-11
			c10.4-15.9,13.8-33.2,8.9-45c-2-4.8-1.8-6.6,1.7-13.3c2.2-4.2,4.5-12.3,5.1-18c1-10,1.3-10.3,8.3-12.4c4-1.2,7.7-3,8.4-4
			C453,180.7,455.5,182.1,458.7,188.2L458.7,188.2z M507.5-29.1c-12.4,2.9-22,12-25.4,24.2c-3,10.9-2.4,47.2,1,58.6
			c2.7,9.1,2.7,10.6-0.2,18.1c-2.5,6.5-2.9,11.8-2,25.8c0.6,9.7,1,20.1,0.8,23.3c-1.3,23.1-0.4,38.1,2.9,44.7
			c3.2,6.5,3.2,7.6,0.4,15.1c-6.7,18.2-7.3,48.5-1.1,60c1.3,2.4,1.3,7.4,0,15.4c-2.7,16.8-2.4,32.8,0.9,45.5
			c2.6,9.9,2.5,11.9-0.3,21.6c-3.9,13.5-4.3,36.1-0.8,48.3c3.6,12.4,18.6,28.1,29.7,31.1c16.7,4.5,32.7-3.2,41.2-19.7
			c5-9.8,6.6-11.4,12.3-12.3c7.5-1.2,13.3-4.1,16.8-8.3c1.5-1.8,5.4-2.9,9.9-2.9c14.6,0,26.2-9.1,31.8-25c1.6-4.5,4.8-8.5,8.7-10.8
			c7.8-4.6,13-13.1,14.6-23.9c0.7-4.6,4-12.7,7.3-18c5.4-8.6,6-11.2,6.2-25c0.2-11.8,1.2-17.2,4.4-23.6c3.8-7.4,4.3-11.7,5-42
			c0.9-39.3-0.6-50.3-9.7-68.3c-5.2-10.3-6.6-15.5-6.6-23.6c0-19.1-8.3-41-19.6-51.8c-3.3-3.1-8.4-10.7-11.4-16.9
			c-7.6-15.6-19.7-27.4-28.1-27.4c-4.8,0-7.2-1.2-9.5-4.6c-1.7-2.5-7-7-11.9-9.8c-7-4.1-11.3-5.2-20.4-5.3c-9.7,0-12.4-0.8-17.6-5.2
			C529.1-28.5,517.4-31.4,507.5-29.1L507.5-29.1z M525.7-10.9c4.6,2.4,5.3,3.5,3.5,5.6c-1.5,1.9-4.5,2.3-10,1.6
			c-9.5-1.3-18.2,4.3-18.2,11.7c0,5.2,3,5.8,8.4,1.7c5.4-4.1,8.6-3.4,8.6,1.8c0,7.5,3.8,7.7,10.1,0.5c17.5-20,42-18.6,53.3,3.1
			l2.8,5.4l-6.3-1.5c-8.4-2-16.4-1.7-18.9,0.8c-3.2,3.2,1.8,7.9,8.4,7.9c13.5,0,23.9,12.2,25.5,30.2l1,11.3h-6
			c-8.6,0-20.9,6.7-20.9,11.4c0,5.7,4.3,6.2,12.1,1.6c6.7-3.9,7.3-4,13.4-1.1c8.1,3.8,12.7,10.8,12.9,19.7c0.2,5.5-0.6,7.1-3.6,7.7
			c-2.1,0.4-7.5,3.2-12,6.3l-8.3,5.6l-8.5-4.4c-12.9-6.6-15.9-11.9-17-29.7c-1.1-18.2,1.8-24.6,11-24.6c4.7,0,5.6-0.8,5.6-4.6
			c0-7.6-9.4-8.4-17.4-1.4c-3,2.6-3.9,2.2-10.2-4.1c-9-9-23.7-13.3-30.6-8.9c-4.2,2.7-0.9,7.4,6.1,8.7c16.6,3.1,24.2,13.3,24.7,33.1
			c0.4,13.4-0.9,16.6-8.4,20.6c-6.5,3.5-40.1,6-41.9,3.1c-0.8-1.2-1.4-8.2-1.4-15.6c0-17.2,3.2-21.9,14.9-21.9
			c8.8,0,11.4,2.3,11.4,10.3c0,3.8-1,5.2-4.2,5.7c-5.7,0.8-6.6,6.5-1.3,8.2c2.7,0.9,5.8,0.1,9.1-2.4c4.2-3.1,5-5.4,5.5-14.3
			c0.5-9.3-0.1-11.3-4.2-15.4c-3.9-3.9-6.5-4.7-15.3-4.7c-10.4,0-10.6-0.1-13.6-7.1c-2.1-4.9-3.1-13.3-3.2-27.8
			c-0.2-22.3,2.4-30.4,11-34.6C509.5-14.6,519.3-14.2,525.7-10.9L525.7-10.9z M603.6,24c8.3,9.9,11,16.8,14.6,38.1
			c3.8,22.3,5.8,27.7,10.4,27.7c2.6,0,2.9-1.8,1.8-13.2c-0.7-7.3-0.8-13.2-0.3-13.2c0.5,0,2.5,3.2,4.5,7.1
			c4.5,8.9,7.8,24.3,7.8,36.2c0,7.6-0.8,9.8-4.8,13l-4.8,3.8l-8.4-8.4c-5.9-5.9-8.4-9.9-8.4-13.6c0-5.8-8.8-24.8-11.5-24.8
			c-0.9,0-1.7-6.2-1.7-13.9c0-11.5-0.9-15.7-5.4-24.5C588.8,21.3,593.1,11.6,603.6,24L603.6,24z M552.8,114.8
			c2.1,3.3,8.2,8.6,13.6,11.7c5.4,3.1,9.8,6.7,9.9,8c0.1,3.1-1.9,3-9.3-0.7c-5.9-3-6.8-2.9-24.3,2.9c-10,3.3-20.2,5.7-22.8,5.4
			c-3.3-0.4-4.8,0.4-5.4,3c-1.6,7.6,9.7,8.9,28.2,3.1c6.6-2.1,14.2-3.8,17-3.8c6.9,0,11.9,6.8,14.6,20.2c3.4,17,15.3,31.4,21.1,25.6
			c1-1-0.6-4.8-3.9-9.3c-14-19.1-11.1-46.8,6-57.3c9.5-5.8,15.3-4.9,22,3.3c4.3,5.2,5.8,9,5.9,14.6c0.1,10.4,5.8,26.3,9.7,27
			c4.1,0.8,6-5.3,3.5-11.8c-1.1-2.8-1.9-8.7-1.9-13.1c0-6.7,0.9-8.7,5.6-12.1c3.1-2.3,6-4.1,6.5-4.1c0.5,0,2.8,4.9,5.1,10.8
			c5.7,14.7,6.4,49.6,1.1,57.7c-7.1,10.8-18.7,11.2-26.4,0.8c-2.1-2.8-5.7-10.9-8-17.9c-5.2-16.1-9.5-17.3-9.1-2.7
			c0.2,7,1.9,13.3,5.7,20.7c8.8,17.1,21.5,23.1,34.8,16.2c3.2-1.6,6.2-2.5,6.8-1.9c2.2,2.2-4,18.1-8.9,22.8
			c-7,6.7-10.9,5.3-20.7-7.7c-4.3-5.7-10-11.2-12.6-12.2c-5.2-2-12.9-0.7-18.5,3.2c-5.8,4-13.8,3.1-19.1-2.2
			c-5.5-5.5-10.2-6.1-10.2-1.3c0,4.7,10.7,15.3,16.7,16.6c2.7,0.6,5.9,1.4,7,1.7c2.5,0.8,6.4,15.3,6.4,24c0,14.7-11.6,19.2-23.3,9
			c-5.4-4.8-6.8-5.2-8.7-3c-1.8,2.2-1,4.1,4.2,9.9c6.4,7.2,6.5,7.2,4,15.7c-3.5,11.8-11.3,18.9-21.1,19.3c-5.2,0.2-9-0.8-11.6-3.2
			l-3.9-3.6l5.4-5.8c8.4-9,8.6-11.5,1.2-24.6c-3.9-6.9-7.1-15.8-7.8-21.1c-1-8.1-0.5-9.9,4-15.2c7.4-8.8,15-8.3,24.6,1.5
			c8.4,8.6,12.3,9.6,12.3,3.1c0-6-13.8-21.4-20.5-22.8c-2.9-0.6-8.8,0-13.1,1.5l-7.8,2.7l-1.8-5.9c-2.5-8.2-3.8-21.1-2.4-23.1
			c2.5-3.4,24.7-13.9,29.5-13.9c4,0,4.9-0.8,4.4-4c-1.2-8-6.1-8.6-18.9-2.2c-12.1,6-16.4,7-27.4,6.5c-7.4-0.4-20.5-11.4-24.3-20.5
			c-3.1-7.3-3.3-21.9-0.5-27.2c2.8-5.3,13.1-9.1,24.4-9.1c10.4,0,20.2-3.3,24.3-8.2C547.5,107.5,548.4,107.8,552.8,114.8
			L552.8,114.8z M512.2,187.2c2.6,1.3,5.7,2.5,6.8,2.5c1.2,0,2.5,4.9,3.1,11.3c0.6,6.4,2.7,14.2,4.9,17.9c3.6,6.2,3.7,7,0.9,13.6
			c-4.9,11.8-0.6,29.6,11.1,46.1c1.9,2.7,1.4,3.8-2.7,7.1c-15.7,12.4-4.6,34,17.5,34c15,0,28-12.8,31-30.6c0.9-5.2,2.1-7.1,4.7-7.1
			c6.7,0,13.4-4.6,17-11.6c4.3-8.4,4.6-17.8,0.9-31.8c-2-7.8-2.1-10.6-0.5-11.7c5.2-3.3,7.8-1.6,16.4,10.5
			c7,9.9,13.8,14.4,21.7,14.4c5,0,5,0.2,4.2,10.4c-1,12.4-7.8,21.1-17.3,22c-4.5,0.4-6,1.6-6.5,4.9c-0.5,3.4,0.7,4.7,5.2,6.3
			c4.8,1.7,5.6,2.8,4.6,6.1c-1.9,6.2-6.2,10.3-12.3,11.6c-3.9,0.9-5.8,2.6-6.6,6.2c-4.1,18.4-9.9,25.6-20.9,25.6
			c-5.7,0-8.1-1.4-14.1-8.1c-4.6-5.2-8.2-7.7-10.1-7c-3.8,1.5-3.6,4.6,0.9,13.5c2.1,4.1,3.8,7.6,3.8,7.9c0,0.3-2.5,1.8-5.7,3.4
			c-5.3,2.7-5.7,2.7-5.7-0.5c0-3.5-3.4-8-6-8c-0.8,0-4.8,7-8.8,15.6c-9.3,19.8-14.8,25-25.7,24.8c-9.1-0.2-24.2-7.9-26.3-13.4
			c-3.5-8.9-4.5-21.7-2.7-32.7c1-6.5,2.3-12.5,2.8-13.3c0.5-0.8,4.5,0.8,9,3.6c7.6,4.7,8.1,5.5,8,13.5c-0.1,6.4,0.7,8.6,3,9.1
			c2.2,0.4,3.8-1.4,5.3-6c3-9,5.1-9.9,9.7-4.1c4.9,6.2,11.1,6.5,11.1,0.5c0-6.3-10.5-15.5-23-20.1c-21.5-8-29.3-26.7-24.8-59.2
			c1.2-8.5,1.4-8.8,7-8.3c8.7,0.8,9-5,0.6-11.9c-3.7-3-7.5-8.2-8.7-11.6c-3.1-9.4-3.5-25.9-0.9-35.9
			C498.4,181.9,500.1,181,512.2,187.2L512.2,187.2z M512.2,187.2"/>
		<g>
			<defs>
				<rect id="SVGID_00000055703007908491891200000003882520579538775975_" x="297.3" y="455.2" width="362" height="48"/>
			</defs>
			<clipPath id="SVGID_00000116193537079503598080000009323742638761948310_">
				<use xlink:href="#SVGID_00000055703007908491891200000003882520579538775975_"  style="overflow:visible;"/>
			</clipPath>
			<g style="clip-path:url(#SVGID_00000116193537079503598080000009323742638761948310_);">
				
					<image style="overflow:visible;" width="1509" height="200" xlink:href="AD99FCBB03585CC4.jpg"  transform="matrix(0.24 0 0 0.24 297.3 455.25)">
				</image>
			</g>
		</g>
	</g>
</g>
<g>
	<path class="st17" d="M338.6,382.6c9.9-4.2,9.9,33.1,19.8,33.6c9.9-0.3,9.9-37.6,19.8-35.4c9.9,2.4,9.9,32.4,19.8,30
		c9.9-2.1,9.9-24.8,19.8-24.6c9.9-0.5,9.9,22.1,19.8,26.4"/>
</g>
</svg>
