<?xml version="1.0" encoding="utf-8"?>
<!-- Generator: Adobe Illustrator 26.0.1, SVG Export Plug-In . SVG Version: 6.00 Build 0)  -->
<svg version="1.1" id="beb8b204-3759-49ce-94f2-7f3d3b03c1ba"
	 xmlns="http://www.w3.org/2000/svg" xmlns:xlink="http://www.w3.org/1999/xlink" x="0px" y="0px" viewBox="0 0 956.6 472.5"
	 style="enable-background:new 0 0 956.6 472.5;" xml:space="preserve">
<style type="text/css">
	.st0{fill:#E6E6E6;}
	.st1{fill:#3F3D56;}
	.st2{fill:#059669;}
	.st3{fill:#FFFFFF;}
	.st4{fill:#C68F64;}
	.st5{fill:#A78BFA;}
	.st6{fill:#2F2E41;}
	.st7{fill:#057D69;}
	.st8{fill:none;stroke:#EFEFF0;stroke-width:4;stroke-miterlimit:10;}
	.st9{fill:none;stroke:#EDEDEE;stroke-width:4;stroke-miterlimit:10;}
	.st10{clip-path:url(#SVGID_00000023977014075118442490000010760597398871454890_);fill:#FFFFFF;}
	.st11{fill:#333333;}
	.st12{clip-path:url(#SVGID_00000073720052059742971760000000004252172767024781_);}
</style>
<rect x="696.2" y="37.1" transform="matrix(0.6338 -0.7735 0.7735 0.6338 104.311 610.7494)" class="st0" width="2" height="316.2"/>
<rect x="538.7" y="194.8" transform="matrix(0.7717 -0.6359 0.6359 0.7717 34.6107 488.0207)" class="st0" width="316.9" height="2"/>
<path class="st0" d="M892.5,0H7.5C3.4,0,0,3.4,0,7.5v457c0,4.1,3.4,7.5,7.5,7.5h885c2.4,0,4.6-1.1,6-3.1c0.4-0.5,0.7-1.1,1-1.7
	c0.3-0.9,0.5-1.8,0.5-2.7V7.5C900,3.4,896.6,0,892.5,0z M897,464.5c0,2.5-2,4.5-4.5,4.5H7.5C5,469,3,467,3,464.5V7.5C3,5,5,3,7.5,3
	h885c2.5,0,4.5,2,4.5,4.5V464.5z"/>
<rect x="3" y="38.3" class="st0" width="897" height="2"/>
<path class="st0" d="M545.6,184.5h-238c-3.9,0-7-3.1-7-7v-79c0-3.9,3.1-7,7-7h238c3.9,0,7,3.1,7,7v79
	C552.6,181.3,549.4,184.5,545.6,184.5z M307.6,93.5c-2.8,0-5,2.2-5,5v79c0,2.8,2.2,5,5,5h238c2.8,0,5-2.2,5-5v-79c0-2.8-2.2-5-5-5
	H307.6z"/>
<path class="st0" d="M817.6,411.5h-238c-3.9,0-7-3.1-7-7v-79c0-3.9,3.1-7,7-7h238c3.9,0,7,3.1,7,7v79
	C824.6,408.3,821.4,411.5,817.6,411.5z"/>
<path class="st0" d="M408.6,297.5h-101c-3.9,0-7-3.1-7-7v-79c0-3.9,3.1-7,7-7h101c3.9,0,7,3.1,7,7v79
	C415.6,294.3,412.4,297.5,408.6,297.5z M307.6,206.5c-2.8,0-5,2.2-5,5v79c0,2.8,2.2,5,5,5h101c2.8,0,5-2.2,5-5v-79c0-2.8-2.2-5-5-5
	H307.6z"/>
<path class="st0" d="M545.6,297.5h-101c-3.9,0-7-3.1-7-7v-79c0-3.9,3.1-7,7-7h101c3.9,0,7,3.1,7,7v79
	C552.6,294.3,549.4,297.5,545.6,297.5z"/>
<path class="st0" d="M545.6,410.5h-101c-3.9,0-7-3.1-7-7v-79c0-3.9,3.1-7,7-7h101c3.9,0,7,3.1,7,7v79
	C552.6,407.3,549.4,410.5,545.6,410.5z M444.6,319.5c-2.8,0-5,2.2-5,5v79c0,2.8,2.2,5,5,5h101c2.8,0,5-2.2,5-5v-79c0-2.8-2.2-5-5-5
	H444.6z"/>
<path class="st1" d="M816.6,298.5h-238c-3.9,0-7-3.1-7-7v-193c0-3.9,3.1-7,7-7h238c3.9,0,7,3.1,7,7v193
	C823.6,295.3,820.4,298.5,816.6,298.5z M578.6,93.5c-2.8,0-5,2.2-5,5v193c0,2.8,2.2,5,5,5h238c2.8,0,5-2.2,5-5v-193c0-2.8-2.2-5-5-5
	H578.6z"/>
<path class="st2" d="M855.6,333.5h-238c-3.9,0-7-3.1-7-7v-193c0-3.9,3.1-7,7-7h238c3.9,0,7,3.1,7,7v193
	C862.6,330.3,859.4,333.5,855.6,333.5z"/>
<path class="st3" d="M684.9,163.5H655l5.8-9.4l0.4-0.7l7.5-12.2c0.5-0.7,1.5-0.9,2.1-0.3l0.1,0.1c0,0.1,0.1,0.1,0.1,0.2L684.9,163.5
	z"/>
<rect x="623.6" y="140.5" class="st1" width="22" height="22"/>
<path class="st2" d="M408.6,411.5h-101c-3.9,0-7-3.1-7-7v-79c0-3.9,3.1-7,7-7h101c3.9,0,7,3.1,7,7v79
	C415.6,408.3,412.4,411.5,408.6,411.5z"/>
<circle class="st3" cx="346.1" cy="333.5" r="7.5"/>
<rect x="314.8" y="326.8" class="st1" width="16" height="16"/>
<path id="f57cf1cd-83f7-4fd3-a8d1-d71a660a6415" class="st0" d="M100.2,182.9c-3.3,0.1-5.9,2.8-5.8,6s2.6,5.8,5.8,5.8h107.1
	c3.3,0,6-2.6,6-5.9c0-3.3-2.6-6-5.8-6c-0.1,0-0.1,0-0.2,0L100.2,182.9L100.2,182.9z"/>
<path id="aee25563-7463-4829-8b3c-d6945ce6dfe7" class="st0" d="M100.2,213.9c-3.3,0.1-5.9,2.8-5.8,6s2.6,5.8,5.8,5.8h107.1
	c3.3,0,6-2.6,6-5.9c0-3.3-2.6-6-5.8-6c-0.1,0-0.1,0-0.2,0L100.2,213.9L100.2,213.9z"/>
<path id="aefa15f9-40e4-4075-8c80-8ab2e97e1ce3" class="st0" d="M100.2,244.9c-3.3,0.1-5.9,2.8-5.8,6s2.6,5.8,5.8,5.8h107.1
	c3.3,0,6-2.6,6-5.9c0-3.3-2.6-6-5.8-6c-0.1,0-0.1,0-0.2,0L100.2,244.9L100.2,244.9z"/>
<path id="a405b459-42e8-4eb5-9988-b9086189387e" class="st0" d="M100.2,275.9c-3.3,0.1-5.9,2.8-5.8,6s2.6,5.8,5.8,5.8h107.1
	c3.3,0,6-2.6,6-5.9s-2.6-6-5.8-6c-0.1,0-0.1,0-0.2,0L100.2,275.9L100.2,275.9z"/>
<path id="b32f5175-a272-4d51-9048-0542c511c928" class="st0" d="M100.2,306.9c-3.3,0.1-5.9,2.8-5.8,6s2.6,5.8,5.8,5.8h107.1
	c3.3,0,6-2.6,6-5.9s-2.6-6-5.8-6c-0.1,0-0.1,0-0.2,0H100.2V306.9z"/>
<path id="b3f78383-4856-4bdc-97c4-b8cb03fde67d" class="st0" d="M100.2,337.9c-3.3,0.1-5.9,2.8-5.8,6s2.6,5.8,5.8,5.8h107.1
	c3.3,0,6-2.6,6-5.9s-2.6-6-5.8-6c-0.1,0-0.1,0-0.2,0H100.2V337.9z"/>
<path class="st0" d="M61.9,199.8c-6.1,0-11-4.9-11-11s4.9-11,11-11s11,4.9,11,11l0,0C72.9,194.9,68,199.8,61.9,199.8z M61.9,179.8
	c-5,0-9,4-9,9s4,9,9,9s9-4,9-9l0,0C70.9,183.9,66.9,179.8,61.9,179.8z"/>
<path class="st0" d="M61.9,230.8c-6.1,0-11-4.9-11-11s4.9-11,11-11s11,4.9,11,11l0,0C72.9,225.9,68,230.8,61.9,230.8z M61.9,210.8
	c-5,0-9,4-9,9s4,9,9,9s9-4,9-9l0,0C70.9,214.9,66.9,210.8,61.9,210.8z"/>
<path class="st0" d="M61.9,261.8c-6.1,0-11-4.9-11-11s4.9-11,11-11s11,4.9,11,11S68,261.8,61.9,261.8z M61.9,241.8c-5,0-9,4-9,9
	s4,9,9,9s9-4,9-9l0,0C70.9,245.8,66.9,241.8,61.9,241.8z"/>
<path class="st0" d="M61.9,292.8c-6.1,0-11-4.9-11-11s4.9-11,11-11s11,4.9,11,11S68,292.8,61.9,292.8z M61.9,272.8c-5,0-9,4-9,9
	s4,9,9,9s9-4,9-9l0,0C70.9,276.8,66.9,272.8,61.9,272.8z"/>
<path class="st0" d="M61.9,323.8c-6.1,0-11-4.9-11-11s4.9-11,11-11s11,4.9,11,11S68,323.8,61.9,323.8z M61.9,303.8c-5,0-9,4-9,9
	s4,9,9,9s9-4,9-9l0,0C70.9,307.8,66.9,303.8,61.9,303.8z"/>
<path class="st0" d="M61.9,354.8c-6.1,0-11-4.9-11-11s4.9-11,11-11s11,4.9,11,11l0,0C72.9,349.9,68,354.8,61.9,354.8z M61.9,334.8
	c-5,0-9,4-9,9s4,9,9,9s9-4,9-9S66.9,334.8,61.9,334.8L61.9,334.8z"/>
<circle class="st2" cx="61.9" cy="188.8" r="5"/>
<circle class="st2" cx="61.9" cy="250.8" r="5"/>
<circle class="st2" cx="61.9" cy="281.8" r="5"/>
<path class="st4" d="M469.6,266.6l1.6,12.2c0.6,4.7,4.9,8,9.6,7.3c0.5-0.1,0.9-0.2,1.4-0.3l0,0c4.5-1.4,7-6.2,5.6-10.7
	c-0.3-0.8-0.6-1.6-1.1-2.3l-7.3-10.6l-14.3-37.9l14.8-19.2l-17.2-7.4l-14.3,25.1L469.6,266.6z"/>
<path class="st5" d="M470.7,198.6l24.6,9.4l6-16.7c1.6-4.6-0.2-9.7-4.5-12.1l0,0c-4.3-2.4-9.7-1.4-12.8,2.5L470.7,198.6z"/>
<path class="st6" d="M441.5,432l32.3,0.8l19-123.9c18,32.8,32.3,76.4,44.8,125.1l28.1-6.4c-7.8-51.8-22.2-98.5-43.8-139.4l1-28.1
	l-44.8-6.9c-1.3,0.6-2.5,1.3-3.6,2.2C449,274.3,445.7,359.2,441.5,432z"/>
<path class="st6" d="M544.9,467.4l10.8-1.3l-1.4-12.9c4.4,8.8,10,12.6,16.7,11.9c3.2-0.4,5.9-2.7,6.9-5.8l0,0
	c0.1-0.3,0.2-0.6,0.2-0.9c0.5-2.6-1-5.1-3.4-5.9c-8.1-3.2-10.3-17.8-12-33.3l-13.3,2.5l0.5,11.3C542.3,443.9,542,454.9,544.9,467.4z
	"/>
<path class="st6" d="M448.4,468.4l10.8-1.3l-1.4-12.9c4.4,8.8,10,12.6,16.7,11.9c3.2-0.4,5.9-2.7,6.9-5.8l0,0
	c0.1-0.3,0.2-0.6,0.2-0.9c0.5-2.6-1-5.1-3.4-5.9c-8.1-3.2-10.3-17.8-12-33.3l-13.3,2.5l0.5,11.3
	C445.7,444.9,445.5,455.9,448.4,468.4z"/>
<circle class="st4" cx="507.8" cy="157.2" r="17.5"/>
<path class="st4" d="M478.5,190.7l23.1-3.9l11.8-19.7l-16.7-10.8C493.5,167.6,487,179.1,478.5,190.7z"/>
<path class="st2" d="M475.6,255l46.7,11.1c3.6-29.2,2.4-54.8-6.2-74.7c-2.7-6.2-8-10.7-14.5-12.4l0,0l-19.7-1l0,0
	c-9.1,4.4-14.1,14.2-12.5,24.1C476.9,221.8,482,240.6,475.6,255z"/>
<path class="st7" d="M512.9,216.6l21.8-14.8l-10.2-14.5c-2.8-4-8.1-5.3-12.5-3.3l0,0c-4.4,2.1-6.7,7.2-5.3,11.9L512.9,216.6z"/>
<path class="st6" d="M503.8,157c6.7-1,12.4-2.7,19.1-3.6c1.7-0.2,3.5-0.6,4.3-2.1c0.7-1.4,0.1-3-0.6-4.4
	c-5.9-10.8-19.5-14.8-30.4-8.9c-3.6,2-6.6,4.9-8.7,8.5c-1.8,3.1-2.8,6.6-5,9.4c-1.5,1.7-3.2,3.2-5,4.5
	c-13.5,11.2-22.2,27.3-24.2,44.8c-0.5,3.2-0.4,6.4,0.2,9.6c0.6,3.2,2.4,6,5,8c3.9,2.7,9.3,2.5,13.6,0.6c8.4-3.6,13.6-12.4,15.1-21.4
	s-0.1-18.2-2.2-27.1c-0.7-3.2-1.5-6.7-0.6-9.8c1.3-4.4,7.4,2.6,11.4,0.2c1.6-1,1.6-11.9,3.5-11.7s3.8,2.1,3,3.9L503.8,157z"/>
<path class="st2" d="M489,165c1-0.7,1.3-2,0.7-3.1l-2.8-4.5c-0.7-1-2-1.3-3.1-0.7c-1,0.7-1.3,2-0.7,3.1l0,0l2.8,4.5
	C486.5,165.4,487.9,165.7,489,165L489,165z"/>
<circle class="st0" cx="27.8" cy="21.7" r="8.5"/>
<circle class="st0" cx="52.4" cy="21.7" r="8.5"/>
<circle class="st0" cx="77.1" cy="21.7" r="8.5"/>
<g>
	<path class="st8" d="M853.2,224.2c-19.4,4.8-19.2-43.5-38.6-44.9c-19.4-0.6-19.6,50-39.1,48.2c-20.1-2.3-18.4-46.7-38.7-43.9
		c-19.4,2.7-19.6,38.3-39.1,36.1c-19.4-1.8-19.2-31.2-38.7-31.8c-19.4-1.4-19.6,30.4-39.1,35.1"/>
</g>
<g>
	<path class="st9" d="M620,263.8c11.7-2.5,11.7,33.6,23.3,34.9c11.7,1.1,11.7-38.6,23.3-38.8c11.7,0,11.7,39.9,23.3,39.3
		c11.7-0.8,11.7-38.5,23.3-37.3c11.7,1.2,11.7,35.3,23.3,33.9c11.7-1.3,11.7-31.3,23.3-30.1c11.7,1.1,11.7,27.4,23.3,26.7
		c11.7-0.6,11.7-24.7,23.3-24.7c11.7-0.2,11.7,24.2,23.3,25.2c11.6,1.4,11.7-26.6,23.3-29.1"/>
</g>
<polyline class="st1" points="858.2,243.3 858.2,243.7 626.2,243.7 626.2,243.3 "/>
<g id="Brain_icon_x2C__Brain_Logo_silhouette">
	<g>
		<g>
			<g>
				<g>
					<defs>
						<rect id="SVGID_1_" x="106" y="60" width="102.1" height="104.7"/>
					</defs>
					<clipPath id="SVGID_00000010273989422473589370000012644509231504795543_">
						<use xlink:href="#SVGID_1_"  style="overflow:visible;"/>
					</clipPath>
					<path style="clip-path:url(#SVGID_00000010273989422473589370000012644509231504795543_);fill:#FFFFFF;" d="M106,141.7V82.9
						c0-12.7,10.3-22.9,22.9-22.9h56.2c12.7,0,22.9,10.3,22.9,22.9v58.8c0,12.7-10.3,22.9-22.9,22.9h-56.2
						C116.2,164.6,106,154.4,106,141.7"/>
				</g>
			</g>
		</g>
		<path class="st11" d="M151.9,77.5c-0.1,0-0.5,0.1-0.9,0.2s-1,0.4-1.4,0.8c-0.7,0.6-1,0.7-2.2,0.7c-1.7,0-3.1,0.7-4.1,1.8
			c-0.4,0.5-0.8,0.7-1.4,0.7c-1,0-2.4,1.3-3.4,3.3c-0.4,0.9-1.3,2.1-1.8,2.7c-1.3,1.5-2,3.4-2.3,6.2c-0.2,1.6-0.5,2.6-0.9,3.6
			c-1,2.1-1.2,3.3-1.1,8.5c0.1,4.2,0.2,4.9,0.6,5.8c0.4,0.8,0.5,1.7,0.6,3.2c0.1,2,0.2,2.2,0.9,3.3c0.4,0.6,0.8,1.4,0.8,1.7
			c0,1.4,1.2,3.4,2.2,3.7c0.2,0.1,0.6,0.6,0.8,1.2c0.8,2.2,2.2,3.3,4.2,3.3c0.6,0,1.1,0.2,1.3,0.4c0.5,0.6,1.6,1.1,2.3,1.1
			c0.5,0,0.7,0.2,1.2,1.3c0.3,0.7,0.9,1.6,1.3,2c1,0.8,2.9,1.3,4.1,0.9c1.1-0.3,2.9-1.9,3.5-3.2c0.6-1.2,0.8-5.1,0.2-7
			c-0.4-1.3-0.4-1.5,0-3.4c0.3-1.8,0.4-2.4,0.1-4.6c-0.2-2.2-0.2-2.7,0.1-3.7c0.5-1.6,0.4-5.4-0.3-7l-0.5-1.2l0.5-1
			c0.7-1.3,0.9-4,0.4-5.2c-0.3-0.7-0.3-1,0-1.6c0.4-1,0.4-3.7,0-5.3c-0.3-1.2-0.3-1.4,0-2.8c0.4-1.8,0.5-5.7,0.1-7.2
			c-0.3-1.3-1.3-2.6-2.2-3C153.4,77.6,152.2,77.4,151.9,77.5L151.9,77.5z M154.2,80.3L155,81l0.1,2.9c0.1,2,0,3.2-0.3,3.9
			c-0.3,1-0.3,1-1.8,1.1c-1.7,0.1-2.3,0.6-2.6,2.1c-0.3,1.8,1.2,3.6,2.2,2.5c0.4-0.5,0.2-0.9-0.4-0.9c-0.4,0-0.5-0.1-0.4-0.9
			s0.2-0.9,0.7-1.1c0.9-0.3,1.9,0.1,2.3,0.8c0.4,0.7,0.4,3.2,0.1,4c-0.2,0.5-0.3,0.6-0.7,0.4c-0.2-0.1-1.3-0.3-2.4-0.3
			c-1.5-0.1-2.1-0.2-2.7-0.7c-0.7-0.5-0.8-0.6-0.8-2.1c0-2.6,1.2-4.3,3.3-4.7c0.9-0.2,1.2-0.5,0.8-1c-0.6-0.8-2.8-0.2-3.9,1
			l-0.8,0.8l-1-0.5c-0.8-0.4-1.1-0.5-1.4-0.3c-0.7,0.5-0.5,1.2,0.3,1.3c1.1,0.1,1.4,0.6,1.4,2.6c0,2.9-0.4,3.7-2.5,4.6l-1,0.5
			l-0.7-0.6c-0.4-0.3-1.1-0.7-1.5-0.9c-0.8-0.3-0.8-0.3-0.6-1.2c0.2-1.1,0.9-2.1,1.8-2.5c0.6-0.3,0.8-0.3,1.7,0.2
			c1.1,0.5,1.6,0.5,1.6-0.2c0-0.5-1.8-1.5-2.7-1.5c-0.6,0-0.7-0.1-0.7-1.1c0-2.4,1.3-4,3.2-4.3c0.8-0.1,1-0.2,1-0.7
			c0.1-0.7-0.7-0.9-1.9-0.6c-1.5,0.4-1.6,0.2-0.4-1.1c0.9-1.1,1.9-1.6,2.8-1.6c1,0,2.9,1,3.5,1.9s1.4,0.8,1.2-0.1
			c-0.1-0.7,0.5-0.8,1.1-0.2c0.4,0.5,1.1,0.3,1.1-0.3c0-0.2-0.3-0.7-0.6-1c-0.5-0.5-0.8-0.6-1.7-0.5c-1.3,0.2-1.9-0.3-1-0.9
			C151.7,79.3,153.3,79.4,154.2,80.3L154.2,80.3z M142.4,84.4c0.2,0.5,0.2,0.7-0.1,1.1c-0.7,0.8-1.1,2.3-1.2,4
			c-0.1,1.3-0.2,1.9-0.7,2.6c-0.3,0.5-0.7,1.5-0.9,2.3c-0.2,1-0.5,1.5-1.3,2.3l-1,1l-0.6-0.5c-0.5-0.5-0.6-0.8-0.6-2
			c0-1.8,0.6-4,1.2-4.8l0.5-0.6l-0.2,1.1c-0.3,1.9-0.2,2.3,0.3,2.3c0.4,0,0.6-0.3,0.9-1.6c0.2-0.9,0.4-2.1,0.4-2.7
			c0-1.3,0.6-2.8,1.7-4C141.8,83.6,142,83.5,142.4,84.4L142.4,84.4z M149.3,96.6c0.3,0.2,1.4,0.4,2.4,0.5c2.6,0.3,3.3,0.9,3.3,2.8
			s-1.1,3.6-2.9,4.3c-1.3,0.6-2,0.5-4-0.6c-1.3-0.7-1.6-0.7-2.1-0.5c-0.9,0.4-0.7,1.1,0.4,1.3c0.5,0.1,1.3,0.4,1.8,0.8
			s1.1,0.7,1.3,0.7c0.3,0,0.4,0.2,0.4,1.3c0,1.8-0.4,2.9-0.9,2.7c-1.1-0.6-2.1-0.5-3.1,0.1c-1.4,1-2.4,3-1.4,3c0.2,0,0.7-0.4,1.2-1
			c0.7-0.7,1.1-1,1.6-1c0.9,0,1.9,0.8,2.1,1.7c0.2,0.9-0.2,2.6-1,3.8c-1,1.5-1,2-0.1,3c0.4,0.5,0.7,1,0.6,1.3
			c-0.2,0.6-1.3,0.9-2.3,0.6s-1.7-1.1-2.1-2.7c-0.2-0.8-0.2-0.9,0.6-1.8c0.7-0.9,0.8-1,0.5-1.3s-0.4-0.3-1.1,0.4
			c-1.5,1.4-2.9,0.8-2.9-1.3c0-2,0.4-2.9,1.4-3.1c0.9-0.2,2.4-1.6,2.4-2.3c0-0.6-0.8-0.4-1.4,0.2c-0.7,0.7-1.2,0.8-2.8,0.1
			c-1.6-0.7-2.2-0.4-3.5,1.3c-1.2,1.6-1.6,1.8-2.3,1.4s-1.6-2-1.6-2.8c0-0.7,0.2-0.8,0.8-0.3c0.3,0.2,0.9,0.4,1.3,0.4
			c2,0,3.8-2.5,3.9-5.5c0.1-1.6-0.6-1.4-1.1,0.2c-0.6,2-1.1,2.9-1.9,3.4c-1,0.6-1.3,0.5-2.2-0.3l-0.8-0.7v-3c0-2.7,0.1-3.2,0.6-4.3
			c0.3-0.7,0.6-1.3,0.7-1.3c0.1,0,0.5,0.3,0.8,0.6c0.7,0.6,0.8,0.7,0.2,3.9c-0.1,0.8-0.1,0.9,0.3,0.9c0.6,0,1.2-1.3,1.4-3.2
			c0.4-3.1,2.1-4,4.2-2.3c1,0.8,1.3,2,1.2,4.2c-0.1,1.6-0.2,1.9-0.9,2.7c-0.8,0.9-1,1.5-0.5,1.8c0.7,0.4,2.4-2.2,2.7-4.2
			c0.2-1.2,1-2.1,1.8-2.1c0.3,0,1.3,0.2,2.1,0.5c2.4,0.8,3.8,0.6,3.6-0.4c-0.1-0.3-0.3-0.4-0.8-0.4c-0.4,0-1.6-0.3-2.8-0.7
			c-2.2-0.8-2.3-0.8-3.9-0.1c-0.3,0.1-0.4,0.1-0.4-0.2c0-0.2,0.5-0.6,1.1-0.9s1.4-1,1.7-1.5c0.5-0.8,0.7-0.9,1-0.6
			C148.6,96.1,149,96.4,149.3,96.6L149.3,96.6z M154.5,106c0.5,1,0.7,3.4,0.5,5c-0.1,1-0.4,1.4-1.1,2.1c-1.1,1.1-1.2,1.8,0,1.7
			l0.7-0.1l0.2,1.8c0.2,1.9-0.1,3.9-0.7,5.1c-0.4,0.9-1.9,1.9-2.9,2.1c-0.8,0.2-2.8,2.1-2.6,2.6c0.2,0.6,1.1,0.5,1.6-0.2
			c0.6-0.8,0.9-0.6,1.2,0.4c0.1,0.5,0.3,0.8,0.7,0.8s0.5-0.2,0.4-1.1c0-1.1,0-1.2,1-1.8l1-0.7l0.2,0.9c0.4,1.3,0.3,3.8-0.1,4.9
			c-0.6,1.5-2.9,2.6-4.3,2c-0.9-0.4-1.6-1.3-2.5-3.3c-0.8-1.9-1.5-2.4-1.8-1.1c-0.1,0.5-0.2,0.6-0.6,0.4c-0.8-0.3-0.9-0.7-0.5-1.3
			c0.5-0.7,0.5-2.2,0-2.2c-0.2,0-0.6,0.3-0.9,0.7c-1.7,2.4-4,1.5-4.7-1.8c-0.1-0.5-0.4-0.8-0.9-1c-0.8-0.4-1.6-1.2-1.6-1.8
			c0-0.2,0.3-0.4,0.6-0.5c1.1-0.3,0.9-1.6-0.3-1.6c-0.8,0-1.7-1.1-2-2.3c-0.4-1.4-0.1-1.9,0.8-1.9c0.8,0,2.1-1.2,3.2-2.8
			c0.4-0.6,0.6-0.7,1.1-0.6l0.6,0.2l-0.3,1.3c-0.8,3.3,0.1,5.9,2.1,5.9c0.6,0,0.7,0.1,0.8,1c0.4,2.4,1.9,3.9,4,3.9
			c1.2,0,1.9-0.3,2.6-1.2c0.8-1,0.7-2-0.2-3c-0.8-0.8-0.8-0.8-0.3-1.4c1.3-2.1,1.8-4.3,1.1-5.9c-0.3-0.6-0.2-0.9,0.2-1.7
			c0.3-0.5,0.6-1.6,0.7-2.4c0.1-1.3,0.2-1.3,1.1-1.6c0.5-0.2,1-0.4,1.1-0.5C153.8,105,154.1,105.2,154.5,106L154.5,106z M160.7,77.6
			c-1.6,0.4-2.8,1.6-3.2,3.2c-0.4,1.4-0.3,6.2,0.1,7.7c0.3,1.2,0.3,1.4,0,2.4c-0.3,0.9-0.4,1.5-0.3,3.4c0.1,1.3,0.1,2.6,0.1,3
			c-0.2,3-0.1,5,0.4,5.9c0.4,0.9,0.4,1,0.1,2c-0.9,2.4-0.9,6.3-0.1,7.9c0.2,0.3,0.2,1,0,2c-0.3,2.2-0.3,4.3,0.1,6
			c0.3,1.3,0.3,1.6,0,2.8c-0.5,1.8-0.5,4.7-0.1,6.3c0.5,1.6,2.4,3.7,3.8,4.1c2.1,0.6,4.2-0.4,5.3-2.6c0.6-1.3,0.8-1.5,1.6-1.6
			c1-0.2,1.7-0.5,2.1-1.1c0.2-0.2,0.7-0.4,1.3-0.4c1.9,0,3.3-1.2,4.1-3.3c0.2-0.6,0.6-1.1,1.1-1.4c1-0.6,1.7-1.7,1.9-3.1
			c0.1-0.6,0.5-1.7,0.9-2.4c0.7-1.1,0.8-1.5,0.8-3.3c0-1.5,0.2-2.3,0.6-3.1c0.5-1,0.5-1.5,0.6-5.5c0.1-5.1-0.1-6.6-1.2-8.9
			c-0.7-1.3-0.8-2-0.8-3.1c0-2.5-1.1-5.4-2.5-6.8c-0.4-0.4-1.1-1.4-1.5-2.2c-1-2-2.5-3.6-3.6-3.6c-0.6,0-0.9-0.2-1.2-0.6
			c-0.2-0.3-0.9-0.9-1.5-1.3c-0.9-0.5-1.4-0.7-2.6-0.7c-1.2,0-1.6-0.1-2.2-0.7C163.5,77.6,162,77.3,160.7,77.6L160.7,77.6z
			 M163.1,79.9c0.6,0.3,0.7,0.5,0.4,0.7c-0.2,0.2-0.6,0.3-1.3,0.2c-1.2-0.2-2.3,0.6-2.3,1.5c0,0.7,0.4,0.8,1.1,0.2
			c0.7-0.5,1.1-0.4,1.1,0.2c0,1,0.5,1,1.3,0.1c2.2-2.6,5.4-2.4,6.8,0.4l0.4,0.7l-0.8-0.2c-1.1-0.3-2.1-0.2-2.4,0.1
			c-0.4,0.4,0.2,1,1.1,1c1.7,0,3.1,1.6,3.3,4l0.1,1.5H171c-1.1,0-2.7,0.9-2.7,1.5c0,0.7,0.5,0.8,1.5,0.2c0.9-0.5,0.9-0.5,1.7-0.1
			c1,0.5,1.6,1.4,1.6,2.6c0,0.7-0.1,0.9-0.5,1c-0.3,0.1-1,0.4-1.5,0.8L170,97l-1.1-0.6c-1.6-0.9-2-1.6-2.2-3.9
			c-0.1-2.4,0.2-3.2,1.4-3.2c0.6,0,0.7-0.1,0.7-0.6c0-1-1.2-1.1-2.2-0.2c-0.4,0.3-0.5,0.3-1.3-0.5c-1.1-1.2-3-1.7-3.9-1.2
			c-0.5,0.4-0.1,1,0.8,1.1c2.1,0.4,3.1,1.7,3.2,4.3c0.1,1.8-0.1,2.2-1.1,2.7c-0.8,0.5-5.1,0.8-5.3,0.4c-0.1-0.2-0.2-1.1-0.2-2
			c0-2.3,0.4-2.9,1.9-2.9c1.1,0,1.5,0.3,1.5,1.3c0,0.5-0.1,0.7-0.5,0.7c-0.7,0.1-0.8,0.9-0.2,1.1c0.3,0.1,0.7,0,1.2-0.3
			c0.5-0.4,0.6-0.7,0.7-1.9c0.1-1.2,0-1.5-0.5-2s-0.8-0.6-2-0.6c-1.3,0-1.4,0-1.7-0.9c-0.3-0.6-0.4-1.7-0.4-3.6c0-2.9,0.3-4,1.4-4.5
			C161,79.5,162.3,79.5,163.1,79.9L163.1,79.9z M173,84.5c1.1,1.3,1.4,2.2,1.9,5c0.5,2.9,0.7,3.6,1.3,3.6c0.3,0,0.4-0.2,0.2-1.7
			c-0.1-1-0.1-1.7,0-1.7s0.3,0.4,0.6,0.9c0.6,1.2,1,3.2,1,4.7c0,1-0.1,1.3-0.6,1.7l-0.6,0.5l-1.1-1.1c-0.8-0.8-1.1-1.3-1.1-1.8
			c0-0.8-1.1-3.2-1.5-3.2c-0.1,0-0.2-0.8-0.2-1.8c0-1.5-0.1-2.1-0.7-3.2C171.1,84.2,171.7,82.9,173,84.5L173,84.5z M166.5,96.4
			c0.3,0.4,1,1.1,1.7,1.5s1.3,0.9,1.3,1c0,0.4-0.2,0.4-1.2-0.1c-0.8-0.4-0.9-0.4-3.1,0.4c-1.3,0.4-2.6,0.7-2.9,0.7
			c-0.4-0.1-0.6,0.1-0.7,0.4c-0.2,1,1.2,1.2,3.6,0.4c0.8-0.3,1.8-0.5,2.2-0.5c0.9,0,1.5,0.9,1.9,2.6c0.4,2.2,2,4.1,2.7,3.4
			c0.1-0.1-0.1-0.6-0.5-1.2c-1.8-2.5-1.4-6.1,0.8-7.5c1.2-0.8,2-0.6,2.8,0.4c0.5,0.7,0.7,1.2,0.8,1.9c0,1.4,0.7,3.4,1.2,3.5
			s0.8-0.7,0.4-1.5c-0.1-0.4-0.2-1.1-0.2-1.7c0-0.9,0.1-1.1,0.7-1.6c0.4-0.3,0.8-0.5,0.8-0.5s0.4,0.6,0.7,1.4
			c0.7,1.9,0.8,6.5,0.1,7.6c-0.9,1.4-2.4,1.5-3.4,0.1c-0.3-0.4-0.7-1.4-1-2.3c-0.7-2.1-1.2-2.3-1.2-0.4c0,0.9,0.2,1.7,0.7,2.7
			c1.1,2.2,2.7,3,4.4,2.1c0.4-0.2,0.8-0.3,0.9-0.2c0.3,0.3-0.5,2.4-1.1,3c-0.9,0.9-1.4,0.7-2.6-1c-0.5-0.7-1.3-1.5-1.6-1.6
			c-0.7-0.3-1.6-0.1-2.4,0.4c-0.7,0.5-1.8,0.4-2.4-0.3c-0.7-0.7-1.3-0.8-1.3-0.2c0,0.6,1.4,2,2.1,2.2c0.3,0.1,0.8,0.2,0.9,0.2
			c0.3,0.1,0.8,2,0.8,3.1c0,1.9-1.5,2.5-3,1.2c-0.7-0.6-0.9-0.7-1.1-0.4c-0.2,0.3-0.1,0.5,0.5,1.3c0.8,0.9,0.8,0.9,0.5,2.1
			c-0.4,1.5-1.4,2.5-2.7,2.5c-0.7,0-1.1-0.1-1.5-0.4l-0.5-0.5l0.7-0.8c1.1-1.2,1.1-1.5,0.2-3.2c-0.5-0.9-0.9-2.1-1-2.8
			c-0.1-1.1-0.1-1.3,0.5-2c0.9-1.2,1.9-1.1,3.1,0.2c1.1,1.1,1.6,1.3,1.6,0.4c0-0.8-1.8-2.8-2.6-3c-0.4-0.1-1.1,0-1.7,0.2l-1,0.4
			l-0.2-0.8c-0.3-1.1-0.5-2.8-0.3-3c0.3-0.4,3.2-1.8,3.8-1.8c0.5,0,0.6-0.1,0.6-0.5c-0.2-1-0.8-1.1-2.4-0.3
			c-1.5,0.8-2.1,0.9-3.5,0.9c-0.9-0.1-2.6-1.5-3.1-2.7c-0.4-1-0.4-2.9-0.1-3.6c0.4-0.7,1.7-1.2,3.1-1.2c1.3,0,2.6-0.4,3.1-1.1
			C165.9,95.4,166,95.5,166.5,96.4L166.5,96.4z M161.3,105.9c0.3,0.2,0.7,0.3,0.9,0.3s0.3,0.6,0.4,1.5c0.1,0.8,0.3,1.9,0.6,2.3
			c0.5,0.8,0.5,0.9,0.1,1.8c-0.6,1.5-0.1,3.9,1.4,6c0.2,0.4,0.2,0.5-0.3,0.9c-2,1.6-0.6,4.5,2.2,4.5c1.9,0,3.6-1.7,4-4
			c0.1-0.7,0.3-0.9,0.6-0.9c0.9,0,1.7-0.6,2.2-1.5c0.5-1.1,0.6-2.3,0.1-4.2c-0.3-1-0.3-1.4-0.1-1.5c0.7-0.4,1-0.2,2.1,1.4
			c0.9,1.3,1.8,1.9,2.8,1.9c0.6,0,0.6,0,0.5,1.4c-0.1,1.6-1,2.8-2.2,2.9c-0.6,0.1-0.8,0.2-0.8,0.6c-0.1,0.4,0.1,0.6,0.7,0.8
			c0.6,0.2,0.7,0.4,0.6,0.8c-0.2,0.8-0.8,1.3-1.6,1.5c-0.5,0.1-0.7,0.3-0.8,0.8c-0.5,2.4-1.3,3.4-2.7,3.4c-0.7,0-1-0.2-1.8-1.1
			c-0.6-0.7-1-1-1.3-0.9c-0.5,0.2-0.5,0.6,0.1,1.8c0.3,0.5,0.5,1,0.5,1s-0.3,0.2-0.7,0.4c-0.7,0.4-0.7,0.4-0.7-0.1
			c0-0.5-0.4-1-0.8-1c-0.1,0-0.6,0.9-1.1,2c-1.2,2.6-1.9,3.3-3.3,3.2c-1.2,0-3.1-1-3.4-1.8c-0.4-1.2-0.6-2.8-0.3-4.3
			c0.1-0.9,0.3-1.6,0.4-1.7c0.1-0.1,0.6,0.1,1.1,0.5c1,0.6,1,0.7,1,1.8c0,0.8,0.1,1.1,0.4,1.2c0.3,0.1,0.5-0.2,0.7-0.8
			c0.4-1.2,0.7-1.3,1.2-0.5c0.6,0.8,1.4,0.9,1.4,0.1s-1.3-2-2.9-2.6c-2.7-1-3.7-3.5-3.2-7.7c0.2-1.1,0.2-1.2,0.9-1.1
			c1.1,0.1,1.1-0.7,0.1-1.6c-0.5-0.4-1-1.1-1.1-1.5c-0.4-1.2-0.4-3.4-0.1-4.7C159.6,105.2,159.8,105.1,161.3,105.9L161.3,105.9z"/>
		<g>
			<g>
				<g>
					<defs>
						<rect id="SVGID_00000005242014693058786160000010986930705730883231_" x="133.9" y="141" width="46.2" height="6.3"/>
					</defs>
					<clipPath id="SVGID_00000114753492723774827130000005925599907882680468_">
						<use xlink:href="#SVGID_00000005242014693058786160000010986930705730883231_"  style="overflow:visible;"/>
					</clipPath>
					<g style="clip-path:url(#SVGID_00000114753492723774827130000005925599907882680468_);">
						
							<image style="overflow:visible;enable-background:new    ;" width="1513" height="204" xlink:href="AD99FCBB03585CC4.jpg"  transform="matrix(3.053874e-02 0 0 3.132109e-02 133.9295 140.9102)">
						</image>
					</g>
				</g>
			</g>
		</g>
	</g>
</g>
<g>
	<path class="st8" d="M308.6,360.4c9.9-4.2,9.9,33.1,19.8,33.6c9.9-0.3,9.9-37.6,19.8-35.4c9.9,2.4,9.9,32.4,19.8,30
		c9.9-2.1,9.9-24.8,19.8-24.6c9.9-0.5,9.9,22.1,19.8,26.4"/>
</g>
<path class="st4" d="M576.8,246.7l10.9,5.6c4.2,2.2,9.3,0.5,11.5-3.7c0.2-0.4,0.4-0.9,0.5-1.3l0,0c1.4-4.5-1-9.3-5.5-10.7
	c-0.8-0.3-1.7-0.4-2.5-0.4l-12.9-0.1l-39.3-10l-7.3-23.1l-15.9,9.9l12.4,26.1L576.8,246.7z"/>
</svg>
