<?xml version="1.0" encoding="utf-8"?>
<svg viewBox="0 0 956.6 472.5" style="enable-background:new 0 0 956.6 472.5;" xmlns="http://www.w3.org/2000/svg" xmlns:xlink="http://www.w3.org/1999/xlink">
  <defs>
    <style type="text/css">
	.st0{fill:#E6E6E6;}
	.st1{fill:#3F3D56;}
	.st2{fill:#059669;}
	.st3{fill:#FFFFFF;}
	.st4{fill:#C68F64;}
	.st5{fill:#A78BFA;}
	.st6{fill:#2F2E41;}
	.st7{fill:#057D69;}
	.st8{fill:none;stroke:#EFEFF0;stroke-width:4;stroke-miterlimit:10;}
	.st9{fill:none;stroke:#EDEDEE;stroke-width:4;stroke-miterlimit:10;}
	.st10{clip-path:url(#SVGID_00000078034595402128512130000017570995480170953910_);fill:#FFFFFF;}
	.st11{fill:#333333;}
	.st12{clip-path:url(#SVGID_00000075133864409887827290000017130773828230250932_);}
</style>
  </defs>
  <path class="st0" d="M 921.5 0 L 36.5 0 C 32.4 0 29 3.4 29 7.5 L 29 464.5 C 29 468.6 32.4 472 36.5 472 L 921.5 472 C 923.9 472 926.1 470.9 927.5 468.9 C 927.9 468.4 928.2 467.8 928.5 467.2 C 928.8 466.3 929 465.4 929 464.5 L 929 7.5 C 929 3.4 925.6 0 921.5 0 Z M 926 464.5 C 926 467 924 469 921.5 469 L 36.5 469 C 34 469 32 467 32 464.5 L 32 7.5 C 32 5 34 3 36.5 3 L 921.5 3 C 924 3 926 5 926 7.5 L 926 464.5 Z"/>
  <rect x="32" y="38.3" class="st0" width="897" height="2"/>
  <path class="st0" d="M 574.6 184.5 L 336.6 184.5 C 332.7 184.5 329.6 181.4 329.6 177.5 L 329.6 98.5 C 329.6 94.6 332.7 91.5 336.6 91.5 L 574.6 91.5 C 578.5 91.5 581.6 94.6 581.6 98.5 L 581.6 177.5 C 581.6 181.3 578.4 184.5 574.6 184.5 Z M 336.6 93.5 C 333.8 93.5 331.6 95.7 331.6 98.5 L 331.6 177.5 C 331.6 180.3 333.8 182.5 336.6 182.5 L 574.6 182.5 C 577.4 182.5 579.6 180.3 579.6 177.5 L 579.6 98.5 C 579.6 95.7 577.4 93.5 574.6 93.5 L 336.6 93.5 Z"/>
  <path class="st0" d="M 574.6 297.5 L 473.6 297.5 C 469.7 297.5 466.6 294.4 466.6 290.5 L 466.6 211.5 C 466.6 207.6 469.7 204.5 473.6 204.5 L 574.6 204.5 C 578.5 204.5 581.6 207.6 581.6 211.5 L 581.6 290.5 C 581.6 294.3 578.4 297.5 574.6 297.5 Z"/>
  <path class="st0" d="M 574.6 410.5 L 473.6 410.5 C 469.7 410.5 466.6 407.4 466.6 403.5 L 466.6 324.5 C 466.6 320.6 469.7 317.5 473.6 317.5 L 574.6 317.5 C 578.5 317.5 581.6 320.6 581.6 324.5 L 581.6 403.5 C 581.6 407.3 578.4 410.5 574.6 410.5 Z M 473.6 319.5 C 470.8 319.5 468.6 321.7 468.6 324.5 L 468.6 403.5 C 468.6 406.3 470.8 408.5 473.6 408.5 L 574.6 408.5 C 577.4 408.5 579.6 406.3 579.6 403.5 L 579.6 324.5 C 579.6 321.7 577.4 319.5 574.6 319.5 L 473.6 319.5 Z"/>
  <path class="st1" d="M 845.6 298.5 L 607.6 298.5 C 603.7 298.5 600.6 295.4 600.6 291.5 L 600.6 98.5 C 600.6 94.6 603.7 91.5 607.6 91.5 L 845.6 91.5 C 849.5 91.5 852.6 94.6 852.6 98.5 L 852.6 291.5 C 852.6 295.3 849.4 298.5 845.6 298.5 Z M 607.6 93.5 C 604.8 93.5 602.6 95.7 602.6 98.5 L 602.6 291.5 C 602.6 294.3 604.8 296.5 607.6 296.5 L 845.6 296.5 C 848.4 296.5 850.6 294.3 850.6 291.5 L 850.6 98.5 C 850.6 95.7 848.4 93.5 845.6 93.5 L 607.6 93.5 Z"/>
  <path class="st2" d="M 884.6 333.5 L 646.6 333.5 C 642.7 333.5 639.6 330.4 639.6 326.5 L 639.6 133.5 C 639.6 129.6 642.7 126.5 646.6 126.5 L 884.6 126.5 C 888.5 126.5 891.6 129.6 891.6 133.5 L 891.6 326.5 C 891.6 330.3 888.4 333.5 884.6 333.5 Z"/>
  <path class="st3" d="M 713.9 163.5 L 684 163.5 L 689.8 154.1 L 690.2 153.4 L 697.7 141.2 C 698.2 140.5 699.2 140.3 699.8 140.9 L 699.9 141 C 699.9 141.1 700 141.1 700 141.2 L 713.9 163.5 Z"/>
  <rect x="652.6" y="140.5" class="st1" width="22" height="22"/>
  <path class="st2" d="M 437.6 411.5 L 336.6 411.5 C 332.7 411.5 329.6 408.4 329.6 404.5 L 329.6 325.5 C 329.6 321.6 332.7 318.5 336.6 318.5 L 437.6 318.5 C 441.5 318.5 444.6 321.6 444.6 325.5 L 444.6 404.5 C 444.6 408.3 441.4 411.5 437.6 411.5 Z"/>
  <circle class="st3" cx="375.1" cy="333.5" r="7.5"/>
  <rect x="343.8" y="326.8" class="st1" width="16" height="16"/>
  <path id="f57cf1cd-83f7-4fd3-a8d1-d71a660a6415" class="st0" d="M 129.2 220.9 C 125.9 221 123.3 223.7 123.4 226.9 C 123.5 230.1 126 232.7 129.2 232.7 L 236.3 232.7 C 239.6 232.7 242.3 230.1 242.3 226.8 C 242.3 223.5 239.7 220.8 236.5 220.8 C 236.4 220.8 236.4 220.8 236.3 220.8 L 129.2 220.9 L 129.2 220.9 Z"/>
  <path id="aee25563-7463-4829-8b3c-d6945ce6dfe7" class="st0" d="M 129.2 251.9 C 125.9 252 123.3 254.7 123.4 257.9 C 123.5 261.1 126 263.7 129.2 263.7 L 236.3 263.7 C 239.6 263.7 242.3 261.1 242.3 257.8 C 242.3 254.5 239.7 251.8 236.5 251.8 C 236.4 251.8 236.4 251.8 236.3 251.8 L 129.2 251.9 L 129.2 251.9 Z"/>
  <path id="aefa15f9-40e4-4075-8c80-8ab2e97e1ce3" class="st0" d="M 129.2 282.9 C 125.9 283 123.3 285.7 123.4 288.9 C 123.5 292.1 126 294.7 129.2 294.7 L 236.3 294.7 C 239.6 294.7 242.3 292.1 242.3 288.8 C 242.3 285.5 239.7 282.8 236.5 282.8 C 236.4 282.8 236.4 282.8 236.3 282.8 L 129.2 282.9 L 129.2 282.9 Z"/>
  <path id="a405b459-42e8-4eb5-9988-b9086189387e" class="st0" d="M 129.2 313.9 C 125.9 314 123.3 316.7 123.4 319.9 C 123.5 323.1 126 325.7 129.2 325.7 L 236.3 325.7 C 239.6 325.7 242.3 323.1 242.3 319.8 C 242.3 316.5 239.7 313.8 236.5 313.8 C 236.4 313.8 236.4 313.8 236.3 313.8 L 129.2 313.9 L 129.2 313.9 Z"/>
  <path id="b32f5175-a272-4d51-9048-0542c511c928" class="st0" d="M 129.2 344.9 C 125.9 345 123.3 347.7 123.4 350.9 C 123.5 354.1 126 356.7 129.2 356.7 L 236.3 356.7 C 239.6 356.7 242.3 354.1 242.3 350.8 C 242.3 347.5 239.7 344.8 236.5 344.8 C 236.4 344.8 236.4 344.8 236.3 344.8 L 129.2 344.8 L 129.2 344.9 Z"/>
  <path id="b3f78383-4856-4bdc-97c4-b8cb03fde67d" class="st0" d="M 129.2 375.9 C 125.9 376 123.3 378.7 123.4 381.9 C 123.5 385.1 126 387.7 129.2 387.7 L 236.3 387.7 C 239.6 387.7 242.3 385.1 242.3 381.8 C 242.3 378.5 239.7 375.8 236.5 375.8 C 236.4 375.8 236.4 375.8 236.3 375.8 L 129.2 375.8 L 129.2 375.9 Z"/>
  <path class="st0" d="M 90.9 237.8 C 84.8 237.8 79.9 232.9 79.9 226.8 C 79.9 220.7 84.8 215.8 90.9 215.8 C 97 215.8 101.9 220.7 101.9 226.8 L 101.9 226.8 C 101.9 232.9 97 237.8 90.9 237.8 Z M 90.9 217.8 C 85.9 217.8 81.9 221.8 81.9 226.8 C 81.9 231.8 85.9 235.8 90.9 235.8 C 95.9 235.8 99.9 231.8 99.9 226.8 L 99.9 226.8 C 99.9 221.9 95.9 217.8 90.9 217.8 Z"/>
  <path class="st0" d="M 90.9 268.8 C 84.8 268.8 79.9 263.9 79.9 257.8 C 79.9 251.7 84.8 246.8 90.9 246.8 C 97 246.8 101.9 251.7 101.9 257.8 L 101.9 257.8 C 101.9 263.9 97 268.8 90.9 268.8 Z M 90.9 248.8 C 85.9 248.8 81.9 252.8 81.9 257.8 C 81.9 262.8 85.9 266.8 90.9 266.8 C 95.9 266.8 99.9 262.8 99.9 257.8 L 99.9 257.8 C 99.9 252.9 95.9 248.8 90.9 248.8 Z"/>
  <path class="st0" d="M 90.9 299.8 C 84.8 299.8 79.9 294.9 79.9 288.8 C 79.9 282.7 84.8 277.8 90.9 277.8 C 97 277.8 101.9 282.7 101.9 288.8 C 101.9 294.9 97 299.8 90.9 299.8 Z M 90.9 279.8 C 85.9 279.8 81.9 283.8 81.9 288.8 C 81.9 293.8 85.9 297.8 90.9 297.8 C 95.9 297.8 99.9 293.8 99.9 288.8 L 99.9 288.8 C 99.9 283.8 95.9 279.8 90.9 279.8 Z"/>
  <path class="st0" d="M 90.9 330.8 C 84.8 330.8 79.9 325.9 79.9 319.8 C 79.9 313.7 84.8 308.8 90.9 308.8 C 97 308.8 101.9 313.7 101.9 319.8 C 101.9 325.9 97 330.8 90.9 330.8 Z M 90.9 310.8 C 85.9 310.8 81.9 314.8 81.9 319.8 C 81.9 324.8 85.9 328.8 90.9 328.8 C 95.9 328.8 99.9 324.8 99.9 319.8 L 99.9 319.8 C 99.9 314.8 95.9 310.8 90.9 310.8 Z"/>
  <path class="st0" d="M 90.9 361.8 C 84.8 361.8 79.9 356.9 79.9 350.8 C 79.9 344.7 84.8 339.8 90.9 339.8 C 97 339.8 101.9 344.7 101.9 350.8 C 101.9 356.9 97 361.8 90.9 361.8 Z M 90.9 341.8 C 85.9 341.8 81.9 345.8 81.9 350.8 C 81.9 355.8 85.9 359.8 90.9 359.8 C 95.9 359.8 99.9 355.8 99.9 350.8 L 99.9 350.8 C 99.9 345.8 95.9 341.8 90.9 341.8 Z"/>
  <path class="st0" d="M 90.9 392.8 C 84.8 392.8 79.9 387.9 79.9 381.8 C 79.9 375.7 84.8 370.8 90.9 370.8 C 97 370.8 101.9 375.7 101.9 381.8 L 101.9 381.8 C 101.9 387.9 97 392.8 90.9 392.8 Z M 90.9 372.8 C 85.9 372.8 81.9 376.8 81.9 381.8 C 81.9 386.8 85.9 390.8 90.9 390.8 C 95.9 390.8 99.9 386.8 99.9 381.8 C 99.9 376.8 95.9 372.8 90.9 372.8 L 90.9 372.8 Z"/>
  <circle class="st2" cx="90.9" cy="226.8" r="5"/>
  <circle class="st2" cx="90.9" cy="288.8" r="5"/>
  <circle class="st2" cx="90.9" cy="319.8" r="5"/>
  <path class="st4" d="M 498.6 266.6 L 500.2 278.8 C 500.8 283.5 505.1 286.8 509.8 286.1 C 510.3 286 510.7 285.9 511.2 285.8 L 511.2 285.8 C 515.7 284.4 518.2 279.6 516.8 275.1 C 516.5 274.3 516.2 273.5 515.7 272.8 L 508.4 262.2 L 494.1 224.3 L 508.9 205.1 L 491.7 197.7 L 477.4 222.8 L 498.6 266.6 Z"/>
  <path class="st5" d="M 499.7 198.6 L 524.3 208 L 530.3 191.3 C 531.9 186.7 530.1 181.6 525.8 179.2 L 525.8 179.2 C 521.5 176.8 516.1 177.8 513 181.7 L 499.7 198.6 Z"/>
  <path class="st6" d="M 470.5 432 L 502.8 432.8 L 521.8 308.9 C 539.8 341.7 554.1 385.3 566.6 434 L 594.7 427.6 C 586.9 375.8 572.5 329.1 550.9 288.2 L 551.9 260.1 L 507.1 253.2 C 505.8 253.8 504.6 254.5 503.5 255.4 C 478 274.3 474.7 359.2 470.5 432 Z"/>
  <path class="st6" d="M 573.9 467.4 L 584.7 466.1 L 583.3 453.2 C 587.7 462 593.3 465.8 600 465.1 C 603.2 464.7 605.9 462.4 606.9 459.3 L 606.9 459.3 C 607 459 607.1 458.7 607.1 458.4 C 607.6 455.8 606.1 453.3 603.7 452.5 C 595.6 449.3 593.4 434.7 591.7 419.2 L 578.4 421.7 L 578.9 433 C 571.3 443.9 571 454.9 573.9 467.4 Z"/>
  <path class="st6" d="M 477.4 468.4 L 488.2 467.1 L 486.8 454.2 C 491.2 463 496.8 466.8 503.5 466.1 C 506.7 465.7 509.4 463.4 510.4 460.3 L 510.4 460.3 C 510.5 460 510.6 459.7 510.6 459.4 C 511.1 456.8 509.6 454.3 507.2 453.5 C 499.1 450.3 496.9 435.7 495.2 420.2 L 481.9 422.7 L 482.4 434 C 474.7 444.9 474.5 455.9 477.4 468.4 Z"/>
  <circle class="st4" cx="536.8" cy="157.2" r="17.5"/>
  <path class="st4" d="M 507.5 190.7 L 530.6 186.8 L 542.4 167.1 L 525.7 156.3 C 522.5 167.6 516 179.1 507.5 190.7 Z"/>
  <path class="st2" d="M 504.6 255 L 551.3 266.1 C 554.9 236.9 553.7 211.3 545.1 191.4 C 542.4 185.2 537.1 180.7 530.6 179 L 530.6 179 L 510.9 178 L 510.9 178 C 501.8 182.4 496.8 192.2 498.4 202.1 C 505.9 221.8 511 240.6 504.6 255 Z"/>
  <path class="st7" d="M 541.9 216.6 L 563.7 201.8 L 553.5 187.3 C 550.7 183.3 545.4 182 541 184 L 541 184 C 536.6 186.1 534.3 191.2 535.7 195.9 L 541.9 216.6 Z"/>
  <path class="st6" d="M 532.8 157 C 539.5 156 545.2 154.3 551.9 153.4 C 553.6 153.2 555.4 152.8 556.2 151.3 C 556.9 149.9 556.3 148.3 555.6 146.9 C 549.7 136.1 536.1 132.1 525.2 138 C 521.6 140 518.6 142.9 516.5 146.5 C 514.7 149.6 513.7 153.1 511.5 155.9 C 510 157.6 508.3 159.1 506.5 160.4 C 493 171.6 484.3 187.7 482.3 205.2 C 481.8 208.4 481.9 211.6 482.5 214.8 C 483.1 218 484.9 220.8 487.5 222.8 C 491.4 225.5 496.8 225.3 501.1 223.4 C 509.5 219.8 514.7 211 516.2 202 C 517.7 193 516.1 183.8 514 174.9 C 513.3 171.7 512.5 168.2 513.4 165.1 C 514.7 160.7 520.8 167.7 524.8 165.3 C 526.4 164.3 526.4 153.4 528.3 153.6 C 530.2 153.8 532.1 155.7 531.3 157.5 L 532.8 157 Z"/>
  <path class="st2" d="M 518 165 C 519 164.3 519.3 163 518.7 161.9 L 515.9 157.4 C 515.2 156.4 513.9 156.1 512.8 156.7 C 511.8 157.4 511.5 158.7 512.1 159.8 L 512.1 159.8 L 514.9 164.3 C 515.5 165.4 516.9 165.7 518 165 L 518 165 Z"/>
  <circle class="st0" cx="56.8" cy="21.7" r="8.5"/>
  <circle class="st0" cx="81.4" cy="21.7" r="8.5"/>
  <circle class="st0" cx="106.1" cy="21.7" r="8.5"/>
  <g transform="matrix(1, 0, 0, 1, 29, 0)">
    <path class="st8" d="M853.2,224.2c-19.4,4.8-19.2-43.5-38.6-44.9c-19.4-0.6-19.6,50-39.1,48.2c-20.1-2.3-18.4-46.7-38.7-43.9 c-19.4,2.7-19.6,38.3-39.1,36.1c-19.4-1.8-19.2-31.2-38.7-31.8c-19.4-1.4-19.6,30.4-39.1,35.1"/>
  </g>
  <g transform="matrix(1, 0, 0, 1, 29, 0)">
    <path class="st9" d="M620,263.8c11.7-2.5,11.7,33.6,23.3,34.9c11.7,1.1,11.7-38.6,23.3-38.8c11.7,0,11.7,39.9,23.3,39.3 c11.7-0.8,11.7-38.5,23.3-37.3c11.7,1.2,11.7,35.3,23.3,33.9c11.7-1.3,11.7-31.3,23.3-30.1c11.7,1.1,11.7,27.4,23.3,26.7 c11.7-0.6,11.7-24.7,23.3-24.7c11.7-0.2,11.7,24.2,23.3,25.2c11.6,1.4,11.7-26.6,23.3-29.1"/>
  </g>
  <polyline class="st1" points="875.172 243.3 875.172 243.621 655.2 243.621 655.2 243.3" style=""/>
  <g id="Brain_icon_x2C__Brain_Logo_silhouette" style="" transform="matrix(1.097063, 0, 0, 1.097063, 11.215509, -2.809628)">
    <g transform="matrix(1, 0, 0, 1, -0.373958, -11.591987)">
      <g>
        <g>
          <g>
            <defs>
              <rect id="SVGID_1_" x="95" y="70" width="122.1" height="125.2"/>
            </defs>
            <clipPath id="SVGID_00000070806519180058888060000008160179527024912028_">
              <rect x="95" y="70" width="122.1" height="125.2" transform="matrix(1, 0, 0, 1, 0, 0)" style="overflow: visible;"/>
            </clipPath>
            <path style="clip-path:url(#SVGID_00000070806519180058888060000008160179527024912028_);fill:#FFFFFF;" d="M95,167.7V97.3 C95,82.2,107.3,70,122.3,70h67.2c15.2,0,27.4,12.3,27.4,27.4v70.3c0,15.2-12.3,27.4-27.4,27.4h-67.2 C107.2,195,95,182.8,95,167.7"/>
          </g>
        </g>
      </g>
      <path class="st11" d="M149.8,90.9c-0.1,0-0.6,0.1-1.1,0.2c-0.5,0.1-1.2,0.5-1.7,1c-0.8,0.7-1.2,0.8-2.6,0.8c-2,0-3.7,0.8-4.9,2.2 c-0.5,0.6-1,0.8-1.7,0.8c-1.2,0-2.9,1.6-4.1,3.9c-0.5,1.1-1.6,2.5-2.2,3.2c-1.6,1.8-2.4,4.1-2.8,7.4c-0.2,1.9-0.6,3.1-1.1,4.3 c-1.2,2.5-1.4,3.9-1.3,10.2c0.1,5,0.2,5.9,0.7,6.9c0.5,1,0.6,2,0.7,3.8c0.1,2.4,0.2,2.6,1.1,3.9c0.5,0.7,1,1.7,1,2 c0,1.7,1.4,4.1,2.6,4.4c0.2,0.1,0.7,0.7,1,1.4c1,2.6,2.6,3.9,5,3.9c0.7,0,1.3,0.2,1.6,0.5c0.6,0.7,1.9,1.3,2.8,1.3 c0.6,0,0.8,0.2,1.4,1.6c0.4,0.8,1.1,1.9,1.6,2.4c1.2,1,3.5,1.6,4.9,1.1c1.3-0.4,3.5-2.3,4.2-3.8c0.7-1.4,1-6.1,0.2-8.4 c-0.5-1.6-0.5-1.8,0-4.1c0.4-2.2,0.5-2.9,0.1-5.5c-0.2-2.6-0.2-3.2,0.1-4.4c0.6-1.9,0.5-6.5-0.4-8.4l-0.6-1.4l0.6-1.2 c0.8-1.6,1.1-4.8,0.5-6.2c-0.4-0.8-0.4-1.2,0-1.9c0.5-1.2,0.5-4.4,0-6.3c-0.4-1.4-0.4-1.7,0-3.3c0.5-2.2,0.6-6.8,0.1-8.6 c-0.4-1.6-1.6-3.1-2.6-3.6C151.6,91,150.2,90.8,149.8,90.9L149.8,90.9z M152.6,94.2l1,0.8l0.1,3.5c0.1,2.4,0,3.8-0.4,4.7 c-0.4,1.2-0.4,1.2-2.2,1.3c-2,0.1-2.8,0.7-3.1,2.5c-0.4,2.2,1.4,4.3,2.6,3c0.5-0.6,0.2-1.1-0.5-1.1c-0.5,0-0.6-0.1-0.5-1.1 s0.2-1.1,0.8-1.3c1.1-0.4,2.3,0.1,2.8,1c0.5,0.8,0.5,3.8,0.1,4.8c-0.2,0.6-0.4,0.7-0.8,0.5c-0.2-0.1-1.6-0.4-2.9-0.4 c-1.8-0.1-2.5-0.2-3.2-0.8c-0.8-0.6-1-0.7-1-2.5c0-3.1,1.4-5.1,3.9-5.6c1.1-0.2,1.4-0.6,1-1.2c-0.7-1-3.3-0.2-4.7,1.2l-1,1 l-1.2-0.6c-1-0.5-1.3-0.6-1.7-0.4c-0.8,0.6-0.6,1.4,0.4,1.6c1.3,0.1,1.7,0.7,1.7,3.1c0,3.5-0.5,4.4-3,5.5l-1.2,0.6l-0.8-0.7 c-0.5-0.4-1.3-0.8-1.8-1.1c-1-0.4-1-0.4-0.7-1.4c0.2-1.3,1.1-2.5,2.2-3c0.7-0.4,1-0.4,2,0.2c1.3,0.6,1.9,0.6,1.9-0.2 c0-0.6-2.2-1.8-3.2-1.8c-0.7,0-0.8-0.1-0.8-1.3c0-2.9,1.6-4.8,3.8-5.1c1-0.1,1.2-0.2,1.2-0.8c0.1-0.8-0.8-1.1-2.3-0.7 c-1.8,0.5-1.9,0.2-0.5-1.3c1.1-1.3,2.3-1.9,3.3-1.9c1.2,0,3.5,1.2,4.2,2.3s1.7,1,1.4-0.1c-0.1-0.8,0.6-1,1.3-0.2 c0.5,0.6,1.3,0.4,1.3-0.4c0-0.2-0.4-0.8-0.7-1.2c-0.6-0.6-1-0.7-2-0.6c-1.6,0.2-2.3-0.4-1.2-1.1C149.6,93,151.5,93.2,152.6,94.2 L152.6,94.2z M138.5,99.1c0.2,0.6,0.2,0.8-0.1,1.3c-0.8,1-1.3,2.8-1.4,4.8c-0.1,1.6-0.2,2.3-0.8,3.1c-0.4,0.6-0.8,1.8-1.1,2.8 c-0.2,1.2-0.6,1.8-1.6,2.8l-1.2,1.2l-0.7-0.6c-0.6-0.6-0.7-1-0.7-2.4c0-2.2,0.7-4.8,1.4-5.7l0.6-0.7l-0.2,1.3 c-0.4,2.3-0.2,2.8,0.4,2.8c0.5,0,0.7-0.4,1.1-1.9c0.2-1.1,0.5-2.5,0.5-3.2c0-1.6,0.7-3.3,2-4.8C137.8,98.2,138,98.1,138.5,99.1 L138.5,99.1z M146.7,113.7c0.4,0.2,1.7,0.5,2.9,0.6c3.1,0.4,3.9,1.1,3.9,3.3s-1.3,4.3-3.5,5.1c-1.6,0.7-2.4,0.6-4.8-0.7 c-1.6-0.8-1.9-0.8-2.5-0.6c-1.1,0.5-0.8,1.3,0.5,1.6c0.6,0.1,1.6,0.5,2.2,1s1.3,0.8,1.6,0.8c0.4,0,0.5,0.2,0.5,1.6 c0,2.2-0.5,3.5-1.1,3.2c-1.3-0.7-2.5-0.6-3.7,0.1c-1.7,1.2-2.9,3.6-1.7,3.6c0.2,0,0.8-0.5,1.4-1.2c0.8-0.8,1.3-1.2,1.9-1.2 c1.1,0,2.3,1,2.5,2c0.2,1.1-0.2,3.1-1.2,4.5c-1.2,1.8-1.2,2.4-0.1,3.6c0.5,0.6,0.8,1.2,0.7,1.6c-0.2,0.7-1.6,1.1-2.8,0.7 c-1.2-0.4-2-1.3-2.5-3.2c-0.2-1-0.2-1.1,0.7-2.2c0.8-1.1,1-1.2,0.6-1.6c-0.4-0.4-0.5-0.4-1.3,0.5c-1.8,1.7-3.5,1-3.5-1.6 c0-2.4,0.5-3.5,1.7-3.7c1.1-0.2,2.9-1.9,2.9-2.8c0-0.7-1-0.5-1.7,0.2c-0.8,0.8-1.4,1-3.3,0.1c-1.9-0.8-2.6-0.5-4.2,1.6 c-1.4,1.9-1.9,2.2-2.8,1.7c-0.8-0.5-1.9-2.4-1.9-3.3c0-0.8,0.2-1,1-0.4c0.4,0.2,1.1,0.5,1.6,0.5c2.4,0,4.5-3,4.7-6.6 c0.1-1.9-0.7-1.7-1.3,0.2c-0.7,2.4-1.3,3.5-2.3,4.1c-1.2,0.7-1.6,0.6-2.6-0.4l-1-0.8v-3.6c0-3.2,0.1-3.8,0.7-5.1 c0.4-0.8,0.7-1.6,0.8-1.6c0.1,0,0.6,0.4,1,0.7c0.8,0.7,1,0.8,0.2,4.7c-0.1,1-0.1,1.1,0.4,1.1c0.7,0,1.4-1.6,1.7-3.8 c0.5-3.7,2.5-4.8,5-2.8c1.2,1,1.6,2.4,1.4,5c-0.1,1.9-0.2,2.3-1.1,3.2c-1,1.1-1.2,1.8-0.6,2.2c0.8,0.5,2.9-2.6,3.2-5 c0.2-1.4,1.2-2.5,2.2-2.5c0.4,0,1.6,0.2,2.5,0.6c2.9,1,4.5,0.7,4.3-0.5c-0.1-0.4-0.4-0.5-1-0.5c-0.5,0-1.9-0.4-3.3-0.8 c-2.6-1-2.8-1-4.7-0.1c-0.4,0.1-0.5,0.1-0.5-0.2c0-0.2,0.6-0.7,1.3-1.1c0.7-0.4,1.7-1.2,2-1.8c0.6-1,0.8-1.1,1.2-0.7 C145.9,113.1,146.4,113.5,146.7,113.7L146.7,113.7z M153,125c0.6,1.2,0.8,4.1,0.6,6c-0.1,1.2-0.5,1.7-1.3,2.5 c-1.3,1.3-1.4,2.2,0,2l0.8-0.1l0.2,2.2c0.2,2.3-0.1,4.7-0.8,6.1c-0.5,1.1-2.3,2.3-3.5,2.5c-1,0.2-3.3,2.5-3.1,3.1 c0.2,0.7,1.3,0.6,1.9-0.2c0.7-1,1.1-0.7,1.4,0.5c0.1,0.6,0.4,1,0.8,1c0.5,0,0.6-0.2,0.5-1.3c0-1.3,0-1.4,1.2-2.2l1.2-0.8l0.2,1.1 c0.5,1.6,0.4,4.5-0.1,5.9c-0.7,1.8-3.5,3.1-5.1,2.4c-1.1-0.5-1.9-1.6-3-3.9c-1-2.3-1.8-2.9-2.2-1.3c-0.1,0.6-0.2,0.7-0.7,0.5 c-1-0.4-1.1-0.8-0.6-1.6c0.6-0.8,0.6-2.6,0-2.6c-0.2,0-0.7,0.4-1.1,0.8c-2,2.9-4.8,1.8-5.6-2.2c-0.1-0.6-0.5-1-1.1-1.2 c-1-0.5-1.9-1.4-1.9-2.2c0-0.2,0.4-0.5,0.7-0.6c1.3-0.4,1.1-1.9-0.4-1.9c-1,0-2-1.3-2.4-2.8c-0.5-1.7-0.1-2.3,1-2.3 c1,0,2.5-1.4,3.8-3.3c0.5-0.7,0.7-0.8,1.3-0.7l0.7,0.2l-0.4,1.6c-1,3.9,0.1,7.1,2.5,7.1c0.7,0,0.8,0.1,1,1.2 c0.5,2.9,2.3,4.7,4.8,4.7c1.4,0,2.3-0.4,3.1-1.4c1-1.2,0.8-2.4-0.2-3.6c-1-1-1-1-0.4-1.7c1.6-2.5,2.2-5.1,1.3-7.1 c-0.4-0.7-0.2-1.1,0.2-2c0.4-0.6,0.7-1.9,0.8-2.9c0.1-1.6,0.2-1.6,1.3-1.9c0.6-0.2,1.2-0.5,1.3-0.6C152.1,123.8,152.5,124,153,125 L153,125z M160.4,91c-1.9,0.5-3.3,1.9-3.8,3.8c-0.5,1.7-0.4,7.4,0.1,9.2c0.4,1.4,0.4,1.7,0,2.9c-0.4,1.1-0.5,1.8-0.4,4.1 c0.1,1.6,0.1,3.1,0.1,3.6c-0.2,3.6-0.1,6,0.5,7.1c0.5,1.1,0.5,1.2,0.1,2.4c-1.1,2.9-1.1,7.5-0.1,9.4c0.2,0.4,0.2,1.2,0,2.4 c-0.4,2.6-0.4,5.1,0.1,7.2c0.4,1.6,0.4,1.9,0,3.3c-0.6,2.2-0.6,5.6-0.1,7.5c0.6,1.9,2.9,4.4,4.5,4.9c2.5,0.7,5-0.5,6.3-3.1 c0.7-1.6,1-1.8,1.9-1.9c1.2-0.2,2-0.6,2.5-1.3c0.2-0.2,0.8-0.5,1.6-0.5c2.3,0,3.9-1.4,4.9-3.9c0.2-0.7,0.7-1.3,1.3-1.7 c1.2-0.7,2-2,2.3-3.7c0.1-0.7,0.6-2,1.1-2.9c0.8-1.3,1-1.8,1-3.9c0-1.8,0.2-2.8,0.7-3.7c0.6-1.2,0.6-1.8,0.7-6.6 c0.1-6.1-0.1-7.9-1.4-10.6c-0.8-1.6-1-2.4-1-3.7c0-3-1.3-6.5-3-8.1c-0.5-0.5-1.3-1.7-1.8-2.6c-1.2-2.4-3-4.3-4.3-4.3 c-0.7,0-1.1-0.2-1.4-0.7c-0.2-0.4-1.1-1.1-1.8-1.6c-1.1-0.6-1.7-0.8-3.1-0.8c-1.4,0-1.9-0.1-2.6-0.8C163.7,91,161.9,90.6,160.4,91 L160.4,91z M163.2,93.8c0.7,0.4,0.8,0.6,0.5,0.8c-0.2,0.2-0.7,0.4-1.6,0.2c-1.4-0.2-2.8,0.7-2.8,1.8c0,0.8,0.5,1,1.3,0.2 c0.8-0.6,1.3-0.5,1.3,0.2c0,1.2,0.6,1.2,1.6,0.1c2.6-3.1,6.5-2.9,8.1,0.5l0.5,0.8l-1-0.2c-1.3-0.4-2.5-0.2-2.9,0.1 c-0.5,0.5,0.2,1.2,1.3,1.2c2,0,3.7,1.9,3.9,4.8l0.1,1.8h-1.1c-1.3,0-3.2,1.1-3.2,1.8c0,0.8,0.6,1,1.8,0.2c1.1-0.6,1.1-0.6,2-0.1 c1.2,0.6,1.9,1.7,1.9,3.1c0,0.8-0.1,1.1-0.6,1.2c-0.4,0.1-1.2,0.5-1.8,1l-1.3,0.8l-1.3-0.7c-1.9-1.1-2.4-1.9-2.6-4.7 c-0.1-2.9,0.2-3.8,1.7-3.8c0.7,0,0.8-0.1,0.8-0.7c0-1.2-1.4-1.3-2.6-0.2c-0.5,0.4-0.6,0.4-1.6-0.6c-1.3-1.4-3.6-2-4.7-1.4 c-0.6,0.5-0.1,1.2,1,1.3c2.5,0.5,3.7,2,3.8,5.1c0.1,2.2-0.1,2.6-1.3,3.2c-1,0.6-6.1,1-6.3,0.5c-0.1-0.2-0.2-1.3-0.2-2.4 c0-2.8,0.5-3.5,2.3-3.5c1.3,0,1.8,0.4,1.8,1.6c0,0.6-0.1,0.8-0.6,0.8c-0.8,0.1-1,1.1-0.2,1.3c0.4,0.1,0.8,0,1.4-0.4 c0.6-0.5,0.7-0.8,0.8-2.3c0.1-1.4,0-1.8-0.6-2.4c-0.6-0.6-1-0.7-2.4-0.7c-1.6,0-1.7,0-2-1.1c-0.4-0.7-0.5-2-0.5-4.3 c0-3.5,0.4-4.8,1.7-5.4C160.7,93.3,162.3,93.3,163.2,93.8L163.2,93.8z M175.1,99.3c1.3,1.6,1.7,2.6,2.3,6c0.6,3.5,0.8,4.3,1.6,4.3 c0.4,0,0.5-0.2,0.2-2c-0.1-1.2-0.1-2,0-2c0.1,0,0.4,0.5,0.7,1.1c0.7,1.4,1.2,3.8,1.2,5.6c0,1.2-0.1,1.6-0.7,2l-0.7,0.6l-1.3-1.3 c-1-1-1.3-1.6-1.3-2.2c0-1-1.3-3.8-1.8-3.8c-0.1,0-0.2-1-0.2-2.2c0-1.8-0.1-2.5-0.8-3.8C172.8,98.9,173.5,97.3,175.1,99.3 L175.1,99.3z M167.3,113.5c0.4,0.5,1.2,1.3,2,1.8c0.8,0.5,1.6,1.1,1.6,1.2c0,0.5-0.2,0.5-1.4-0.1c-1-0.5-1.1-0.5-3.7,0.5 c-1.6,0.5-3.1,0.8-3.5,0.8c-0.5-0.1-0.7,0.1-0.8,0.5c-0.2,1.2,1.4,1.4,4.3,0.5c1-0.4,2.2-0.6,2.6-0.6c1.1,0,1.8,1.1,2.3,3.1 c0.5,2.6,2.4,4.9,3.2,4.1c0.1-0.1-0.1-0.7-0.6-1.4c-2.2-3-1.7-7.3,1-9c1.4-1,2.4-0.7,3.3,0.5c0.6,0.8,0.8,1.4,1,2.3 c0,1.7,0.8,4.1,1.4,4.2s1-0.8,0.5-1.8c-0.1-0.5-0.2-1.3-0.2-2c0-1.1,0.1-1.3,0.8-1.9c0.5-0.4,1-0.6,1-0.6s0.5,0.7,0.8,1.7 c0.8,2.3,1,7.8,0.1,9.1c-1.1,1.7-2.9,1.8-4.1,0.1c-0.4-0.5-0.8-1.7-1.2-2.8c-0.8-2.5-1.4-2.8-1.4-0.5c0,1.1,0.2,2,0.8,3.2 c1.3,2.6,3.2,3.6,5.3,2.5c0.5-0.2,1-0.4,1.1-0.2c0.4,0.4-0.6,2.9-1.3,3.6c-1.1,1.1-1.7,0.8-3.1-1.2c-0.6-0.8-1.6-1.8-1.9-1.9 c-0.8-0.4-1.9-0.1-2.9,0.5c-0.8,0.6-2.2,0.5-2.9-0.4c-0.8-0.8-1.6-1-1.6-0.2c0,0.7,1.7,2.4,2.5,2.6c0.4,0.1,1,0.2,1.1,0.2 c0.4,0.1,1,2.4,1,3.7c0,2.3-1.8,3-3.6,1.4c-0.8-0.7-1.1-0.8-1.3-0.5c-0.2,0.4-0.1,0.6,0.6,1.6c1,1.1,1,1.1,0.6,2.5 c-0.5,1.8-1.7,3-3.2,3c-0.8,0-1.3-0.1-1.8-0.5l-0.6-0.6l0.8-1c1.3-1.4,1.3-1.8,0.2-3.8c-0.6-1.1-1.1-2.5-1.2-3.3 c-0.1-1.3-0.1-1.6,0.6-2.4c1.1-1.4,2.3-1.3,3.7,0.2c1.3,1.3,1.9,1.6,1.9,0.5c0-1-2.2-3.3-3.1-3.6c-0.5-0.1-1.3,0-2,0.2l-1.2,0.5 l-0.2-1c-0.4-1.3-0.6-3.3-0.4-3.6c0.4-0.5,3.8-2.2,4.5-2.2c0.6,0,0.7-0.1,0.7-0.6c-0.2-1.2-1-1.3-2.9-0.4c-1.8,1-2.5,1.1-4.2,1.1 c-1.1-0.1-3.1-1.8-3.7-3.2c-0.5-1.2-0.5-3.5-0.1-4.3c0.5-0.8,2-1.4,3.7-1.4c1.6,0,3.1-0.5,3.7-1.3 C166.6,112.3,166.7,112.4,167.3,113.5L167.3,113.5z M161.1,124.8c0.4,0.2,0.8,0.4,1.1,0.4c0.2,0,0.4,0.7,0.5,1.8 c0.1,1,0.4,2.3,0.7,2.8c0.6,1,0.6,1.1,0.1,2.2c-0.7,1.8-0.1,4.7,1.7,7.2c0.2,0.5,0.2,0.6-0.4,1.1c-2.4,1.9-0.7,5.4,2.6,5.4 c2.3,0,4.3-2,4.8-4.8c0.1-0.8,0.4-1.1,0.7-1.1c1.1,0,2-0.7,2.6-1.8c0.6-1.3,0.7-2.8,0.1-5c-0.4-1.2-0.4-1.7-0.1-1.8 c0.8-0.5,1.2-0.2,2.5,1.7c1.1,1.6,2.2,2.3,3.3,2.3c0.7,0,0.7,0,0.6,1.7c-0.1,1.9-1.2,3.3-2.6,3.5c-0.7,0.1-1,0.2-1,0.7 c-0.1,0.5,0.1,0.7,0.8,1c0.7,0.2,0.8,0.5,0.7,1c-0.2,1-1,1.6-1.9,1.8c-0.6,0.1-0.8,0.4-1,1c-0.6,2.9-1.6,4.1-3.2,4.1 c-0.8,0-1.2-0.2-2.2-1.3c-0.7-0.8-1.2-1.2-1.6-1.1c-0.6,0.2-0.6,0.7,0.1,2.2c0.4,0.6,0.6,1.2,0.6,1.2s-0.4,0.2-0.8,0.5 c-0.8,0.5-0.8,0.5-0.8-0.1c0-0.6-0.5-1.2-1-1.2c-0.1,0-0.7,1.1-1.3,2.4c-1.4,3.1-2.3,3.9-3.9,3.8c-1.4,0-3.7-1.2-4.1-2.2 c-0.5-1.4-0.7-3.3-0.4-5.1c0.1-1.1,0.4-1.9,0.5-2c0.1-0.1,0.7,0.1,1.3,0.6c1.2,0.7,1.2,0.8,1.2,2.2c0,1,0.1,1.3,0.5,1.4 c0.4,0.1,0.6-0.2,0.8-1c0.5-1.4,0.8-1.6,1.4-0.6c0.7,1,1.7,1.1,1.7,0.1c0-1-1.6-2.4-3.5-3.1c-3.2-1.2-4.4-4.2-3.8-9.2 c0.2-1.3,0.2-1.4,1.1-1.3c1.3,0.1,1.3-0.8,0.1-1.9c-0.6-0.5-1.2-1.3-1.3-1.8c-0.5-1.4-0.5-4.1-0.1-5.6 C159.1,124,159.3,123.9,161.1,124.8L161.1,124.8z"/>
      <g>
        <g>
          <g>
            <defs>
              <rect id="SVGID_00000005966959788359948170000001848863980850253717_" x="128.3" y="166.8" width="55.2" height="7.5"/>
            </defs>
            <clipPath id="SVGID_00000134956940547188134680000015317342320394049455_">
              <rect x="128.3" y="166.8" width="55.2" height="7.5" transform="matrix(1, 0, 0, 1, 0, 0)" style="overflow: visible;"/>
            </clipPath>
            <g style="clip-path:url(#SVGID_00000134956940547188134680000015317342320394049455_);">
              <image style="overflow:visible;enable-background:new    ;" width="1513" height="204" transform="matrix(3.651815e-02 0 0 3.745368e-02 128.3574 166.711)" xlink:href="AD99FCBB03585CC4.jpg"/>
            </g>
          </g>
        </g>
      </g>
    </g>
  </g>
  <g transform="matrix(1, 0, 0, 1, 29, 0)">
    <path class="st8" d="M308.6,360.4c9.9-4.2,9.9,33.1,19.8,33.6c9.9-0.3,9.9-37.6,19.8-35.4c9.9,2.4,9.9,32.4,19.8,30 c9.9-2.1,9.9-24.8,19.8-24.6c9.9-0.5,9.9,22.1,19.8,26.4"/>
  </g>
  <path class="st4" d="M 605.8 246.7 L 616.7 252.3 C 620.9 254.5 626 252.8 628.2 248.6 C 628.4 248.2 628.6 247.7 628.7 247.3 L 628.7 247.3 C 630.1 242.8 627.7 238 623.2 236.6 C 622.4 236.3 621.5 236.2 620.7 236.2 L 607.8 236.1 L 568.5 226.1 L 561.2 203 L 545.3 212.9 L 557.7 239 L 605.8 246.7 Z"/>
  <path id="path-3" class="st0" d="M 352.135 142.144 C 348.835 142.231 346.235 144.562 346.335 147.324 C 346.435 150.087 348.935 152.332 352.135 152.332 L 459.235 152.332 C 462.535 152.332 465.235 150.087 465.235 147.238 C 465.235 144.389 462.635 142.058 459.435 142.058 C 459.335 142.058 459.335 142.058 459.235 142.058 L 352.135 142.144 L 352.135 142.144 Z" style=""/>
  <path id="path-1" class="st0" d="M 352.303 124.832 C 349.003 124.919 346.403 127.25 346.503 130.012 C 346.603 132.775 349.103 135.02 352.303 135.02 L 459.403 135.02 C 462.703 135.02 465.403 132.775 465.403 129.926 C 465.403 127.077 462.803 124.746 459.603 124.746 C 459.503 124.746 459.503 124.746 459.403 124.746 L 352.303 124.832 L 352.303 124.832 Z" style=""/>
  <path id="path-2" class="st0" d="M 352.219 106.945 C 348.919 107.032 346.319 109.363 346.419 112.125 C 346.519 114.888 349.019 117.133 352.219 117.133 L 459.319 117.133 C 462.619 117.133 465.319 114.888 465.319 112.039 C 465.319 109.19 462.719 106.859 459.519 106.859 C 459.419 106.859 459.419 106.859 459.319 106.859 L 352.219 106.945 L 352.219 106.945 Z" style=""/>
</svg>