<?xml version="1.0" encoding="utf-8"?>
<!-- Generator: Adobe Illustrator 26.0.1, SVG Export Plug-In . SVG Version: 6.00 Build 0)  -->
<svg version="1.1" id="acb0935a-a5d3-4db2-8c3a-1d54a68cd318"
	 xmlns="http://www.w3.org/2000/svg" xmlns:xlink="http://www.w3.org/1999/xlink" x="0px" y="0px" viewBox="0 0 913.3 595.5"
	 style="enable-background:new 0 0 913.3 595.5;" xml:space="preserve">
<style type="text/css">
	.st0{fill:#0C8B44;}
	.st1{fill:#0C8040;}
	.st2{fill:#2F2E41;}
	.st3{fill:#3F3D56;}
	.st4{fill:#E6E6E6;}
	.st5{fill:#CCCCCC;}
	.st6{fill:#0D753B;}
	.st7{fill:#08753B;}
</style>
<path class="st0" d="M744.4,594.4h-14.8c-3.9,0-7-3.1-7-7v-123c0-3.9,3.1-7,7-7h14.8c3.9,0,7,3.1,7,7v123
	C751.4,591.3,748.3,594.4,744.4,594.4z"/>
<path class="st1" d="M775.6,594.4h-14.8c-3.9,0-7-3.1-7-7v-123c0-3.9,3.1-7,7-7h14.8c3.9,0,7,3.1,7,7v123
	C782.6,591.3,779.5,594.4,775.6,594.4z"/>
<path class="st2" d="M780.6,503.3h-57c-4.7,0-8.5-3.8-8.5-8.5v-16c0-4.7,3.8-8.5,8.5-8.5h57c4.7,0,8.5,3.8,8.5,8.5v16
	C789.1,499.5,785.3,503.3,780.6,503.3z"/>
<path class="st2" d="M757.5,205.1c1.7-17.4,13.2-34,30.6-38.5c8.5-2.3,17.5-1.4,25.5,2.3c7.2,3.6,12.9,9.7,16,17.2
	c3.1,7.4,4.2,15.4,3.4,23.3c-0.9,8.7-3.7,17-8.1,24.6c-4.7,8.3-10.9,15.8-17.3,22.8c-6.6,7.2-14,13.8-19.5,21.8
	c-4.9,7.1-8.8,16.8-4,25.1c3.9,6.2,11,9.5,18.2,8.5c1.7-0.3,3.4-0.8,4.9-1.6c1.7-0.9,3.2,1.7,1.5,2.6c-6.5,3.5-14.5,2.7-20.6-1.2
	c-7-4.5-10.2-12.4-8.9-20.5c1.5-9.3,8-17.3,14.2-24c6.5-7,13.3-13.7,19.4-21.1c6-7.3,11.3-15.5,14.5-24.4c2.7-7.5,3.6-15.5,2.6-23.4
	c-1-7.5-3.9-15-9.1-20.6c-5.9-6.1-14-9.5-22.4-9.4c-8.7-0.1-17.1,3-23.6,8.7c-6.4,5.8-11,13.3-13,21.7c-0.5,2.1-0.9,4.2-1.1,6.3
	C760.3,207,757.3,207,757.5,205.1L757.5,205.1z"/>
<path class="st2" d="M767,204.4l-14.2-4.7c-2.9-0.9-4.5-4.1-3.5-6.9c0.9-2.9,4.1-4.5,6.9-3.5c0,0,0,0,0,0l14.2,4.7
	c2.9,0.9,4.5,4.1,3.5,6.9C773,203.8,769.9,205.3,767,204.4C767,204.4,767,204.4,767,204.4L767,204.4z"/>
<rect x="589.3" y="593.3" class="st3" width="324" height="2.2"/>
<path class="st4" d="M485,390c-8.7,0-17.3-1-25.7-2.9c-4.3-1-8.6-2.3-12.8-3.8h0l-0.2-0.1c-5.4-2-10.6-4.3-15.6-7
	c-1.3-0.7-2.6-1.4-3.9-2.2c-0.9-0.5-1.7-1.1-2.6-1.6c-53.2-33.6-69.1-104-35.5-157.3s104-69.1,157.3-35.5
	c33.1,20.9,53.1,57.3,53.1,96.4v0c-0.1,39.8-20.8,76.6-54.8,97.4c-2,1.2-4,2.3-6.2,3.5c-3,1.6-6,3-9.1,4.3l-0.6,0.2
	c-1.1,0.4-2.1,0.8-3.2,1.2c-0.5,0.2-1,0.4-1.5,0.6c-12.4,4.5-25.5,6.8-38.7,6.8H485z M446.8,381.3l0.2,0.1c4.2,1.5,8.4,2.8,12.7,3.8
	c8.3,1.9,16.8,2.9,25.3,2.9c0,0,0.1,0,0.1,0c13,0,25.9-2.2,38.1-6.7c0.5-0.2,1-0.4,1.5-0.6c0.8-0.3,1.7-0.6,2.5-1v0l0.6-0.3
	c3.2-1.3,6.3-2.8,9.5-4.4c2.2-1.1,4.1-2.3,6.1-3.4c33.3-20.4,53.7-56.6,53.8-95.7v0c0-61.9-50.2-112-112-112
	c-61.9,0-112,50.2-112,112c0,38.4,19.7,74.2,52.2,94.7c0.9,0.5,1.7,1.1,2.6,1.6c1.3,0.8,2.5,1.5,3.8,2.2
	C436.5,377.1,441.6,379.4,446.8,381.3L446.8,381.3z"/>
<path class="st4" d="M279,228c-8.7,0-17.3-1-25.7-2.9c-4.3-1-8.6-2.3-12.8-3.8h0l-0.2-0.1c-5.4-2-10.6-4.3-15.6-7
	c-1.3-0.7-2.6-1.4-3.9-2.2c-0.9-0.5-1.7-1.1-2.6-1.6c-53.2-33.6-69.1-104-35.5-157.3s104-69.1,157.3-35.5
	c33.1,20.9,53.1,57.3,53.1,96.4v0c-0.1,39.8-20.8,76.6-54.8,97.4c-2,1.2-4,2.3-6.2,3.5c-3,1.6-6,3-9.1,4.3l-0.6,0.2
	c-1.1,0.4-2.1,0.8-3.2,1.2c-0.5,0.2-1,0.4-1.5,0.6c-12.4,4.5-25.5,6.8-38.7,6.8C279.1,228,279,228,279,228z M240.8,219.3l0.2,0.1
	c4.2,1.5,8.4,2.8,12.7,3.8c8.3,1.9,16.8,2.9,25.3,2.9c0,0,0.1,0,0.1,0c13,0,25.9-2.2,38.1-6.7c0.5-0.2,1-0.4,1.5-0.6
	c0.8-0.3,1.7-0.6,2.5-1v0l0.6-0.3c3.2-1.3,6.3-2.8,9.5-4.4c2.2-1.1,4.1-2.3,6.1-3.4c33.3-20.4,53.7-56.6,53.8-95.7v0
	c0-61.9-50.2-112-112-112c-61.9,0-112,50.2-112,112c0,38.4,19.7,74.2,52.2,94.7c0.9,0.5,1.7,1.1,2.6,1.6c1.3,0.8,2.5,1.5,3.8,2.2
	C230.5,215.1,235.6,217.4,240.8,219.3L240.8,219.3z"/>
<path class="st4" d="M114,458c-8.7,0-17.3-1-25.7-2.9c-4.3-1-8.6-2.3-12.8-3.8h0l-0.2-0.1c-5.4-2-10.6-4.3-15.6-7
	c-1.3-0.7-2.6-1.4-3.9-2.2c-0.9-0.5-1.7-1.1-2.6-1.6c-53.2-33.6-69.1-104-35.5-157.3s104-69.1,157.3-35.5
	c33.1,20.9,53.1,57.3,53.1,96.4v0c-0.1,39.8-20.8,76.6-54.8,97.4c-2,1.2-4,2.3-6.2,3.5c-3,1.6-6,3-9.1,4.3l-0.6,0.2
	c-1.1,0.4-2.1,0.8-3.2,1.2c-0.5,0.2-1,0.4-1.5,0.6c-12.4,4.5-25.5,6.8-38.7,6.8C114.1,458,114,458,114,458z M75.8,449.3l0.2,0.1
	c4.2,1.5,8.4,2.8,12.7,3.8c8.3,1.9,16.8,2.9,25.3,2.9c0,0,0.1,0,0.1,0c13,0,25.9-2.2,38.1-6.7c0.5-0.2,1-0.4,1.5-0.6
	c0.8-0.3,1.7-0.6,2.5-1v0l0.6-0.3c3.2-1.3,6.3-2.8,9.5-4.4c2.2-1.1,4.1-2.3,6.1-3.4c33.3-20.4,53.7-56.6,53.8-95.7v0
	c0-61.9-50.2-112-112-112c-61.9,0-112,50.2-112,112c0,38.4,19.7,74.2,52.2,94.7c0.9,0.5,1.7,1.1,2.6,1.6c1.3,0.8,2.5,1.5,3.8,2.2
	C65.5,445.1,70.6,447.4,75.8,449.3z"/>
<circle class="st5" cx="176.3" cy="248" r="15.8"/>
<circle class="st5" cx="348.3" cy="27" r="15.8"/>
<circle class="st5" cx="572.3" cy="210" r="15.8"/>
<circle class="st0" cx="752.8" cy="258.6" r="53.5"/>
<path class="st6" d="M613.4,426.9c-0.7,0-1.5-0.1-2.2-0.3c-1.8-0.6-3.2-1.8-4.1-3.5l-6.7-13.1c-1.8-3.4-0.4-7.7,3-9.4c0,0,0,0,0,0
	l109.5-56c3.4-1.8,7.7-0.4,9.4,3l6.7,13.1c1.8,3.4,0.4,7.7-3,9.4l-109.5,56C615.6,426.6,614.5,426.9,613.4,426.9z"/>
<path class="st5" d="M798.6,480.3h-91c-4.7,0-8.5-3.8-8.5-8.5v-95.5c0-29.8,24.2-54,54-54s54,24.2,54,54v95.5
	C807.1,476.5,803.3,480.3,798.6,480.3z"/>
<path class="st1" d="M763.8,470c-0.1,0-0.1,0-0.2,0l-14.8-0.4c-3.9-0.1-6.9-3.3-6.8-7.2l3.6-123c0-1.9,0.8-3.6,2.2-4.9
	c0.1-0.1,0.3-0.3,0.4-0.4c1.3-1,2.9-1.6,4.6-1.5l14.8,0.4c3.9,0.1,6.9,3.3,6.8,7.2l-3.6,123C770.7,466.9,767.6,470,763.8,470z"/>
<path class="st5" d="M749.5,329.9c1.2-1,2.7-1.5,4.3-1.4l14.8,0.4c3.6,0.1,6.4,3.1,6.3,6.7l3.4,57c-0.1,3.6-3.1,6.4-6.7,6.3l0,0
	l-27.8-0.4c-3.6-0.1-6.4-3.1-6.3-6.7c0,0,0,0,0,0l6.1-55.9c0.1-1.7,4.2-4.4,5.5-5.6C749.2,330.1,749.4,330,749.5,329.9z"/>
<path class="st5" d="M728.8,340.1c1.4,0.6,2.6,1.7,3.3,3.1l6.7,13.2c1.6,3.2,0.3,7.1-2.9,8.7l-48.4,30.3c-3.2,1.6-7.1,0.3-8.7-2.9
	l0,0l-12.9-24.6c-1.6-3.2-0.3-7.1,2.9-8.7c0,0,0,0,0,0l54.6-18.9c1.5-0.8,3.3-0.9,5-0.4C728.4,339.9,728.6,340,728.8,340.1z"/>
<path class="st2" d="M735,271.7c-3.3-0.1-7.4-0.2-10.6-2.5c-1.9-1.5-3.1-3.7-3.2-6.1c-0.1-1.7,0.6-3.4,1.9-4.5
	c1.7-1.4,4.1-1.7,6.7-1l-2.7-19.7l2-0.3l3.2,23.2l-1.7-0.8c-1.9-0.9-4.6-1.3-6.2,0.1c-0.8,0.7-1.2,1.8-1.2,2.9
	c0.1,1.8,1,3.4,2.4,4.5c2.5,1.8,5.7,2,9.5,2.1L735,271.7z"/>
<rect x="706.4" y="239.6" class="st2" width="10.8" height="2"/>
<rect x="740.4" y="239.6" class="st2" width="10.8" height="2"/>
<ellipse transform="matrix(0.1602 -0.9871 0.9871 0.1602 123.4433 713.8992)" class="st7" cx="481.3" cy="284.4" rx="53.5" ry="53.5"/>
<path class="st2" d="M457,255.6c-6.2-1.5-13-3.5-17.4-8.4c-3.8-4.2-5.6-10.6-2.2-15.6c3.1-4.5,9.1-6.2,14.2-7c5.9-1,12-1.1,17.6-3.7
	c2.7-1.2,5.1-3.1,6.9-5.5c1.7-2.4,3.2-4.9,4.4-7.5c1.2-2.6,2.7-5,4.6-7.1c2.1-2.1,4.9-3.5,7.9-3.9c6.7-1,13.1,2.1,18.3,5.9
	c5.1,3.8,9.7,8.2,13.8,13.1c9.2,11,15.6,24.1,18.5,38.2c0.4,1.9,3.3,1.1,2.9-0.8c-2.8-13.3-8.5-25.8-16.9-36.5
	c-4.1-5.4-8.9-10.2-14.1-14.5c-5.4-4.4-11.7-8.2-18.9-8.6c-3.3-0.2-6.6,0.5-9.6,1.9c-2.7,1.4-5,3.6-6.7,6.2
	c-3.4,5.1-5,11.7-10.4,15.2c-5.5,3.5-12.4,3.5-18.6,4.5c-5.6,0.9-11.7,2.7-15.5,7.2c-4.2,4.9-4,11.7-0.9,17.1
	c3.5,6,9.9,9.3,16.3,11.3c1.7,0.5,3.3,0.9,5,1.3C458.1,258.9,458.9,256,457,255.6L457,255.6z"/>
<path class="st2" d="M479,302.3l-0.1-2c3.7-0.1,7-0.3,9.5-2.1c1.4-1.1,2.3-2.7,2.4-4.5c0.1-1.1-0.3-2.2-1.2-2.9
	c-1.6-1.4-4.3-0.9-6.2-0.1l-1.7,0.8l3.2-23.2l2,0.3l-2.7,19.7c2.6-0.8,5-0.4,6.7,1c1.3,1.1,2,2.8,1.9,4.5c-0.1,2.4-1.3,4.6-3.2,6.1
	C486.4,302.1,482.3,302.2,479,302.3z"/>
<rect x="496.7" y="270.2" class="st2" width="10.8" height="2"/>
<rect x="462.7" y="270.2" class="st2" width="10.8" height="2"/>
<circle class="st0" cx="112.3" cy="352.4" r="53.5"/>
<path class="st2" d="M110,370.3l-0.1-2c3.7-0.1,7-0.3,9.5-2.1c1.4-1.1,2.3-2.7,2.4-4.5c0.1-1.1-0.3-2.2-1.2-2.9
	c-1.6-1.4-4.3-0.9-6.2-0.1l-1.7,0.8l3.2-23.2l2,0.3l-2.7,19.7c2.6-0.8,5-0.4,6.7,1c1.3,1.1,2,2.8,1.9,4.5c-0.1,2.4-1.3,4.6-3.2,6.1
	C117.4,370.1,113.3,370.2,110,370.3z"/>
<rect x="127.7" y="338.2" class="st2" width="10.8" height="2"/>
<rect x="93.7" y="338.2" class="st2" width="10.8" height="2"/>
<circle class="st5" cx="280.3" cy="120.9" r="53.5"/>
<path class="st2" d="M318.1,140.6l-0.1-2c3.7-0.1,7-0.3,9.5-2.1c1.4-1.1,2.3-2.7,2.4-4.5c0.1-1.1-0.3-2.2-1.2-2.9
	c-1.6-1.4-4.3-0.9-6.2-0.1l-1.7,0.8l3.2-23.2l2,0.3l-2.7,19.7c2.6-0.8,5-0.4,6.7,1c1.3,1.1,2,2.8,1.9,4.5c-0.1,2.4-1.3,4.6-3.2,6.1
	C325.5,140.4,321.4,140.6,318.1,140.6z"/>
<rect x="301.8" y="108.6" class="st2" width="10.8" height="2"/>
<path class="st2" d="M311.9,64.2c-2-11.9-9.5-22.2-19.3-29.1c-9.5-6.7-20.9-10.1-32.5-9.9c-22.5,0.2-44.5,12.8-56.5,31.8
	c-13.4,20.9-13.6,48.3-4.6,70.9c2.3,5.8,5.2,11.4,8.7,16.6c3.9,5.7,8.6,10.8,13.1,16c8.5,9.7,18.3,23.1,12.6,36.6
	c-2.1,5-6.6,9.5-12.2,9.9c-4.8,0.3-10.1-2-12.2-6.5c-2.4-5,0.9-11,5.8-13c5.1-2.2,10.4,1,12.3,5.9c0.9,2.3,1,4.8,0.1,7.1
	c-0.4,0.7-0.2,1.6,0.5,2.1c0.7,0.4,1.6,0.2,2.1-0.5c2.1-5.2,0.7-11.1-3.4-14.8c-4.2-4-10.7-4.4-15.3-0.9c-4.8,3.5-7.3,9.7-4.9,15.3
	c2.1,4.9,7.1,7.8,12.2,8.4c5.7,0.6,11.3-1.9,14.7-6.5c3.8-4.9,5.5-11.1,4.8-17.3c-1.7-15.4-13.9-25.9-23.1-37.1
	c-8.2-10.1-14-21.9-16.9-34.5c-3-12.4-2.9-25.4,0.3-37.8c3.1-11.7,9.5-22.4,18.3-30.6c8.5-7.9,18.9-13.5,30.2-16.2
	c11.2-2.8,22.9-2.1,33.7,2.1c11.3,4.5,21.3,13.3,26,24.6c1.1,2.7,2,5.6,2.4,8.5C309.3,66.9,312.2,66.1,311.9,64.2L311.9,64.2z"/>
<path class="st2" d="M311.8,64.6c5-4.8,13.2-5.5,19.2-2.3c6.2,3.4,8.7,10.7,7.1,17.4c-0.8,3.8-3,7.1-6.1,9.4
	c-1.6,1.1-0.1,3.7,1.5,2.6c6.8-4.7,9.6-13.8,7.3-21.6c-2.4-8.2-10.4-13.1-18.7-12.7c-4.6,0.1-9.1,1.9-12.4,5.1
	C308.3,63.9,310.4,66,311.8,64.6z"/>
<path class="st2" d="M125.9,318.6c6.5-0.6,11.9-4.9,14.7-10.6c3-6,3-13,0.1-19.1c-3-6.2-8.1-11.2-14.4-14.2
	c-7.3-3.5-15.5-4.5-23.6-4.2c-15.1,0.6-31.8,4.9-41.1,17.7c-4.4,5.8-6.3,13.2-5.3,20.4c1.2,7.6,5.8,14.2,10.7,19.8
	c5.2,5.9,11.1,11.3,15.2,18.1c3.5,5.9,5.4,13.3,3.1,20c-0.6,1.6-1.4,3.1-2.5,4.4c-1.2,1.5,0.9,3.6,2.1,2.1
	c4.3-5.1,5.1-11.9,3.8-18.3c-1.5-7-5.7-13-10.4-18.3c-9.1-10.3-22.5-21.6-18.7-37.1c1.8-6.7,5.9-12.6,11.5-16.6
	c6.1-4.4,13.2-6.8,20.5-8.1c14-2.5,30.9-2.2,41.5,8.6c4.4,4.5,7.4,10.8,6.6,17.3c-0.7,5.8-4.4,11.5-9.8,13.9
	c-1.3,0.6-2.7,0.9-4.1,1.1C124,315.8,124,318.8,125.9,318.6L125.9,318.6z"/>
</svg>
