<svg xmlns="http://www.w3.org/2000/svg" viewBox="0 0 50 50"><defs><style>.cls-1{fill:#fff;}</style></defs><g id="Layer_2" data-name="Layer 2"><g id="Webicons"><path class="cls-1" d="M26,19V14H22v5a1,1,0,0,1-1,1H16v4h5a1,1,0,0,1,1,1v5h4V25a1,1,0,0,1,1-1h5V20H27A1,1,0,0,1,26,19Z"/><path class="cls-1" d="M0,39a5,5,0,0,0,5,5H43a5,5,0,0,0,5-5V38H0Z"/><path class="cls-1" d="M47,6H38V5a1,1,0,0,0-1-1H34V3a3,3,0,0,0-3-3H17a3,3,0,0,0-3,3V4H11a1,1,0,0,0-1,1V6H1A1,1,0,0,0,0,7V36H48V7A1,1,0,0,0,47,6ZM16,5V3a1,1,0,0,1,1-1H31a1,1,0,0,1,1,1V5a1,1,0,0,0,1,1H15A1,1,0,0,0,16,5ZM34,25a1,1,0,0,1-1,1H28v5a1,1,0,0,1-1,1H21a1,1,0,0,1-1-1V26H15a1,1,0,0,1-1-1V19a1,1,0,0,1,1-1h5V13a1,1,0,0,1,1-1h6a1,1,0,0,1,1,1v5h5a1,1,0,0,1,1,1Z"/></g></g></svg>