<svg xmlns="http://www.w3.org/2000/svg" viewBox="0 0 50 50"><defs><style>.cls-1{fill:#fff;}</style></defs><g id="Layer_2" data-name="Layer 2"><g id="Webicons"><path class="cls-1" d="M46,10A10,10,0,0,0,28,4H20A10,10,0,0,0,2,9.9L0,30a6,6,0,0,0,6,6,5.94,5.94,0,0,0,4.8-2.4.82.82,0,0,0,.12-.2L16.78,20H31.22l5.86,13.4a.82.82,0,0,0,.12.2A5.94,5.94,0,0,0,42,36a6,6,0,0,0,6-6.1ZM15,12H12v3a1,1,0,0,1-2,0V12H7a1,1,0,0,1,0-2h3V7a1,1,0,0,1,2,0v3h3a1,1,0,0,1,0,2Zm12,2H21a1,1,0,0,1,0-2h6a1,1,0,0,1,0,2Zm4-4a1,1,0,0,1,0-2h2a1,1,0,0,1,0,2Zm4,6H33a1,1,0,0,1,0-2h2a1,1,0,0,1,0,2Zm2-8a1,1,0,0,1,0-2h2a1,1,0,0,1,0,2Zm4,6H39a1,1,0,0,1,0-2h2a1,1,0,0,1,0,2Z"/></g></g></svg>