<svg xmlns="http://www.w3.org/2000/svg" viewBox="0 0 50 50"><defs><style>.cls-1{fill:#fff;}</style></defs><g id="Layer_2" data-name="Layer 2"><g id="Webicons"><path class="cls-1" d="M44,23.07a1.16,1.16,0,0,0,0-.18V12a1,1,0,0,0-.09-.41C41.38,5.83,33.71,0,24,0S6.66,5.83,4.11,11.59h0s0,.06,0,.09A1.07,1.07,0,0,0,4,12H4v10.9a.76.76,0,0,0,0,.16A8,8,0,0,0,8,38h.18A3,3,0,0,0,14,37V23a3,3,0,0,0-5.82-1H8a8,8,0,0,0-2,.26v-10A16.56,16.56,0,0,1,11.4,6.07L13,7.71a1,1,0,0,0,1.27.12S17.14,6,23.94,6s9.74,1.82,9.76,1.84a1,1,0,0,0,.55.16,1,1,0,0,0,.7-.29l1.67-1.65A16.72,16.72,0,0,1,42,12.22v10A7.94,7.94,0,0,0,40,22h-.19A3,3,0,0,0,34,23V37a3,3,0,0,0,5.81,1H40a8,8,0,0,0,4-14.93Z"/></g></g></svg>