<svg xmlns="http://www.w3.org/2000/svg" viewBox="0 0 50 50"><defs><style>.cls-1{fill:#fff;}</style></defs><g id="Layer_2" data-name="Layer 2"><g id="Webicons"><path class="cls-1" d="M47,20H41a1,1,0,0,0-.89.55l-.8,1.59L38,16.76a1,1,0,0,0-1.92-.07l-2.6,7.81L32,12.88a1,1,0,0,0-.94-.88,1,1,0,0,0-1,.78L25.62,31.85,24,1A1,1,0,0,0,23.09,0,1,1,0,0,0,22,.78l-4.74,20.5L16,10.88a1,1,0,0,0-1.94-.19l-2.91,8.74L10,14.76a1,1,0,0,0-1.86-.21L6.38,18H1a1,1,0,0,0,0,2H7a1,1,0,0,0,.89-.55l.8-1.58L10,23.24A1,1,0,0,0,11,24a1,1,0,0,0,1-.68l2.6-7.82L16,27.13A1,1,0,0,0,17,28a1,1,0,0,0,1-.77l4.4-19.07L24,39.05a1,1,0,0,0,.91,1H25a1,1,0,0,0,1-.77l4.74-20.51L32,29.13a1,1,0,0,0,1.94.19l2.91-8.74L38,25.24a1,1,0,0,0,1.86.21L41.62,22H47a1,1,0,0,0,0-2Z"/></g></g></svg>