<svg xmlns="http://www.w3.org/2000/svg" viewBox="0 0 50 50"><defs><style>.cls-1{fill:#fff;}</style></defs><g id="Layer_2" data-name="Layer 2"><g id="Webicons"><path class="cls-1" d="M15,17.75V14a2,2,0,0,0-4,0v3.75l.94,1.78a1,1,0,0,1,.07.78,1,1,0,0,1-.51.59L8,22.62V25a1,1,0,0,0,1,1h8a1,1,0,0,0,1-1V22.62l-3.94-3.09Z"/><path class="cls-1" d="M47,6H26V1a1,1,0,0,0-1-1H1A1,1,0,0,0,0,1V39a1,1,0,0,0,1,1H15a1,1,0,0,0,1-1V34h2v5a1,1,0,0,0,1,1H29a1,1,0,0,0,1-1V34h2v5a1,1,0,0,0,1,1H47a1,1,0,0,0,1-1V7A1,1,0,0,0,47,6ZM20,25a3,3,0,0,1-3,3H9a3,3,0,0,1-3-3V22a1,1,0,0,1,.56-.9l3.13-1.54-.57-1.09A1,1,0,0,1,9,18V14a4,4,0,0,1,8,0v4a1,1,0,0,1-.12.47l-.57,1.09,3.13,1.54A1,1,0,0,1,20,22Zm21,3H25a1,1,0,0,1,0-2H41a1,1,0,0,1,0,2Zm0-6H25a1,1,0,0,1,0-2H41a1,1,0,0,1,0,2Zm0-6H25a1,1,0,0,1,0-2H41a1,1,0,0,1,0,2Z"/></g></g></svg>