<svg xmlns="http://www.w3.org/2000/svg" viewBox="0 0 50 50"><defs><style>.cls-1{fill:#fff;}</style></defs><g id="Layer_2" data-name="Layer 2"><g id="Webicons"><path class="cls-1" d="M35,14a3,3,0,0,0,3-3V3a3,3,0,0,0-6,0v8A3,3,0,0,0,35,14Z"/><path class="cls-1" d="M47,6H40v5a5,5,0,0,1-10,0V6H26.26a15,15,0,0,1-.4,14.72l.43-.43a1,1,0,0,1,1.42,1.42L25.42,24l2.29,2.29a1,1,0,0,1,0,1.42,1,1,0,0,1-1.42,0L24,25.42l-2.29,2.29a1,1,0,0,1-1.42,0,1,1,0,0,1,0-1.42l.43-.43A15,15,0,0,1,0,20.47V47a1,1,0,0,0,1,1H47a1,1,0,0,0,1-1V7A1,1,0,0,0,47,6ZM13.71,38.29a1,1,0,0,1,0,1.42,1,1,0,0,1-1.42,0L10,37.42,7.71,39.71a1,1,0,0,1-1.42,0,1,1,0,0,1,0-1.42L8.58,36,6.29,33.71a1,1,0,0,1,1.42-1.42L10,34.58l2.29-2.29a1,1,0,0,1,1.42,1.42L11.42,36Zm14,0a1,1,0,0,1,0,1.42,1,1,0,0,1-1.42,0L24,37.42l-2.29,2.29a1,1,0,0,1-1.42,0,1,1,0,0,1,0-1.42L22.58,36l-2.29-2.29a1,1,0,0,1,1.42-1.42L24,34.58l2.29-2.29a1,1,0,0,1,1.42,1.42L25.42,36ZM42,39a1,1,0,0,1-1,1H35a1,1,0,0,1-1-1V33a1,1,0,0,1,1-1h6a1,1,0,0,1,1,1Zm-.29-12.71a1,1,0,0,1,0,1.42,1,1,0,0,1-1.42,0L38,25.42l-2.29,2.29a1,1,0,0,1-1.42,0,1,1,0,0,1,0-1.42L36.58,24l-2.29-2.29a1,1,0,0,1,1.42-1.42L38,22.58l2.29-2.29a1,1,0,0,1,1.42,1.42L39.42,24Z"/><rect class="cls-1" x="36" y="34" width="4" height="4"/><path class="cls-1" d="M13,26A13,13,0,1,0,0,13,13,13,0,0,0,13,26ZM5,12h7V5a1,1,0,0,1,2,0v8a1,1,0,0,1-1,1H5a1,1,0,0,1,0-2Z"/></g></g></svg>